  0
SECTION
  2
HEADER
  9
$ACADVER
  1
AC1014
  9
$HANDSEED
  5
FFFF
  9
$MEASUREMENT
 70
     1
  0
ENDSEC
  0
SECTION
  2
TABLES
  0
TABLE
  2
VPORT
  5
8
330
0
100
AcDbSymbolTable
 70
     4
  0
VPORT
  5
2E
330
8
100
AcDbSymbolTableRecord
100
AcDbViewportTableRecord
  2
*ACTIVE
 70
     0
 10
0.0
 20
0.0
 11
1.0
 21
1.0
 12
210.0
 22
148.5
 13
0.0
 23
0.0
 14
10.0
 24
10.0
 15
10.0
 25
10.0
 16
0.0
 26
0.0
 36
1.0
 17
0.0
 27
0.0
 37
0.0
 40
341.0
 41
1.24
 42
50.0
 43
0.0
 44
0.0
 50
0.0
 51
0.0
 71
     0
 72
   100
 73
     1
 74
     3
 75
     0
 76
     0
 77
     0
 78
     0
  0
ENDTAB
  0
TABLE
  2
LTYPE
  5
5
330
0
100
AcDbSymbolTable
 70
     1
  0
LTYPE
  5
14
330
5
100
AcDbSymbolTableRecord
100
AcDbLinetypeTableRecord
  2
BYBLOCK
 70
     0
  3

 72
    65
 73
     0
 40
0.0
  0
LTYPE
  5
15
330
5
100
AcDbSymbolTableRecord
100
AcDbLinetypeTableRecord
  2
BYLAYER
 70
     0
  3

 72
    65
 73
     0
 40
0.0
  0
LTYPE
  5
16
330
5
100
AcDbSymbolTableRecord
100
AcDbLinetypeTableRecord
  2
CONTINUOUS
 70
     0
  3
Solid line
 72
    65
 73
     0
 40
0.0
  0
ENDTAB
  0
TABLE
  2
LAYER
  5
2
100
AcDbSymbolTable
 70
1
  0
LAYER
  5
50
100
AcDbSymbolTableRecord
100
AcDbLayerTableRecord
  2
0
 70
0
  6
CONTINUOUS
  0
ENDTAB
  0
TABLE
  2
STYLE
  5
3
330
0
100
AcDbSymbolTable
 70
     1
  0
STYLE
  5
11
330
3
100
AcDbSymbolTableRecord
100
AcDbTextStyleTableRecord
  2
STANDARD
 70
     0
 40
0.0
 41
1.0
 50
0.0
 71
     0
 42
2.5
  3
txt
  4

  0
ENDTAB
  0
TABLE
  2
VIEW
  5
6
330
0
100
AcDbSymbolTable
 70
     0
  0
ENDTAB
  0
TABLE
  2
UCS
  5
7
330
0
100
AcDbSymbolTable
 70
     0
  0
ENDTAB
  0
TABLE
  2
APPID
  5
9
330
0
100
AcDbSymbolTable
 70
     2
  0
APPID
  5
12
330
9
100
AcDbSymbolTableRecord
100
AcDbRegAppTableRecord
  2
ACAD
 70
     0
  0
ENDTAB
  0
TABLE
  2
DIMSTYLE
  5
A
330
0
100
AcDbSymbolTable
 70
     1
  0
DIMSTYLE
105
27
330
A
100
AcDbSymbolTableRecord
100
AcDbDimStyleTableRecord
  2
ISO-25
 70
     0
  3

  4

  5

  6

  7

 40
1.0
 41
2.5
 42
0.625
 43
3.75
 44
1.25
 45
0.0
 46
0.0
 47
0.0
 48
0.0
140
2.5
141
2.5
142
0.0
143
0.03937007874016
144
1.0
145
0.0
146
1.0
147
0.625
 71
     0
 72
     0
 73
     0
 74
     0
 75
     0
 76
     0
 77
     1
 78
     8
170
     0
171
     3
172
     1
173
     0
174
     0
175
     0
176
     0
177
     0
178
     0
270
     2
271
     2
272
     2
273
     2
274
     3
340
11
275
     0
280
     0
281
     0
282
     0
283
     0
284
     8
285
     0
286
     0
287
     3
288
     0
  0
ENDTAB
  0
TABLE
  2
BLOCK_RECORD
  5
1
330
0
100
AcDbSymbolTable
 70
     1
  0
BLOCK_RECORD
  5
1F
330
1
100
AcDbSymbolTableRecord
100
AcDbBlockTableRecord
  2
*MODEL_SPACE
  0
BLOCK_RECORD
  5
1B
330
1
100
AcDbSymbolTableRecord
100
AcDbBlockTableRecord
  2
*PAPER_SPACE
  0
ENDTAB
  0
ENDSEC
  0
SECTION
  2
BLOCKS
  0
BLOCK
  5
20
330
1F
100
AcDbEntity
  8
0
100
AcDbBlockBegin
  2
*MODEL_SPACE
 70
     0
 10
0.0
 20
0.0
 30
0.0
  3
*MODEL_SPACE
  1

  0
ENDBLK
  5
21
330
1F
100
AcDbEntity
  8
0
100
AcDbBlockEnd
  0
BLOCK
  5
1C
330
1B
100
AcDbEntity
 67
     1
  8
0
100
AcDbBlockBegin
  2
*PAPER_SPACE
  1

  0
ENDBLK
  5
1D
330
1B
100
AcDbEntity
 67
     1
  8
0
100
AcDbBlockEnd
  0
ENDSEC
  0
SECTION
  2
ENTITIES
  0
SPLINE
  5
100
100
AcDbEntity
  8
0
 62
7
100
AcDbSpline
 70
8
 71
3
 72
8
 73
4
 74
0
 40
0
 40
0
 40
0
 40
0
 40
1
 40
1
 40
1
 40
1
 10
79.927631
 20
153.823808
 30
0.0
 10
79.989367
 20
153.823808
 30
0.0
 10
80.040079
 20
153.773093
 30
0.0
 10
80.040079
 20
153.711371
 30
0.0
  0
LWPOLYLINE
  5
101
100
AcDbEntity
  8
0
 62
7
100
AcDbPolyline
 90
2
 70
0
 10
0.155756
 20
153.823808
 30
0.0
 10
79.927631
 20
153.823808
 30
0.0
  0
SPLINE
  5
102
100
AcDbEntity
  8
0
 62
7
100
AcDbSpline
 70
8
 71
3
 72
8
 73
4
 74
0
 40
0
 40
0
 40
0
 40
0
 40
1
 40
1
 40
1
 40
1
 10
80.040079
 20
97.933902
 30
0.0
 10
80.040079
 20
97.871051
 30
0.0
 10
79.989367
 20
97.821437
 30
0.0
 10
79.927631
 20
97.821437
 30
0.0
  0
LWPOLYLINE
  5
103
100
AcDbEntity
  8
0
 62
7
100
AcDbPolyline
 90
2
 70
0
 10
80.040079
 20
153.711371
 30
0.0
 10
80.040079
 20
97.933902
 30
0.0
  0
SPLINE
  5
104
100
AcDbEntity
  8
0
 62
7
100
AcDbSpline
 70
8
 71
3
 72
8
 73
4
 74
0
 40
0
 40
0
 40
0
 40
0
 40
1
 40
1
 40
1
 40
1
 10
0.155756
 20
97.821437
 30
0.0
 10
0.092917
 20
97.821437
 30
0.0
 10
0.043308
 20
97.871051
 30
0.0
 10
0.043308
 20
97.933902
 30
0.0
  0
LWPOLYLINE
  5
105
100
AcDbEntity
  8
0
 62
7
100
AcDbPolyline
 90
2
 70
0
 10
79.927631
 20
97.821437
 30
0.0
 10
0.155756
 20
97.821437
 30
0.0
  0
SPLINE
  5
106
100
AcDbEntity
  8
0
 62
7
100
AcDbSpline
 70
8
 71
3
 72
8
 73
4
 74
0
 40
0
 40
0
 40
0
 40
0
 40
1
 40
1
 40
1
 40
1
 10
0.043308
 20
153.711371
 30
0.0
 10
0.043308
 20
153.773093
 30
0.0
 10
0.092917
 20
153.823808
 30
0.0
 10
0.155756
 20
153.823808
 30
0.0
  0
LWPOLYLINE
  5
107
100
AcDbEntity
  8
0
 62
7
100
AcDbPolyline
 90
2
 70
0
 10
0.043308
 20
97.933902
 30
0.0
 10
0.043308
 20
153.711371
 30
0.0
  0
LWPOLYLINE
  5
108
100
AcDbEntity
  8
0
 62
7
100
AcDbPolyline
 90
2
 70
0
 10
0.155756
 20
153.823808
 30
0.0
 10
0.155756
 20
153.823808
 30
0.0
  0
SPLINE
  5
109
100
AcDbEntity
  8
0
 62
7
100
AcDbSpline
 70
8
 71
3
 72
8
 73
4
 74
0
 40
0
 40
0
 40
0
 40
0
 40
1
 40
1
 40
1
 40
1
 10
0.043308
 20
92.939387
 30
0.0
 10
0.043308
 20
92.939387
 30
0.0
 10
0.042179
 20
92.932896
 30
0.0
 10
0.043308
 20
92.932896
 30
0.0
  0
LWPOLYLINE
  5
10a
100
AcDbEntity
  8
0
 62
7
100
AcDbPolyline
 90
2
 70
0
 10
0.043308
 20
95.331672
 30
0.0
 10
0.043308
 20
92.939387
 30
0.0
  0
SPLINE
  5
10b
100
AcDbEntity
  8
0
 62
7
100
AcDbSpline
 70
8
 71
3
 72
8
 73
4
 74
0
 40
0
 40
0
 40
0
 40
0
 40
1
 40
1
 40
1
 40
1
 10
0.149141
 20
92.932896
 30
0.0
 10
0.091816
 20
92.932896
 30
0.0
 10
0.043308
 20
92.891015
 30
0.0
 10
0.043308
 20
92.833667
 30
0.0
  0
LWPOLYLINE
  5
10c
100
AcDbEntity
  8
0
 62
7
100
AcDbPolyline
 90
2
 70
0
 10
0.043308
 20
92.932896
 30
0.0
 10
0.149141
 20
92.932896
 30
0.0
  0
SPLINE
  5
10d
100
AcDbEntity
  8
0
 62
7
100
AcDbSpline
 70
8
 71
3
 72
8
 73
4
 74
0
 40
0
 40
0
 40
0
 40
0
 40
1
 40
1
 40
1
 40
1
 10
0.043308
 20
41.836337
 30
0.0
 10
0.043308
 20
41.779018
 30
0.0
 10
0.091816
 20
41.737136
 30
0.0
 10
0.149141
 20
41.737136
 30
0.0
  0
LWPOLYLINE
  5
10e
100
AcDbEntity
  8
0
 62
7
100
AcDbPolyline
 90
2
 70
0
 10
0.043308
 20
92.833667
 30
0.0
 10
0.043308
 20
41.836337
 30
0.0
  0
SPLINE
  5
10f
100
AcDbEntity
  8
0
 62
7
100
AcDbSpline
 70
8
 71
3
 72
8
 73
4
 74
0
 40
0
 40
0
 40
0
 40
0
 40
1
 40
1
 40
1
 40
1
 10
4.036312
 20
39.338247
 30
0.0
 10
4.037441
 20
39.338247
 30
0.0
 10
4.042916
 20
39.338247
 30
0.0
 10
4.042916
 20
39.338247
 30
0.0
  0
LWPOLYLINE
  5
110
100
AcDbEntity
  8
0
 62
7
100
AcDbPolyline
 90
4
 70
0
 10
0.149141
 20
41.737136
 30
0.0
 10
0.043308
 20
41.737136
 30
0.0
 10
0.043308
 20
39.338247
 30
0.0
 10
4.036312
 20
39.338247
 30
0.0
  0
SPLINE
  5
111
100
AcDbEntity
  8
0
 62
7
100
AcDbSpline
 70
8
 71
3
 72
8
 73
4
 74
0
 40
0
 40
0
 40
0
 40
0
 40
1
 40
1
 40
1
 40
1
 10
79.939746
 20
41.737136
 30
0.0
 10
79.997071
 20
41.737136
 30
0.0
 10
80.038964
 20
41.779018
 30
0.0
 10
80.038964
 20
41.836337
 30
0.0
  0
LWPOLYLINE
  5
112
100
AcDbEntity
  8
0
 62
7
100
AcDbPolyline
 90
7
 70
0
 10
4.042916
 20
39.338247
 30
0.0
 10
4.042916
 20
41.737136
 30
0.0
 10
76.044860
 20
41.737136
 30
0.0
 10
76.044860
 20
39.338247
 30
0.0
 10
80.038964
 20
39.338247
 30
0.0
 10
80.038964
 20
41.737136
 30
0.0
 10
79.939746
 20
41.737136
 30
0.0
  0
SPLINE
  5
113
100
AcDbEntity
  8
0
 62
7
100
AcDbSpline
 70
8
 71
3
 72
8
 73
4
 74
0
 40
0
 40
0
 40
0
 40
0
 40
1
 40
1
 40
1
 40
1
 10
80.038964
 20
92.833667
 30
0.0
 10
80.038964
 20
92.891015
 30
0.0
 10
79.997071
 20
92.932896
 30
0.0
 10
79.939746
 20
92.932896
 30
0.0
  0
LWPOLYLINE
  5
114
100
AcDbEntity
  8
0
 62
7
100
AcDbPolyline
 90
2
 70
0
 10
80.038964
 20
41.836337
 30
0.0
 10
80.038964
 20
92.833667
 30
0.0
  0
SPLINE
  5
115
100
AcDbEntity
  8
0
 62
7
100
AcDbSpline
 70
8
 71
3
 72
8
 73
4
 74
0
 40
0
 40
0
 40
0
 40
0
 40
1
 40
1
 40
1
 40
1
 10
80.038964
 20
92.932896
 30
0.0
 10
80.040093
 20
92.932896
 30
0.0
 10
80.038964
 20
92.938541
 30
0.0
 10
80.038964
 20
92.939387
 30
0.0
  0
LWPOLYLINE
  5
116
100
AcDbEntity
  8
0
 62
7
100
AcDbPolyline
 90
2
 70
0
 10
79.939746
 20
92.932896
 30
0.0
 10
80.038964
 20
92.932896
 30
0.0
  0
SPLINE
  5
117
100
AcDbEntity
  8
0
 62
7
100
AcDbSpline
 70
8
 71
3
 72
8
 73
4
 74
0
 40
0
 40
0
 40
0
 40
0
 40
1
 40
1
 40
1
 40
1
 10
4.036300
 20
92.932896
 30
0.0
 10
4.037429
 20
92.932896
 30
0.0
 10
4.042904
 20
92.938541
 30
0.0
 10
4.042904
 20
92.939387
 30
0.0
  0
LWPOLYLINE
  5
118
100
AcDbEntity
  8
0
 62
7
100
AcDbPolyline
 90
6
 70
0
 10
80.038964
 20
92.939387
 30
0.0
 10
80.038964
 20
95.331672
 30
0.0
 10
76.044860
 20
95.331672
 30
0.0
 10
76.044860
 20
92.939387
 30
0.0
 10
76.044860
 20
92.932896
 30
0.0
 10
4.036300
 20
92.932896
 30
0.0
  0
SPLINE
  5
119
100
AcDbEntity
  8
0
 62
7
100
AcDbSpline
 70
8
 71
3
 72
8
 73
4
 74
0
 40
0
 40
0
 40
0
 40
0
 40
1
 40
1
 40
1
 40
1
 10
4.042904
 20
95.331672
 30
0.0
 10
4.042904
 20
95.331672
 30
0.0
 10
4.037401
 20
95.331672
 30
0.0
 10
4.036300
 20
95.331672
 30
0.0
  0
LWPOLYLINE
  5
11a
100
AcDbEntity
  8
0
 62
7
100
AcDbPolyline
 90
2
 70
0
 10
4.042904
 20
92.939387
 30
0.0
 10
4.042904
 20
95.331672
 30
0.0
  0
SPLINE
  5
11b
100
AcDbEntity
  8
0
 62
7
100
AcDbSpline
 70
8
 71
3
 72
8
 73
4
 74
0
 40
0
 40
0
 40
0
 40
0
 40
1
 40
1
 40
1
 40
1
 10
73.436520
 20
107.822687
 30
0.0
 10
73.436520
 20
106.143690
 30
0.0
 10
72.076121
 20
104.783295
 30
0.0
 10
70.397119
 20
104.783295
 30
0.0
  0
SPLINE
  5
11c
100
AcDbEntity
  8
0
 62
7
100
AcDbSpline
 70
8
 71
3
 72
8
 73
4
 74
0
 40
0
 40
0
 40
0
 40
0
 40
1
 40
1
 40
1
 40
1
 10
70.397119
 20
104.783295
 30
0.0
 10
68.718117
 20
104.783295
 30
0.0
 10
67.356615
 20
106.143690
 30
0.0
 10
67.356615
 20
107.822687
 30
0.0
  0
SPLINE
  5
11d
100
AcDbEntity
  8
0
 62
7
100
AcDbSpline
 70
8
 71
3
 72
8
 73
4
 74
0
 40
0
 40
0
 40
0
 40
0
 40
1
 40
1
 40
1
 40
1
 10
67.356615
 20
107.822687
 30
0.0
 10
67.356615
 20
109.500583
 30
0.0
 10
68.718117
 20
110.860978
 30
0.0
 10
70.397119
 20
110.860978
 30
0.0
  0
SPLINE
  5
11e
100
AcDbEntity
  8
0
 62
7
100
AcDbSpline
 70
8
 71
3
 72
8
 73
4
 74
0
 40
0
 40
0
 40
0
 40
0
 40
1
 40
1
 40
1
 40
1
 10
70.397119
 20
110.860978
 30
0.0
 10
72.076121
 20
110.860978
 30
0.0
 10
73.436520
 20
109.500583
 30
0.0
 10
73.436520
 20
107.822687
 30
0.0
  0
LWPOLYLINE
  5
11f
100
AcDbEntity
  8
0
 62
7
100
AcDbPolyline
 90
2
 70
0
 10
4.036300
 20
95.331672
 30
0.0
 10
0.043308
 20
95.331672
 30
0.0
  0
SPLINE
  5
120
100
AcDbEntity
  8
0
 62
7
100
AcDbSpline
 70
8
 71
3
 72
8
 73
4
 74
0
 40
0
 40
0
 40
0
 40
0
 40
1
 40
1
 40
1
 40
1
 10
14.598699
 20
107.822687
 30
0.0
 10
14.598699
 20
105.502086
 30
0.0
 10
12.717953
 20
103.622430
 30
0.0
 10
10.396235
 20
103.622430
 30
0.0
  0
SPLINE
  5
121
100
AcDbEntity
  8
0
 62
7
100
AcDbSpline
 70
8
 71
3
 72
8
 73
4
 74
0
 40
0
 40
0
 40
0
 40
0
 40
1
 40
1
 40
1
 40
1
 10
10.396235
 20
103.622430
 30
0.0
 10
8.075617
 20
103.622430
 30
0.0
 10
6.194871
 20
105.502086
 30
0.0
 10
6.194871
 20
107.822687
 30
0.0
  0
SPLINE
  5
122
100
AcDbEntity
  8
0
 62
7
100
AcDbSpline
 70
8
 71
3
 72
8
 73
4
 74
0
 40
0
 40
0
 40
0
 40
0
 40
1
 40
1
 40
1
 40
1
 10
6.194871
 20
107.822687
 30
0.0
 10
6.194871
 20
110.142215
 30
0.0
 10
8.075617
 20
112.021843
 30
0.0
 10
10.396235
 20
112.021843
 30
0.0
  0
SPLINE
  5
123
100
AcDbEntity
  8
0
 62
7
100
AcDbSpline
 70
8
 71
3
 72
8
 73
4
 74
0
 40
0
 40
0
 40
0
 40
0
 40
1
 40
1
 40
1
 40
1
 10
10.396235
 20
112.021843
 30
0.0
 10
12.717953
 20
112.021843
 30
0.0
 10
14.598699
 20
110.142215
 30
0.0
 10
14.598699
 20
107.822687
 30
0.0
  0
LWPOLYLINE
  5
124
100
AcDbEntity
  8
0
 62
7
100
AcDbPolyline
 90
2
 70
0
 10
73.436520
 20
107.822687
 30
0.0
 10
73.436520
 20
107.822687
 30
0.0
  0
SPLINE
  5
125
100
AcDbEntity
  8
0
 62
7
100
AcDbSpline
 70
8
 71
3
 72
8
 73
4
 74
0
 40
0
 40
0
 40
0
 40
0
 40
1
 40
1
 40
1
 40
1
 10
30.599374
 20
107.822687
 30
0.0
 10
30.599374
 20
105.502086
 30
0.0
 10
28.717528
 20
103.622430
 30
0.0
 10
26.396912
 20
103.622430
 30
0.0
  0
SPLINE
  5
126
100
AcDbEntity
  8
0
 62
7
100
AcDbSpline
 70
8
 71
3
 72
8
 73
4
 74
0
 40
0
 40
0
 40
0
 40
0
 40
1
 40
1
 40
1
 40
1
 10
26.396912
 20
103.622430
 30
0.0
 10
24.076294
 20
103.622430
 30
0.0
 10
22.194445
 20
105.502086
 30
0.0
 10
22.194445
 20
107.822687
 30
0.0
  0
SPLINE
  5
127
100
AcDbEntity
  8
0
 62
7
100
AcDbSpline
 70
8
 71
3
 72
8
 73
4
 74
0
 40
0
 40
0
 40
0
 40
0
 40
1
 40
1
 40
1
 40
1
 10
22.194445
 20
107.822687
 30
0.0
 10
22.194445
 20
110.142215
 30
0.0
 10
24.076294
 20
112.021843
 30
0.0
 10
26.396912
 20
112.021843
 30
0.0
  0
SPLINE
  5
128
100
AcDbEntity
  8
0
 62
7
100
AcDbSpline
 70
8
 71
3
 72
8
 73
4
 74
0
 40
0
 40
0
 40
0
 40
0
 40
1
 40
1
 40
1
 40
1
 10
26.396912
 20
112.021843
 30
0.0
 10
28.717528
 20
112.021843
 30
0.0
 10
30.599374
 20
110.142215
 30
0.0
 10
30.599374
 20
107.822687
 30
0.0
  0
LWPOLYLINE
  5
129
100
AcDbEntity
  8
0
 62
7
100
AcDbPolyline
 90
2
 70
0
 10
14.598699
 20
107.822687
 30
0.0
 10
14.598699
 20
107.822687
 30
0.0
  0
SPLINE
  5
12a
100
AcDbEntity
  8
0
 62
7
100
AcDbSpline
 70
8
 71
3
 72
8
 73
4
 74
0
 40
0
 40
0
 40
0
 40
0
 40
1
 40
1
 40
1
 40
1
 10
46.598950
 20
107.822687
 30
0.0
 10
46.598950
 20
105.502086
 30
0.0
 10
44.717101
 20
103.622430
 30
0.0
 10
42.396486
 20
103.622430
 30
0.0
  0
SPLINE
  5
12b
100
AcDbEntity
  8
0
 62
7
100
AcDbSpline
 70
8
 71
3
 72
8
 73
4
 74
0
 40
0
 40
0
 40
0
 40
0
 40
1
 40
1
 40
1
 40
1
 10
42.396486
 20
103.622430
 30
0.0
 10
40.075869
 20
103.622430
 30
0.0
 10
38.194020
 20
105.502086
 30
0.0
 10
38.194020
 20
107.822687
 30
0.0
  0
SPLINE
  5
12c
100
AcDbEntity
  8
0
 62
7
100
AcDbSpline
 70
8
 71
3
 72
8
 73
4
 74
0
 40
0
 40
0
 40
0
 40
0
 40
1
 40
1
 40
1
 40
1
 10
38.194020
 20
107.822687
 30
0.0
 10
38.194020
 20
110.142215
 30
0.0
 10
40.075869
 20
112.021843
 30
0.0
 10
42.396486
 20
112.021843
 30
0.0
  0
SPLINE
  5
12d
100
AcDbEntity
  8
0
 62
7
100
AcDbSpline
 70
8
 71
3
 72
8
 73
4
 74
0
 40
0
 40
0
 40
0
 40
0
 40
1
 40
1
 40
1
 40
1
 10
42.396486
 20
112.021843
 30
0.0
 10
44.717101
 20
112.021843
 30
0.0
 10
46.598950
 20
110.142215
 30
0.0
 10
46.598950
 20
107.822687
 30
0.0
  0
LWPOLYLINE
  5
12e
100
AcDbEntity
  8
0
 62
7
100
AcDbPolyline
 90
2
 70
0
 10
30.599374
 20
107.822687
 30
0.0
 10
30.599374
 20
107.822687
 30
0.0
  0
SPLINE
  5
12f
100
AcDbEntity
  8
0
 62
7
100
AcDbSpline
 70
8
 71
3
 72
8
 73
4
 74
0
 40
0
 40
0
 40
0
 40
0
 40
1
 40
1
 40
1
 40
1
 10
22.599039
 20
115.821937
 30
0.0
 10
22.599039
 20
113.502409
 30
0.0
 10
20.717189
 20
111.621680
 30
0.0
 10
18.396572
 20
111.621680
 30
0.0
  0
SPLINE
  5
130
100
AcDbEntity
  8
0
 62
7
100
AcDbSpline
 70
8
 71
3
 72
8
 73
4
 74
0
 40
0
 40
0
 40
0
 40
0
 40
1
 40
1
 40
1
 40
1
 10
18.396572
 20
111.621680
 30
0.0
 10
16.075957
 20
111.621680
 30
0.0
 10
14.194108
 20
113.502409
 30
0.0
 10
14.194108
 20
115.821937
 30
0.0
  0
SPLINE
  5
131
100
AcDbEntity
  8
0
 62
7
100
AcDbSpline
 70
8
 71
3
 72
8
 73
4
 74
0
 40
0
 40
0
 40
0
 40
0
 40
1
 40
1
 40
1
 40
1
 10
14.194108
 20
115.821937
 30
0.0
 10
14.194108
 20
118.141437
 30
0.0
 10
16.075957
 20
120.022194
 30
0.0
 10
18.396572
 20
120.022194
 30
0.0
  0
SPLINE
  5
132
100
AcDbEntity
  8
0
 62
7
100
AcDbSpline
 70
8
 71
3
 72
8
 73
4
 74
0
 40
0
 40
0
 40
0
 40
0
 40
1
 40
1
 40
1
 40
1
 10
18.396572
 20
120.022194
 30
0.0
 10
20.717189
 20
120.022194
 30
0.0
 10
22.599039
 20
118.141437
 30
0.0
 10
22.599039
 20
115.821937
 30
0.0
  0
LWPOLYLINE
  5
133
100
AcDbEntity
  8
0
 62
7
100
AcDbPolyline
 90
2
 70
0
 10
46.598950
 20
107.822687
 30
0.0
 10
46.598950
 20
107.822687
 30
0.0
  0
SPLINE
  5
134
100
AcDbEntity
  8
0
 62
7
100
AcDbSpline
 70
8
 71
3
 72
8
 73
4
 74
0
 40
0
 40
0
 40
0
 40
0
 40
1
 40
1
 40
1
 40
1
 10
38.598610
 20
115.821937
 30
0.0
 10
38.598610
 20
113.502409
 30
0.0
 10
36.717865
 20
111.621680
 30
0.0
 10
34.396147
 20
111.621680
 30
0.0
  0
SPLINE
  5
135
100
AcDbEntity
  8
0
 62
7
100
AcDbSpline
 70
8
 71
3
 72
8
 73
4
 74
0
 40
0
 40
0
 40
0
 40
0
 40
1
 40
1
 40
1
 40
1
 10
34.396147
 20
111.621680
 30
0.0
 10
32.075529
 20
111.621680
 30
0.0
 10
30.194783
 20
113.502409
 30
0.0
 10
30.194783
 20
115.821937
 30
0.0
  0
SPLINE
  5
136
100
AcDbEntity
  8
0
 62
7
100
AcDbSpline
 70
8
 71
3
 72
8
 73
4
 74
0
 40
0
 40
0
 40
0
 40
0
 40
1
 40
1
 40
1
 40
1
 10
30.194783
 20
115.821937
 30
0.0
 10
30.194783
 20
118.141437
 30
0.0
 10
32.075529
 20
120.022194
 30
0.0
 10
34.396147
 20
120.022194
 30
0.0
  0
SPLINE
  5
137
100
AcDbEntity
  8
0
 62
7
100
AcDbSpline
 70
8
 71
3
 72
8
 73
4
 74
0
 40
0
 40
0
 40
0
 40
0
 40
1
 40
1
 40
1
 40
1
 10
34.396147
 20
120.022194
 30
0.0
 10
36.717865
 20
120.022194
 30
0.0
 10
38.598610
 20
118.141437
 30
0.0
 10
38.598610
 20
115.821937
 30
0.0
  0
LWPOLYLINE
  5
138
100
AcDbEntity
  8
0
 62
7
100
AcDbPolyline
 90
2
 70
0
 10
22.599039
 20
115.821937
 30
0.0
 10
22.599039
 20
115.821937
 30
0.0
  0
SPLINE
  5
139
100
AcDbEntity
  8
0
 62
7
100
AcDbSpline
 70
8
 71
3
 72
8
 73
4
 74
0
 40
0
 40
0
 40
0
 40
0
 40
1
 40
1
 40
1
 40
1
 10
14.598699
 20
123.822260
 30
0.0
 10
14.598699
 20
121.502760
 30
0.0
 10
12.717953
 20
119.622003
 30
0.0
 10
10.396235
 20
119.622003
 30
0.0
  0
SPLINE
  5
13a
100
AcDbEntity
  8
0
 62
7
100
AcDbSpline
 70
8
 71
3
 72
8
 73
4
 74
0
 40
0
 40
0
 40
0
 40
0
 40
1
 40
1
 40
1
 40
1
 10
10.396235
 20
119.622003
 30
0.0
 10
8.075617
 20
119.622003
 30
0.0
 10
6.194871
 20
121.502760
 30
0.0
 10
6.194871
 20
123.822260
 30
0.0
  0
SPLINE
  5
13b
100
AcDbEntity
  8
0
 62
7
100
AcDbSpline
 70
8
 71
3
 72
8
 73
4
 74
0
 40
0
 40
0
 40
0
 40
0
 40
1
 40
1
 40
1
 40
1
 10
6.194871
 20
123.822260
 30
0.0
 10
6.194871
 20
126.141788
 30
0.0
 10
8.075617
 20
128.022517
 30
0.0
 10
10.396235
 20
128.022517
 30
0.0
  0
SPLINE
  5
13c
100
AcDbEntity
  8
0
 62
7
100
AcDbSpline
 70
8
 71
3
 72
8
 73
4
 74
0
 40
0
 40
0
 40
0
 40
0
 40
1
 40
1
 40
1
 40
1
 10
10.396235
 20
128.022517
 30
0.0
 10
12.717953
 20
128.022517
 30
0.0
 10
14.598699
 20
126.141788
 30
0.0
 10
14.598699
 20
123.822260
 30
0.0
  0
LWPOLYLINE
  5
13d
100
AcDbEntity
  8
0
 62
7
100
AcDbPolyline
 90
2
 70
0
 10
38.598610
 20
115.821937
 30
0.0
 10
38.598610
 20
115.821937
 30
0.0
  0
SPLINE
  5
13e
100
AcDbEntity
  8
0
 62
7
100
AcDbSpline
 70
8
 71
3
 72
8
 73
4
 74
0
 40
0
 40
0
 40
0
 40
0
 40
1
 40
1
 40
1
 40
1
 10
30.599374
 20
123.822260
 30
0.0
 10
30.599374
 20
121.502760
 30
0.0
 10
28.717528
 20
119.622003
 30
0.0
 10
26.396912
 20
119.622003
 30
0.0
  0
SPLINE
  5
13f
100
AcDbEntity
  8
0
 62
7
100
AcDbSpline
 70
8
 71
3
 72
8
 73
4
 74
0
 40
0
 40
0
 40
0
 40
0
 40
1
 40
1
 40
1
 40
1
 10
26.396912
 20
119.622003
 30
0.0
 10
24.076294
 20
119.622003
 30
0.0
 10
22.194445
 20
121.502760
 30
0.0
 10
22.194445
 20
123.822260
 30
0.0
  0
SPLINE
  5
140
100
AcDbEntity
  8
0
 62
7
100
AcDbSpline
 70
8
 71
3
 72
8
 73
4
 74
0
 40
0
 40
0
 40
0
 40
0
 40
1
 40
1
 40
1
 40
1
 10
22.194445
 20
123.822260
 30
0.0
 10
22.194445
 20
126.141788
 30
0.0
 10
24.076294
 20
128.022517
 30
0.0
 10
26.396912
 20
128.022517
 30
0.0
  0
SPLINE
  5
141
100
AcDbEntity
  8
0
 62
7
100
AcDbSpline
 70
8
 71
3
 72
8
 73
4
 74
0
 40
0
 40
0
 40
0
 40
0
 40
1
 40
1
 40
1
 40
1
 10
26.396912
 20
128.022517
 30
0.0
 10
28.717528
 20
128.022517
 30
0.0
 10
30.599374
 20
126.141788
 30
0.0
 10
30.599374
 20
123.822260
 30
0.0
  0
LWPOLYLINE
  5
142
100
AcDbEntity
  8
0
 62
7
100
AcDbPolyline
 90
2
 70
0
 10
14.598699
 20
123.822260
 30
0.0
 10
14.598699
 20
123.822260
 30
0.0
  0
SPLINE
  5
143
100
AcDbEntity
  8
0
 62
7
100
AcDbSpline
 70
8
 71
3
 72
8
 73
4
 74
0
 40
0
 40
0
 40
0
 40
0
 40
1
 40
1
 40
1
 40
1
 10
46.598950
 20
123.822260
 30
0.0
 10
46.598950
 20
121.502760
 30
0.0
 10
44.717101
 20
119.622003
 30
0.0
 10
42.396486
 20
119.622003
 30
0.0
  0
SPLINE
  5
144
100
AcDbEntity
  8
0
 62
7
100
AcDbSpline
 70
8
 71
3
 72
8
 73
4
 74
0
 40
0
 40
0
 40
0
 40
0
 40
1
 40
1
 40
1
 40
1
 10
42.396486
 20
119.622003
 30
0.0
 10
40.075869
 20
119.622003
 30
0.0
 10
38.194020
 20
121.502760
 30
0.0
 10
38.194020
 20
123.822260
 30
0.0
  0
SPLINE
  5
145
100
AcDbEntity
  8
0
 62
7
100
AcDbSpline
 70
8
 71
3
 72
8
 73
4
 74
0
 40
0
 40
0
 40
0
 40
0
 40
1
 40
1
 40
1
 40
1
 10
38.194020
 20
123.822260
 30
0.0
 10
38.194020
 20
126.141788
 30
0.0
 10
40.075869
 20
128.022517
 30
0.0
 10
42.396486
 20
128.022517
 30
0.0
  0
SPLINE
  5
146
100
AcDbEntity
  8
0
 62
7
100
AcDbSpline
 70
8
 71
3
 72
8
 73
4
 74
0
 40
0
 40
0
 40
0
 40
0
 40
1
 40
1
 40
1
 40
1
 10
42.396486
 20
128.022517
 30
0.0
 10
44.717101
 20
128.022517
 30
0.0
 10
46.598950
 20
126.141788
 30
0.0
 10
46.598950
 20
123.822260
 30
0.0
  0
LWPOLYLINE
  5
147
100
AcDbEntity
  8
0
 62
7
100
AcDbPolyline
 90
2
 70
0
 10
30.599374
 20
123.822260
 30
0.0
 10
30.599374
 20
123.822260
 30
0.0
  0
SPLINE
  5
148
100
AcDbEntity
  8
0
 62
7
100
AcDbSpline
 70
8
 71
3
 72
8
 73
4
 74
0
 40
0
 40
0
 40
0
 40
0
 40
1
 40
1
 40
1
 40
1
 10
22.599039
 20
131.822611
 30
0.0
 10
22.599039
 20
129.503083
 30
0.0
 10
20.717189
 20
127.622354
 30
0.0
 10
18.396572
 20
127.622354
 30
0.0
  0
SPLINE
  5
149
100
AcDbEntity
  8
0
 62
7
100
AcDbSpline
 70
8
 71
3
 72
8
 73
4
 74
0
 40
0
 40
0
 40
0
 40
0
 40
1
 40
1
 40
1
 40
1
 10
18.396572
 20
127.622354
 30
0.0
 10
16.075957
 20
127.622354
 30
0.0
 10
14.194108
 20
129.503083
 30
0.0
 10
14.194108
 20
131.822611
 30
0.0
  0
SPLINE
  5
14a
100
AcDbEntity
  8
0
 62
7
100
AcDbSpline
 70
8
 71
3
 72
8
 73
4
 74
0
 40
0
 40
0
 40
0
 40
0
 40
1
 40
1
 40
1
 40
1
 10
14.194108
 20
131.822611
 30
0.0
 10
14.194108
 20
134.142110
 30
0.0
 10
16.075957
 20
136.021767
 30
0.0
 10
18.396572
 20
136.021767
 30
0.0
  0
SPLINE
  5
14b
100
AcDbEntity
  8
0
 62
7
100
AcDbSpline
 70
8
 71
3
 72
8
 73
4
 74
0
 40
0
 40
0
 40
0
 40
0
 40
1
 40
1
 40
1
 40
1
 10
18.396572
 20
136.021767
 30
0.0
 10
20.717189
 20
136.021767
 30
0.0
 10
22.599039
 20
134.142110
 30
0.0
 10
22.599039
 20
131.822611
 30
0.0
  0
LWPOLYLINE
  5
14c
100
AcDbEntity
  8
0
 62
7
100
AcDbPolyline
 90
2
 70
0
 10
46.598950
 20
123.822260
 30
0.0
 10
46.598950
 20
123.822260
 30
0.0
  0
SPLINE
  5
14d
100
AcDbEntity
  8
0
 62
7
100
AcDbSpline
 70
8
 71
3
 72
8
 73
4
 74
0
 40
0
 40
0
 40
0
 40
0
 40
1
 40
1
 40
1
 40
1
 10
38.598610
 20
131.822611
 30
0.0
 10
38.598610
 20
129.503083
 30
0.0
 10
36.717865
 20
127.622354
 30
0.0
 10
34.396147
 20
127.622354
 30
0.0
  0
SPLINE
  5
14e
100
AcDbEntity
  8
0
 62
7
100
AcDbSpline
 70
8
 71
3
 72
8
 73
4
 74
0
 40
0
 40
0
 40
0
 40
0
 40
1
 40
1
 40
1
 40
1
 10
34.396147
 20
127.622354
 30
0.0
 10
32.075529
 20
127.622354
 30
0.0
 10
30.194783
 20
129.503083
 30
0.0
 10
30.194783
 20
131.822611
 30
0.0
  0
SPLINE
  5
14f
100
AcDbEntity
  8
0
 62
7
100
AcDbSpline
 70
8
 71
3
 72
8
 73
4
 74
0
 40
0
 40
0
 40
0
 40
0
 40
1
 40
1
 40
1
 40
1
 10
30.194783
 20
131.822611
 30
0.0
 10
30.194783
 20
134.142110
 30
0.0
 10
32.075529
 20
136.021767
 30
0.0
 10
34.396147
 20
136.021767
 30
0.0
  0
SPLINE
  5
150
100
AcDbEntity
  8
0
 62
7
100
AcDbSpline
 70
8
 71
3
 72
8
 73
4
 74
0
 40
0
 40
0
 40
0
 40
0
 40
1
 40
1
 40
1
 40
1
 10
34.396147
 20
136.021767
 30
0.0
 10
36.717865
 20
136.021767
 30
0.0
 10
38.598610
 20
134.142110
 30
0.0
 10
38.598610
 20
131.822611
 30
0.0
  0
LWPOLYLINE
  5
151
100
AcDbEntity
  8
0
 62
7
100
AcDbPolyline
 90
2
 70
0
 10
22.599039
 20
131.822611
 30
0.0
 10
22.599039
 20
131.822611
 30
0.0
  0
SPLINE
  5
152
100
AcDbEntity
  8
0
 62
7
100
AcDbSpline
 70
8
 71
3
 72
8
 73
4
 74
0
 40
0
 40
0
 40
0
 40
0
 40
1
 40
1
 40
1
 40
1
 10
14.598699
 20
143.822558
 30
0.0
 10
14.598699
 20
141.503059
 30
0.0
 10
12.717953
 20
139.622301
 30
0.0
 10
10.396235
 20
139.622301
 30
0.0
  0
SPLINE
  5
153
100
AcDbEntity
  8
0
 62
7
100
AcDbSpline
 70
8
 71
3
 72
8
 73
4
 74
0
 40
0
 40
0
 40
0
 40
0
 40
1
 40
1
 40
1
 40
1
 10
10.396235
 20
139.622301
 30
0.0
 10
8.075617
 20
139.622301
 30
0.0
 10
6.194871
 20
141.503059
 30
0.0
 10
6.194871
 20
143.822558
 30
0.0
  0
SPLINE
  5
154
100
AcDbEntity
  8
0
 62
7
100
AcDbSpline
 70
8
 71
3
 72
8
 73
4
 74
0
 40
0
 40
0
 40
0
 40
0
 40
1
 40
1
 40
1
 40
1
 10
6.194871
 20
143.822558
 30
0.0
 10
6.194871
 20
146.142086
 30
0.0
 10
8.075617
 20
148.021715
 30
0.0
 10
10.396235
 20
148.021715
 30
0.0
  0
SPLINE
  5
155
100
AcDbEntity
  8
0
 62
7
100
AcDbSpline
 70
8
 71
3
 72
8
 73
4
 74
0
 40
0
 40
0
 40
0
 40
0
 40
1
 40
1
 40
1
 40
1
 10
10.396235
 20
148.021715
 30
0.0
 10
12.717953
 20
148.021715
 30
0.0
 10
14.598699
 20
146.142086
 30
0.0
 10
14.598699
 20
143.822558
 30
0.0
  0
LWPOLYLINE
  5
156
100
AcDbEntity
  8
0
 62
7
100
AcDbPolyline
 90
2
 70
0
 10
38.598610
 20
131.822611
 30
0.0
 10
38.598610
 20
131.822611
 30
0.0
  0
SPLINE
  5
157
100
AcDbEntity
  8
0
 62
7
100
AcDbSpline
 70
8
 71
3
 72
8
 73
4
 74
0
 40
0
 40
0
 40
0
 40
0
 40
1
 40
1
 40
1
 40
1
 10
30.599374
 20
143.822558
 30
0.0
 10
30.599374
 20
141.503059
 30
0.0
 10
28.717528
 20
139.622301
 30
0.0
 10
26.396912
 20
139.622301
 30
0.0
  0
SPLINE
  5
158
100
AcDbEntity
  8
0
 62
7
100
AcDbSpline
 70
8
 71
3
 72
8
 73
4
 74
0
 40
0
 40
0
 40
0
 40
0
 40
1
 40
1
 40
1
 40
1
 10
26.396912
 20
139.622301
 30
0.0
 10
24.076294
 20
139.622301
 30
0.0
 10
22.194445
 20
141.503059
 30
0.0
 10
22.194445
 20
143.822558
 30
0.0
  0
SPLINE
  5
159
100
AcDbEntity
  8
0
 62
7
100
AcDbSpline
 70
8
 71
3
 72
8
 73
4
 74
0
 40
0
 40
0
 40
0
 40
0
 40
1
 40
1
 40
1
 40
1
 10
22.194445
 20
143.822558
 30
0.0
 10
22.194445
 20
146.142086
 30
0.0
 10
24.076294
 20
148.021715
 30
0.0
 10
26.396912
 20
148.021715
 30
0.0
  0
SPLINE
  5
15a
100
AcDbEntity
  8
0
 62
7
100
AcDbSpline
 70
8
 71
3
 72
8
 73
4
 74
0
 40
0
 40
0
 40
0
 40
0
 40
1
 40
1
 40
1
 40
1
 10
26.396912
 20
148.021715
 30
0.0
 10
28.717528
 20
148.021715
 30
0.0
 10
30.599374
 20
146.142086
 30
0.0
 10
30.599374
 20
143.822558
 30
0.0
  0
LWPOLYLINE
  5
15b
100
AcDbEntity
  8
0
 62
7
100
AcDbPolyline
 90
2
 70
0
 10
14.598699
 20
143.822558
 30
0.0
 10
14.598699
 20
143.822558
 30
0.0
  0
SPLINE
  5
15c
100
AcDbEntity
  8
0
 62
7
100
AcDbSpline
 70
8
 71
3
 72
8
 73
4
 74
0
 40
0
 40
0
 40
0
 40
0
 40
1
 40
1
 40
1
 40
1
 10
61.436563
 20
107.822687
 30
0.0
 10
61.436563
 20
106.143690
 30
0.0
 10
60.076165
 20
104.783295
 30
0.0
 10
58.397163
 20
104.783295
 30
0.0
  0
SPLINE
  5
15d
100
AcDbEntity
  8
0
 62
7
100
AcDbSpline
 70
8
 71
3
 72
8
 73
4
 74
0
 40
0
 40
0
 40
0
 40
0
 40
1
 40
1
 40
1
 40
1
 10
58.397163
 20
104.783295
 30
0.0
 10
56.718160
 20
104.783295
 30
0.0
 10
55.356658
 20
106.143690
 30
0.0
 10
55.356658
 20
107.822687
 30
0.0
  0
SPLINE
  5
15e
100
AcDbEntity
  8
0
 62
7
100
AcDbSpline
 70
8
 71
3
 72
8
 73
4
 74
0
 40
0
 40
0
 40
0
 40
0
 40
1
 40
1
 40
1
 40
1
 10
55.356658
 20
107.822687
 30
0.0
 10
55.356658
 20
109.500583
 30
0.0
 10
56.718160
 20
110.860978
 30
0.0
 10
58.397163
 20
110.860978
 30
0.0
  0
SPLINE
  5
15f
100
AcDbEntity
  8
0
 62
7
100
AcDbSpline
 70
8
 71
3
 72
8
 73
4
 74
0
 40
0
 40
0
 40
0
 40
0
 40
1
 40
1
 40
1
 40
1
 10
58.397163
 20
110.860978
 30
0.0
 10
60.076165
 20
110.860978
 30
0.0
 10
61.436563
 20
109.500583
 30
0.0
 10
61.436563
 20
107.822687
 30
0.0
  0
LWPOLYLINE
  5
160
100
AcDbEntity
  8
0
 62
7
100
AcDbPolyline
 90
2
 70
0
 10
30.599374
 20
143.822558
 30
0.0
 10
30.599374
 20
143.822558
 30
0.0
  0
SPLINE
  5
161
100
AcDbEntity
  8
0
 62
7
100
AcDbSpline
 70
8
 71
3
 72
8
 73
4
 74
0
 40
0
 40
0
 40
0
 40
0
 40
1
 40
1
 40
1
 40
1
 10
67.437093
 20
115.821937
 30
0.0
 10
67.437093
 20
114.144041
 30
0.0
 10
66.075591
 20
112.783645
 30
0.0
 10
64.396589
 20
112.783645
 30
0.0
  0
SPLINE
  5
162
100
AcDbEntity
  8
0
 62
7
100
AcDbSpline
 70
8
 71
3
 72
8
 73
4
 74
0
 40
0
 40
0
 40
0
 40
0
 40
1
 40
1
 40
1
 40
1
 10
64.396589
 20
112.783645
 30
0.0
 10
62.717587
 20
112.783645
 30
0.0
 10
61.357188
 20
114.144041
 30
0.0
 10
61.357188
 20
115.821937
 30
0.0
  0
SPLINE
  5
163
100
AcDbEntity
  8
0
 62
7
100
AcDbSpline
 70
8
 71
3
 72
8
 73
4
 74
0
 40
0
 40
0
 40
0
 40
0
 40
1
 40
1
 40
1
 40
1
 10
61.357188
 20
115.821937
 30
0.0
 10
61.357188
 20
117.500933
 30
0.0
 10
62.717587
 20
118.861329
 30
0.0
 10
64.396589
 20
118.861329
 30
0.0
  0
SPLINE
  5
164
100
AcDbEntity
  8
0
 62
7
100
AcDbSpline
 70
8
 71
3
 72
8
 73
4
 74
0
 40
0
 40
0
 40
0
 40
0
 40
1
 40
1
 40
1
 40
1
 10
64.396589
 20
118.861329
 30
0.0
 10
66.075591
 20
118.861329
 30
0.0
 10
67.437093
 20
117.500933
 30
0.0
 10
67.437093
 20
115.821937
 30
0.0
  0
LWPOLYLINE
  5
165
100
AcDbEntity
  8
0
 62
7
100
AcDbPolyline
 90
2
 70
0
 10
61.436563
 20
107.822687
 30
0.0
 10
61.436563
 20
107.822687
 30
0.0
  0
SPLINE
  5
166
100
AcDbEntity
  8
0
 62
7
100
AcDbSpline
 70
8
 71
3
 72
8
 73
4
 74
0
 40
0
 40
0
 40
0
 40
0
 40
1
 40
1
 40
1
 40
1
 10
73.436520
 20
123.822260
 30
0.0
 10
73.436520
 20
122.144364
 30
0.0
 10
72.076121
 20
120.782867
 30
0.0
 10
70.397119
 20
120.782867
 30
0.0
  0
SPLINE
  5
167
100
AcDbEntity
  8
0
 62
7
100
AcDbSpline
 70
8
 71
3
 72
8
 73
4
 74
0
 40
0
 40
0
 40
0
 40
0
 40
1
 40
1
 40
1
 40
1
 10
70.397119
 20
120.782867
 30
0.0
 10
68.718117
 20
120.782867
 30
0.0
 10
67.356615
 20
122.144364
 30
0.0
 10
67.356615
 20
123.822260
 30
0.0
  0
SPLINE
  5
168
100
AcDbEntity
  8
0
 62
7
100
AcDbSpline
 70
8
 71
3
 72
8
 73
4
 74
0
 40
0
 40
0
 40
0
 40
0
 40
1
 40
1
 40
1
 40
1
 10
67.356615
 20
123.822260
 30
0.0
 10
67.356615
 20
125.500155
 30
0.0
 10
68.718117
 20
126.861680
 30
0.0
 10
70.397119
 20
126.861680
 30
0.0
  0
SPLINE
  5
169
100
AcDbEntity
  8
0
 62
7
100
AcDbSpline
 70
8
 71
3
 72
8
 73
4
 74
0
 40
0
 40
0
 40
0
 40
0
 40
1
 40
1
 40
1
 40
1
 10
70.397119
 20
126.861680
 30
0.0
 10
72.076121
 20
126.861680
 30
0.0
 10
73.436520
 20
125.500155
 30
0.0
 10
73.436520
 20
123.822260
 30
0.0
  0
LWPOLYLINE
  5
16a
100
AcDbEntity
  8
0
 62
7
100
AcDbPolyline
 90
2
 70
0
 10
67.437093
 20
115.821937
 30
0.0
 10
67.437093
 20
115.821937
 30
0.0
  0
SPLINE
  5
16b
100
AcDbEntity
  8
0
 62
7
100
AcDbSpline
 70
8
 71
3
 72
8
 73
4
 74
0
 40
0
 40
0
 40
0
 40
0
 40
1
 40
1
 40
1
 40
1
 10
61.436563
 20
123.822260
 30
0.0
 10
61.436563
 20
122.144364
 30
0.0
 10
60.076165
 20
120.782867
 30
0.0
 10
58.397163
 20
120.782867
 30
0.0
  0
SPLINE
  5
16c
100
AcDbEntity
  8
0
 62
7
100
AcDbSpline
 70
8
 71
3
 72
8
 73
4
 74
0
 40
0
 40
0
 40
0
 40
0
 40
1
 40
1
 40
1
 40
1
 10
58.397163
 20
120.782867
 30
0.0
 10
56.718160
 20
120.782867
 30
0.0
 10
55.356658
 20
122.144364
 30
0.0
 10
55.356658
 20
123.822260
 30
0.0
  0
SPLINE
  5
16d
100
AcDbEntity
  8
0
 62
7
100
AcDbSpline
 70
8
 71
3
 72
8
 73
4
 74
0
 40
0
 40
0
 40
0
 40
0
 40
1
 40
1
 40
1
 40
1
 10
55.356658
 20
123.822260
 30
0.0
 10
55.356658
 20
125.500155
 30
0.0
 10
56.718160
 20
126.861680
 30
0.0
 10
58.397163
 20
126.861680
 30
0.0
  0
SPLINE
  5
16e
100
AcDbEntity
  8
0
 62
7
100
AcDbSpline
 70
8
 71
3
 72
8
 73
4
 74
0
 40
0
 40
0
 40
0
 40
0
 40
1
 40
1
 40
1
 40
1
 10
58.397163
 20
126.861680
 30
0.0
 10
60.076165
 20
126.861680
 30
0.0
 10
61.436563
 20
125.500155
 30
0.0
 10
61.436563
 20
123.822260
 30
0.0
  0
LWPOLYLINE
  5
16f
100
AcDbEntity
  8
0
 62
7
100
AcDbPolyline
 90
2
 70
0
 10
73.436520
 20
123.822260
 30
0.0
 10
73.436520
 20
123.822260
 30
0.0
  0
SPLINE
  5
170
100
AcDbEntity
  8
0
 62
7
100
AcDbSpline
 70
8
 71
3
 72
8
 73
4
 74
0
 40
0
 40
0
 40
0
 40
0
 40
1
 40
1
 40
1
 40
1
 10
67.437093
 20
131.822611
 30
0.0
 10
67.437093
 20
130.143614
 30
0.0
 10
66.075591
 20
128.783218
 30
0.0
 10
64.396589
 20
128.783218
 30
0.0
  0
SPLINE
  5
171
100
AcDbEntity
  8
0
 62
7
100
AcDbSpline
 70
8
 71
3
 72
8
 73
4
 74
0
 40
0
 40
0
 40
0
 40
0
 40
1
 40
1
 40
1
 40
1
 10
64.396589
 20
128.783218
 30
0.0
 10
62.717587
 20
128.783218
 30
0.0
 10
61.357188
 20
130.143614
 30
0.0
 10
61.357188
 20
131.822611
 30
0.0
  0
SPLINE
  5
172
100
AcDbEntity
  8
0
 62
7
100
AcDbSpline
 70
8
 71
3
 72
8
 73
4
 74
0
 40
0
 40
0
 40
0
 40
0
 40
1
 40
1
 40
1
 40
1
 10
61.357188
 20
131.822611
 30
0.0
 10
61.357188
 20
133.500506
 30
0.0
 10
62.717587
 20
134.860902
 30
0.0
 10
64.396589
 20
134.860902
 30
0.0
  0
SPLINE
  5
173
100
AcDbEntity
  8
0
 62
7
100
AcDbSpline
 70
8
 71
3
 72
8
 73
4
 74
0
 40
0
 40
0
 40
0
 40
0
 40
1
 40
1
 40
1
 40
1
 10
64.396589
 20
134.860902
 30
0.0
 10
66.075591
 20
134.860902
 30
0.0
 10
67.437093
 20
133.500506
 30
0.0
 10
67.437093
 20
131.822611
 30
0.0
  0
LWPOLYLINE
  5
174
100
AcDbEntity
  8
0
 62
7
100
AcDbPolyline
 90
2
 70
0
 10
61.436563
 20
123.822260
 30
0.0
 10
61.436563
 20
123.822260
 30
0.0
  0
SPLINE
  5
175
100
AcDbEntity
  8
0
 62
7
100
AcDbSpline
 70
8
 71
3
 72
8
 73
4
 74
0
 40
0
 40
0
 40
0
 40
0
 40
1
 40
1
 40
1
 40
1
 10
73.888515
 20
143.822558
 30
0.0
 10
73.888515
 20
142.143562
 30
0.0
 10
72.527013
 20
140.783166
 30
0.0
 10
70.848014
 20
140.783166
 30
0.0
  0
SPLINE
  5
176
100
AcDbEntity
  8
0
 62
7
100
AcDbSpline
 70
8
 71
3
 72
8
 73
4
 74
0
 40
0
 40
0
 40
0
 40
0
 40
1
 40
1
 40
1
 40
1
 10
70.848014
 20
140.783166
 30
0.0
 10
69.169012
 20
140.783166
 30
0.0
 10
67.808610
 20
142.143562
 30
0.0
 10
67.808610
 20
143.822558
 30
0.0
  0
SPLINE
  5
177
100
AcDbEntity
  8
0
 62
7
100
AcDbSpline
 70
8
 71
3
 72
8
 73
4
 74
0
 40
0
 40
0
 40
0
 40
0
 40
1
 40
1
 40
1
 40
1
 10
67.808610
 20
143.822558
 30
0.0
 10
67.808610
 20
145.500454
 30
0.0
 10
69.169012
 20
146.860850
 30
0.0
 10
70.848014
 20
146.860850
 30
0.0
  0
SPLINE
  5
178
100
AcDbEntity
  8
0
 62
7
100
AcDbSpline
 70
8
 71
3
 72
8
 73
4
 74
0
 40
0
 40
0
 40
0
 40
0
 40
1
 40
1
 40
1
 40
1
 10
70.848014
 20
146.860850
 30
0.0
 10
72.527013
 20
146.860850
 30
0.0
 10
73.888515
 20
145.500454
 30
0.0
 10
73.888515
 20
143.822558
 30
0.0
  0
LWPOLYLINE
  5
179
100
AcDbEntity
  8
0
 62
7
100
AcDbPolyline
 90
2
 70
0
 10
67.437093
 20
131.822611
 30
0.0
 10
67.437093
 20
131.822611
 30
0.0
  0
SPLINE
  5
17a
100
AcDbEntity
  8
0
 62
7
100
AcDbSpline
 70
8
 71
3
 72
8
 73
4
 74
0
 40
0
 40
0
 40
0
 40
0
 40
1
 40
1
 40
1
 40
1
 10
61.888559
 20
143.822558
 30
0.0
 10
61.888559
 20
142.143562
 30
0.0
 10
60.527057
 20
140.783166
 30
0.0
 10
58.848055
 20
140.783166
 30
0.0
  0
SPLINE
  5
17b
100
AcDbEntity
  8
0
 62
7
100
AcDbSpline
 70
8
 71
3
 72
8
 73
4
 74
0
 40
0
 40
0
 40
0
 40
0
 40
1
 40
1
 40
1
 40
1
 10
58.848055
 20
140.783166
 30
0.0
 10
57.169056
 20
140.783166
 30
0.0
 10
55.808654
 20
142.143562
 30
0.0
 10
55.808654
 20
143.822558
 30
0.0
  0
SPLINE
  5
17c
100
AcDbEntity
  8
0
 62
7
100
AcDbSpline
 70
8
 71
3
 72
8
 73
4
 74
0
 40
0
 40
0
 40
0
 40
0
 40
1
 40
1
 40
1
 40
1
 10
55.808654
 20
143.822558
 30
0.0
 10
55.808654
 20
145.500454
 30
0.0
 10
57.169056
 20
146.860850
 30
0.0
 10
58.848055
 20
146.860850
 30
0.0
  0
SPLINE
  5
17d
100
AcDbEntity
  8
0
 62
7
100
AcDbSpline
 70
8
 71
3
 72
8
 73
4
 74
0
 40
0
 40
0
 40
0
 40
0
 40
1
 40
1
 40
1
 40
1
 10
58.848055
 20
146.860850
 30
0.0
 10
60.527057
 20
146.860850
 30
0.0
 10
61.888559
 20
145.500454
 30
0.0
 10
61.888559
 20
143.822558
 30
0.0
  0
LWPOLYLINE
  5
17e
100
AcDbEntity
  8
0
 62
7
100
AcDbPolyline
 90
2
 70
0
 10
73.888515
 20
143.822558
 30
0.0
 10
73.888515
 20
143.822558
 30
0.0
  0
SPLINE
  5
17f
100
AcDbEntity
  8
0
 62
7
100
AcDbSpline
 70
8
 71
3
 72
8
 73
4
 74
0
 40
0
 40
0
 40
0
 40
0
 40
1
 40
1
 40
1
 40
1
 10
55.437137
 20
115.821937
 30
0.0
 10
55.437137
 20
114.144041
 30
0.0
 10
54.075635
 20
112.783645
 30
0.0
 10
52.396633
 20
112.783645
 30
0.0
  0
SPLINE
  5
180
100
AcDbEntity
  8
0
 62
7
100
AcDbSpline
 70
8
 71
3
 72
8
 73
4
 74
0
 40
0
 40
0
 40
0
 40
0
 40
1
 40
1
 40
1
 40
1
 10
52.396633
 20
112.783645
 30
0.0
 10
50.717631
 20
112.783645
 30
0.0
 10
49.357232
 20
114.144041
 30
0.0
 10
49.357232
 20
115.821937
 30
0.0
  0
SPLINE
  5
181
100
AcDbEntity
  8
0
 62
7
100
AcDbSpline
 70
8
 71
3
 72
8
 73
4
 74
0
 40
0
 40
0
 40
0
 40
0
 40
1
 40
1
 40
1
 40
1
 10
49.357232
 20
115.821937
 30
0.0
 10
49.357232
 20
117.500933
 30
0.0
 10
50.717631
 20
118.861329
 30
0.0
 10
52.396633
 20
118.861329
 30
0.0
  0
SPLINE
  5
182
100
AcDbEntity
  8
0
 62
7
100
AcDbSpline
 70
8
 71
3
 72
8
 73
4
 74
0
 40
0
 40
0
 40
0
 40
0
 40
1
 40
1
 40
1
 40
1
 10
52.396633
 20
118.861329
 30
0.0
 10
54.075635
 20
118.861329
 30
0.0
 10
55.437137
 20
117.500933
 30
0.0
 10
55.437137
 20
115.821937
 30
0.0
  0
LWPOLYLINE
  5
183
100
AcDbEntity
  8
0
 62
7
100
AcDbPolyline
 90
2
 70
0
 10
61.888559
 20
143.822558
 30
0.0
 10
61.888559
 20
143.822558
 30
0.0
  0
SPLINE
  5
184
100
AcDbEntity
  8
0
 62
7
100
AcDbSpline
 70
8
 71
3
 72
8
 73
4
 74
0
 40
0
 40
0
 40
0
 40
0
 40
1
 40
1
 40
1
 40
1
 10
55.437137
 20
131.822611
 30
0.0
 10
55.437137
 20
130.143614
 30
0.0
 10
54.075635
 20
128.783218
 30
0.0
 10
52.396633
 20
128.783218
 30
0.0
  0
SPLINE
  5
185
100
AcDbEntity
  8
0
 62
7
100
AcDbSpline
 70
8
 71
3
 72
8
 73
4
 74
0
 40
0
 40
0
 40
0
 40
0
 40
1
 40
1
 40
1
 40
1
 10
52.396633
 20
128.783218
 30
0.0
 10
50.717631
 20
128.783218
 30
0.0
 10
49.357232
 20
130.143614
 30
0.0
 10
49.357232
 20
131.822611
 30
0.0
  0
SPLINE
  5
186
100
AcDbEntity
  8
0
 62
7
100
AcDbSpline
 70
8
 71
3
 72
8
 73
4
 74
0
 40
0
 40
0
 40
0
 40
0
 40
1
 40
1
 40
1
 40
1
 10
49.357232
 20
131.822611
 30
0.0
 10
49.357232
 20
133.500506
 30
0.0
 10
50.717631
 20
134.860902
 30
0.0
 10
52.396633
 20
134.860902
 30
0.0
  0
SPLINE
  5
187
100
AcDbEntity
  8
0
 62
7
100
AcDbSpline
 70
8
 71
3
 72
8
 73
4
 74
0
 40
0
 40
0
 40
0
 40
0
 40
1
 40
1
 40
1
 40
1
 10
52.396633
 20
134.860902
 30
0.0
 10
54.075635
 20
134.860902
 30
0.0
 10
55.437137
 20
133.500506
 30
0.0
 10
55.437137
 20
131.822611
 30
0.0
  0
LWPOLYLINE
  5
188
100
AcDbEntity
  8
0
 62
7
100
AcDbPolyline
 90
2
 70
0
 10
55.437137
 20
115.821937
 30
0.0
 10
55.437137
 20
115.821937
 30
0.0
  0
SPLINE
  5
189
100
AcDbEntity
  8
0
 62
7
100
AcDbSpline
 70
8
 71
3
 72
8
 73
4
 74
0
 40
0
 40
0
 40
0
 40
0
 40
1
 40
1
 40
1
 40
1
 10
49.888603
 20
143.822558
 30
0.0
 10
49.888603
 20
142.143562
 30
0.0
 10
48.527101
 20
140.783166
 30
0.0
 10
46.848099
 20
140.783166
 30
0.0
  0
SPLINE
  5
18a
100
AcDbEntity
  8
0
 62
7
100
AcDbSpline
 70
8
 71
3
 72
8
 73
4
 74
0
 40
0
 40
0
 40
0
 40
0
 40
1
 40
1
 40
1
 40
1
 10
46.848099
 20
140.783166
 30
0.0
 10
45.169097
 20
140.783166
 30
0.0
 10
43.808698
 20
142.143562
 30
0.0
 10
43.808698
 20
143.822558
 30
0.0
  0
SPLINE
  5
18b
100
AcDbEntity
  8
0
 62
7
100
AcDbSpline
 70
8
 71
3
 72
8
 73
4
 74
0
 40
0
 40
0
 40
0
 40
0
 40
1
 40
1
 40
1
 40
1
 10
43.808698
 20
143.822558
 30
0.0
 10
43.808698
 20
145.500454
 30
0.0
 10
45.169097
 20
146.860850
 30
0.0
 10
46.848099
 20
146.860850
 30
0.0
  0
SPLINE
  5
18c
100
AcDbEntity
  8
0
 62
7
100
AcDbSpline
 70
8
 71
3
 72
8
 73
4
 74
0
 40
0
 40
0
 40
0
 40
0
 40
1
 40
1
 40
1
 40
1
 10
46.848099
 20
146.860850
 30
0.0
 10
48.527101
 20
146.860850
 30
0.0
 10
49.888603
 20
145.500454
 30
0.0
 10
49.888603
 20
143.822558
 30
0.0
  0
LWPOLYLINE
  5
18d
100
AcDbEntity
  8
0
 62
7
100
AcDbPolyline
 90
2
 70
0
 10
55.437137
 20
131.822611
 30
0.0
 10
55.437137
 20
131.822611
 30
0.0
  0
SPLINE
  5
18e
100
AcDbEntity
  8
0
 62
7
100
AcDbSpline
 70
8
 71
3
 72
8
 73
4
 74
0
 40
0
 40
0
 40
0
 40
0
 40
1
 40
1
 40
1
 40
1
 10
54.594879
 20
73.330446
 30
0.0
 10
54.594879
 20
72.115564
 30
0.0
 10
53.610408
 20
71.130016
 30
0.0
 10
52.396633
 20
71.130016
 30
0.0
  0
SPLINE
  5
18f
100
AcDbEntity
  8
0
 62
7
100
AcDbSpline
 70
8
 71
3
 72
8
 73
4
 74
0
 40
0
 40
0
 40
0
 40
0
 40
1
 40
1
 40
1
 40
1
 10
52.396633
 20
71.130016
 30
0.0
 10
51.181754
 20
71.130016
 30
0.0
 10
50.197283
 20
72.115564
 30
0.0
 10
50.197283
 20
73.330446
 30
0.0
  0
SPLINE
  5
190
100
AcDbEntity
  8
0
 62
7
100
AcDbSpline
 70
8
 71
3
 72
8
 73
4
 74
0
 40
0
 40
0
 40
0
 40
0
 40
1
 40
1
 40
1
 40
1
 10
50.197283
 20
73.330446
 30
0.0
 10
50.197283
 20
74.545328
 30
0.0
 10
51.181754
 20
75.530905
 30
0.0
 10
52.396633
 20
75.530905
 30
0.0
  0
SPLINE
  5
191
100
AcDbEntity
  8
0
 62
7
100
AcDbSpline
 70
8
 71
3
 72
8
 73
4
 74
0
 40
0
 40
0
 40
0
 40
0
 40
1
 40
1
 40
1
 40
1
 10
52.396633
 20
75.530905
 30
0.0
 10
53.610408
 20
75.530905
 30
0.0
 10
54.594879
 20
74.545328
 30
0.0
 10
54.594879
 20
73.330446
 30
0.0
  0
LWPOLYLINE
  5
192
100
AcDbEntity
  8
0
 62
7
100
AcDbPolyline
 90
2
 70
0
 10
49.888603
 20
143.822558
 30
0.0
 10
49.888603
 20
143.822558
 30
0.0
  0
SPLINE
  5
193
100
AcDbEntity
  8
0
 62
7
100
AcDbSpline
 70
8
 71
3
 72
8
 73
4
 74
0
 40
0
 40
0
 40
0
 40
0
 40
1
 40
1
 40
1
 40
1
 10
66.594835
 20
73.330446
 30
0.0
 10
66.594835
 20
72.115564
 30
0.0
 10
65.610365
 20
71.130016
 30
0.0
 10
64.396589
 20
71.130016
 30
0.0
  0
SPLINE
  5
194
100
AcDbEntity
  8
0
 62
7
100
AcDbSpline
 70
8
 71
3
 72
8
 73
4
 74
0
 40
0
 40
0
 40
0
 40
0
 40
1
 40
1
 40
1
 40
1
 10
64.396589
 20
71.130016
 30
0.0
 10
63.181710
 20
71.130016
 30
0.0
 10
62.197240
 20
72.115564
 30
0.0
 10
62.197240
 20
73.330446
 30
0.0
  0
SPLINE
  5
195
100
AcDbEntity
  8
0
 62
7
100
AcDbSpline
 70
8
 71
3
 72
8
 73
4
 74
0
 40
0
 40
0
 40
0
 40
0
 40
1
 40
1
 40
1
 40
1
 10
62.197240
 20
73.330446
 30
0.0
 10
62.197240
 20
74.545328
 30
0.0
 10
63.181710
 20
75.530905
 30
0.0
 10
64.396589
 20
75.530905
 30
0.0
  0
SPLINE
  5
196
100
AcDbEntity
  8
0
 62
7
100
AcDbSpline
 70
8
 71
3
 72
8
 73
4
 74
0
 40
0
 40
0
 40
0
 40
0
 40
1
 40
1
 40
1
 40
1
 10
64.396589
 20
75.530905
 30
0.0
 10
65.610365
 20
75.530905
 30
0.0
 10
66.594835
 20
74.545328
 30
0.0
 10
66.594835
 20
73.330446
 30
0.0
  0
LWPOLYLINE
  5
197
100
AcDbEntity
  8
0
 62
7
100
AcDbPolyline
 90
2
 70
0
 10
54.594879
 20
73.330446
 30
0.0
 10
54.594879
 20
73.330446
 30
0.0
  0
SPLINE
  5
198
100
AcDbEntity
  8
0
 62
7
100
AcDbSpline
 70
8
 71
3
 72
8
 73
4
 74
0
 40
0
 40
0
 40
0
 40
0
 40
1
 40
1
 40
1
 40
1
 10
72.594264
 20
65.330124
 30
0.0
 10
72.594264
 20
64.115242
 30
0.0
 10
71.609794
 20
63.129665
 30
0.0
 10
70.396015
 20
63.129665
 30
0.0
  0
SPLINE
  5
199
100
AcDbEntity
  8
0
 62
7
100
AcDbSpline
 70
8
 71
3
 72
8
 73
4
 74
0
 40
0
 40
0
 40
0
 40
0
 40
1
 40
1
 40
1
 40
1
 10
70.396015
 20
63.129665
 30
0.0
 10
69.182240
 20
63.129665
 30
0.0
 10
68.197770
 20
64.115242
 30
0.0
 10
68.197770
 20
65.330124
 30
0.0
  0
SPLINE
  5
19a
100
AcDbEntity
  8
0
 62
7
100
AcDbSpline
 70
8
 71
3
 72
8
 73
4
 74
0
 40
0
 40
0
 40
0
 40
0
 40
1
 40
1
 40
1
 40
1
 10
68.197770
 20
65.330124
 30
0.0
 10
68.197770
 20
66.546106
 30
0.0
 10
69.182240
 20
67.530554
 30
0.0
 10
70.396015
 20
67.530554
 30
0.0
  0
SPLINE
  5
19b
100
AcDbEntity
  8
0
 62
7
100
AcDbSpline
 70
8
 71
3
 72
8
 73
4
 74
0
 40
0
 40
0
 40
0
 40
0
 40
1
 40
1
 40
1
 40
1
 10
70.396015
 20
67.530554
 30
0.0
 10
71.609794
 20
67.530554
 30
0.0
 10
72.594264
 20
66.546106
 30
0.0
 10
72.594264
 20
65.330124
 30
0.0
  0
LWPOLYLINE
  5
19c
100
AcDbEntity
  8
0
 62
7
100
AcDbPolyline
 90
2
 70
0
 10
66.594835
 20
73.330446
 30
0.0
 10
66.594835
 20
73.330446
 30
0.0
  0
SPLINE
  5
19d
100
AcDbEntity
  8
0
 62
7
100
AcDbSpline
 70
8
 71
3
 72
8
 73
4
 74
0
 40
0
 40
0
 40
0
 40
0
 40
1
 40
1
 40
1
 40
1
 10
60.594305
 20
65.330124
 30
0.0
 10
60.594305
 20
64.115242
 30
0.0
 10
59.609838
 20
63.129665
 30
0.0
 10
58.396059
 20
63.129665
 30
0.0
  0
SPLINE
  5
19e
100
AcDbEntity
  8
0
 62
7
100
AcDbSpline
 70
8
 71
3
 72
8
 73
4
 74
0
 40
0
 40
0
 40
0
 40
0
 40
1
 40
1
 40
1
 40
1
 10
58.396059
 20
63.129665
 30
0.0
 10
57.182283
 20
63.129665
 30
0.0
 10
56.197813
 20
64.115242
 30
0.0
 10
56.197813
 20
65.330124
 30
0.0
  0
SPLINE
  5
19f
100
AcDbEntity
  8
0
 62
7
100
AcDbSpline
 70
8
 71
3
 72
8
 73
4
 74
0
 40
0
 40
0
 40
0
 40
0
 40
1
 40
1
 40
1
 40
1
 10
56.197813
 20
65.330124
 30
0.0
 10
56.197813
 20
66.546106
 30
0.0
 10
57.182283
 20
67.530554
 30
0.0
 10
58.396059
 20
67.530554
 30
0.0
  0
SPLINE
  5
1a0
100
AcDbEntity
  8
0
 62
7
100
AcDbSpline
 70
8
 71
3
 72
8
 73
4
 74
0
 40
0
 40
0
 40
0
 40
0
 40
1
 40
1
 40
1
 40
1
 10
58.396059
 20
67.530554
 30
0.0
 10
59.609838
 20
67.530554
 30
0.0
 10
60.594305
 20
66.546106
 30
0.0
 10
60.594305
 20
65.330124
 30
0.0
  0
LWPOLYLINE
  5
1a1
100
AcDbEntity
  8
0
 62
7
100
AcDbPolyline
 90
2
 70
0
 10
72.594264
 20
65.330124
 30
0.0
 10
72.594264
 20
65.330124
 30
0.0
  0
SPLINE
  5
1a2
100
AcDbEntity
  8
0
 62
7
100
AcDbSpline
 70
8
 71
3
 72
8
 73
4
 74
0
 40
0
 40
0
 40
0
 40
0
 40
1
 40
1
 40
1
 40
1
 10
66.594835
 20
57.330873
 30
0.0
 10
66.594835
 20
56.114891
 30
0.0
 10
65.610365
 20
55.130415
 30
0.0
 10
64.396589
 20
55.130415
 30
0.0
  0
SPLINE
  5
1a3
100
AcDbEntity
  8
0
 62
7
100
AcDbSpline
 70
8
 71
3
 72
8
 73
4
 74
0
 40
0
 40
0
 40
0
 40
0
 40
1
 40
1
 40
1
 40
1
 10
64.396589
 20
55.130415
 30
0.0
 10
63.181710
 20
55.130415
 30
0.0
 10
62.197240
 20
56.114891
 30
0.0
 10
62.197240
 20
57.330873
 30
0.0
  0
SPLINE
  5
1a4
100
AcDbEntity
  8
0
 62
7
100
AcDbSpline
 70
8
 71
3
 72
8
 73
4
 74
0
 40
0
 40
0
 40
0
 40
0
 40
1
 40
1
 40
1
 40
1
 10
62.197240
 20
57.330873
 30
0.0
 10
62.197240
 20
58.545755
 30
0.0
 10
63.181710
 20
59.531332
 30
0.0
 10
64.396589
 20
59.531332
 30
0.0
  0
SPLINE
  5
1a5
100
AcDbEntity
  8
0
 62
7
100
AcDbSpline
 70
8
 71
3
 72
8
 73
4
 74
0
 40
0
 40
0
 40
0
 40
0
 40
1
 40
1
 40
1
 40
1
 10
64.396589
 20
59.531332
 30
0.0
 10
65.610365
 20
59.531332
 30
0.0
 10
66.594835
 20
58.545755
 30
0.0
 10
66.594835
 20
57.330873
 30
0.0
  0
LWPOLYLINE
  5
1a6
100
AcDbEntity
  8
0
 62
7
100
AcDbPolyline
 90
2
 70
0
 10
60.594305
 20
65.330124
 30
0.0
 10
60.594305
 20
65.330124
 30
0.0
  0
SPLINE
  5
1a7
100
AcDbEntity
  8
0
 62
7
100
AcDbSpline
 70
8
 71
3
 72
8
 73
4
 74
0
 40
0
 40
0
 40
0
 40
0
 40
1
 40
1
 40
1
 40
1
 10
72.594264
 20
49.330551
 30
0.0
 10
72.594264
 20
48.115669
 30
0.0
 10
71.609794
 20
47.130092
 30
0.0
 10
70.396015
 20
47.130092
 30
0.0
  0
SPLINE
  5
1a8
100
AcDbEntity
  8
0
 62
7
100
AcDbSpline
 70
8
 71
3
 72
8
 73
4
 74
0
 40
0
 40
0
 40
0
 40
0
 40
1
 40
1
 40
1
 40
1
 10
70.396015
 20
47.130092
 30
0.0
 10
69.182240
 20
47.130092
 30
0.0
 10
68.197770
 20
48.115669
 30
0.0
 10
68.197770
 20
49.330551
 30
0.0
  0
SPLINE
  5
1a9
100
AcDbEntity
  8
0
 62
7
100
AcDbSpline
 70
8
 71
3
 72
8
 73
4
 74
0
 40
0
 40
0
 40
0
 40
0
 40
1
 40
1
 40
1
 40
1
 10
68.197770
 20
49.330551
 30
0.0
 10
68.197770
 20
50.545433
 30
0.0
 10
69.182240
 20
51.530981
 30
0.0
 10
70.396015
 20
51.530981
 30
0.0
  0
SPLINE
  5
1aa
100
AcDbEntity
  8
0
 62
7
100
AcDbSpline
 70
8
 71
3
 72
8
 73
4
 74
0
 40
0
 40
0
 40
0
 40
0
 40
1
 40
1
 40
1
 40
1
 10
70.396015
 20
51.530981
 30
0.0
 10
71.609794
 20
51.530981
 30
0.0
 10
72.594264
 20
50.545433
 30
0.0
 10
72.594264
 20
49.330551
 30
0.0
  0
LWPOLYLINE
  5
1ab
100
AcDbEntity
  8
0
 62
7
100
AcDbPolyline
 90
2
 70
0
 10
66.594835
 20
57.330873
 30
0.0
 10
66.594835
 20
57.330873
 30
0.0
  0
SPLINE
  5
1ac
100
AcDbEntity
  8
0
 62
7
100
AcDbSpline
 70
8
 71
3
 72
8
 73
4
 74
0
 40
0
 40
0
 40
0
 40
0
 40
1
 40
1
 40
1
 40
1
 10
60.594305
 20
49.330551
 30
0.0
 10
60.594305
 20
48.115669
 30
0.0
 10
59.609838
 20
47.130092
 30
0.0
 10
58.396059
 20
47.130092
 30
0.0
  0
SPLINE
  5
1ad
100
AcDbEntity
  8
0
 62
7
100
AcDbSpline
 70
8
 71
3
 72
8
 73
4
 74
0
 40
0
 40
0
 40
0
 40
0
 40
1
 40
1
 40
1
 40
1
 10
58.396059
 20
47.130092
 30
0.0
 10
57.182283
 20
47.130092
 30
0.0
 10
56.197813
 20
48.115669
 30
0.0
 10
56.197813
 20
49.330551
 30
0.0
  0
SPLINE
  5
1ae
100
AcDbEntity
  8
0
 62
7
100
AcDbSpline
 70
8
 71
3
 72
8
 73
4
 74
0
 40
0
 40
0
 40
0
 40
0
 40
1
 40
1
 40
1
 40
1
 10
56.197813
 20
49.330551
 30
0.0
 10
56.197813
 20
50.545433
 30
0.0
 10
57.182283
 20
51.530981
 30
0.0
 10
58.396059
 20
51.530981
 30
0.0
  0
SPLINE
  5
1af
100
AcDbEntity
  8
0
 62
7
100
AcDbSpline
 70
8
 71
3
 72
8
 73
4
 74
0
 40
0
 40
0
 40
0
 40
0
 40
1
 40
1
 40
1
 40
1
 10
58.396059
 20
51.530981
 30
0.0
 10
59.609838
 20
51.530981
 30
0.0
 10
60.594305
 20
50.545433
 30
0.0
 10
60.594305
 20
49.330551
 30
0.0
  0
LWPOLYLINE
  5
1b0
100
AcDbEntity
  8
0
 62
7
100
AcDbPolyline
 90
2
 70
0
 10
72.594264
 20
49.330551
 30
0.0
 10
72.594264
 20
49.330551
 30
0.0
  0
SPLINE
  5
1b1
100
AcDbEntity
  8
0
 62
7
100
AcDbSpline
 70
8
 71
3
 72
8
 73
4
 74
0
 40
0
 40
0
 40
0
 40
0
 40
1
 40
1
 40
1
 40
1
 10
54.594879
 20
57.330873
 30
0.0
 10
54.594879
 20
56.114891
 30
0.0
 10
53.610408
 20
55.130415
 30
0.0
 10
52.396633
 20
55.130415
 30
0.0
  0
SPLINE
  5
1b2
100
AcDbEntity
  8
0
 62
7
100
AcDbSpline
 70
8
 71
3
 72
8
 73
4
 74
0
 40
0
 40
0
 40
0
 40
0
 40
1
 40
1
 40
1
 40
1
 10
52.396633
 20
55.130415
 30
0.0
 10
51.181754
 20
55.130415
 30
0.0
 10
50.197283
 20
56.114891
 30
0.0
 10
50.197283
 20
57.330873
 30
0.0
  0
SPLINE
  5
1b3
100
AcDbEntity
  8
0
 62
7
100
AcDbSpline
 70
8
 71
3
 72
8
 73
4
 74
0
 40
0
 40
0
 40
0
 40
0
 40
1
 40
1
 40
1
 40
1
 10
50.197283
 20
57.330873
 30
0.0
 10
50.197283
 20
58.545755
 30
0.0
 10
51.181754
 20
59.531332
 30
0.0
 10
52.396633
 20
59.531332
 30
0.0
  0
SPLINE
  5
1b4
100
AcDbEntity
  8
0
 62
7
100
AcDbSpline
 70
8
 71
3
 72
8
 73
4
 74
0
 40
0
 40
0
 40
0
 40
0
 40
1
 40
1
 40
1
 40
1
 10
52.396633
 20
59.531332
 30
0.0
 10
53.610408
 20
59.531332
 30
0.0
 10
54.594879
 20
58.545755
 30
0.0
 10
54.594879
 20
57.330873
 30
0.0
  0
LWPOLYLINE
  5
1b5
100
AcDbEntity
  8
0
 62
7
100
AcDbPolyline
 90
2
 70
0
 10
60.594305
 20
49.330551
 30
0.0
 10
60.594305
 20
49.330551
 30
0.0
  0
SPLINE
  5
1b6
100
AcDbEntity
  8
0
 62
7
100
AcDbSpline
 70
8
 71
3
 72
8
 73
4
 74
0
 40
0
 40
0
 40
0
 40
0
 40
1
 40
1
 40
1
 40
1
 10
49.046344
 20
85.330422
 30
0.0
 10
49.046344
 20
84.115540
 30
0.0
 10
48.061877
 20
83.129964
 30
0.0
 10
46.848099
 20
83.129964
 30
0.0
  0
SPLINE
  5
1b7
100
AcDbEntity
  8
0
 62
7
100
AcDbSpline
 70
8
 71
3
 72
8
 73
4
 74
0
 40
0
 40
0
 40
0
 40
0
 40
1
 40
1
 40
1
 40
1
 10
46.848099
 20
83.129964
 30
0.0
 10
45.633222
 20
83.129964
 30
0.0
 10
44.648749
 20
84.115540
 30
0.0
 10
44.648749
 20
85.330422
 30
0.0
  0
SPLINE
  5
1b8
100
AcDbEntity
  8
0
 62
7
100
AcDbSpline
 70
8
 71
3
 72
8
 73
4
 74
0
 40
0
 40
0
 40
0
 40
0
 40
1
 40
1
 40
1
 40
1
 10
44.648749
 20
85.330422
 30
0.0
 10
44.648749
 20
86.545276
 30
0.0
 10
45.633222
 20
87.530853
 30
0.0
 10
46.848099
 20
87.530853
 30
0.0
  0
SPLINE
  5
1b9
100
AcDbEntity
  8
0
 62
7
100
AcDbSpline
 70
8
 71
3
 72
8
 73
4
 74
0
 40
0
 40
0
 40
0
 40
0
 40
1
 40
1
 40
1
 40
1
 10
46.848099
 20
87.530853
 30
0.0
 10
48.061877
 20
87.530853
 30
0.0
 10
49.046344
 20
86.545276
 30
0.0
 10
49.046344
 20
85.330422
 30
0.0
  0
LWPOLYLINE
  5
1ba
100
AcDbEntity
  8
0
 62
7
100
AcDbPolyline
 90
2
 70
0
 10
54.594879
 20
57.330873
 30
0.0
 10
54.594879
 20
57.330873
 30
0.0
  0
SPLINE
  5
1bb
100
AcDbEntity
  8
0
 62
7
100
AcDbSpline
 70
8
 71
3
 72
8
 73
4
 74
0
 40
0
 40
0
 40
0
 40
0
 40
1
 40
1
 40
1
 40
1
 10
61.046301
 20
85.330422
 30
0.0
 10
61.046301
 20
84.115540
 30
0.0
 10
60.061833
 20
83.129964
 30
0.0
 10
58.848055
 20
83.129964
 30
0.0
  0
SPLINE
  5
1bc
100
AcDbEntity
  8
0
 62
7
100
AcDbSpline
 70
8
 71
3
 72
8
 73
4
 74
0
 40
0
 40
0
 40
0
 40
0
 40
1
 40
1
 40
1
 40
1
 10
58.848055
 20
83.129964
 30
0.0
 10
57.633179
 20
83.129964
 30
0.0
 10
56.649809
 20
84.115540
 30
0.0
 10
56.649809
 20
85.330422
 30
0.0
  0
SPLINE
  5
1bd
100
AcDbEntity
  8
0
 62
7
100
AcDbSpline
 70
8
 71
3
 72
8
 73
4
 74
0
 40
0
 40
0
 40
0
 40
0
 40
1
 40
1
 40
1
 40
1
 10
56.649809
 20
85.330422
 30
0.0
 10
56.649809
 20
86.545276
 30
0.0
 10
57.633179
 20
87.530853
 30
0.0
 10
58.848055
 20
87.530853
 30
0.0
  0
SPLINE
  5
1be
100
AcDbEntity
  8
0
 62
7
100
AcDbSpline
 70
8
 71
3
 72
8
 73
4
 74
0
 40
0
 40
0
 40
0
 40
0
 40
1
 40
1
 40
1
 40
1
 10
58.848055
 20
87.530853
 30
0.0
 10
60.061833
 20
87.530853
 30
0.0
 10
61.046301
 20
86.545276
 30
0.0
 10
61.046301
 20
85.330422
 30
0.0
  0
LWPOLYLINE
  5
1bf
100
AcDbEntity
  8
0
 62
7
100
AcDbPolyline
 90
2
 70
0
 10
49.046344
 20
85.330422
 30
0.0
 10
49.046344
 20
85.330422
 30
0.0
  0
SPLINE
  5
1c0
100
AcDbEntity
  8
0
 62
7
100
AcDbSpline
 70
8
 71
3
 72
8
 73
4
 74
0
 40
0
 40
0
 40
0
 40
0
 40
1
 40
1
 40
1
 40
1
 10
73.046260
 20
85.330422
 30
0.0
 10
73.046260
 20
84.115540
 30
0.0
 10
72.061790
 20
83.129964
 30
0.0
 10
70.848011
 20
83.129964
 30
0.0
  0
SPLINE
  5
1c1
100
AcDbEntity
  8
0
 62
7
100
AcDbSpline
 70
8
 71
3
 72
8
 73
4
 74
0
 40
0
 40
0
 40
0
 40
0
 40
1
 40
1
 40
1
 40
1
 10
70.848011
 20
83.129964
 30
0.0
 10
69.633135
 20
83.129964
 30
0.0
 10
68.649765
 20
84.115540
 30
0.0
 10
68.649765
 20
85.330422
 30
0.0
  0
SPLINE
  5
1c2
100
AcDbEntity
  8
0
 62
7
100
AcDbSpline
 70
8
 71
3
 72
8
 73
4
 74
0
 40
0
 40
0
 40
0
 40
0
 40
1
 40
1
 40
1
 40
1
 10
68.649765
 20
85.330422
 30
0.0
 10
68.649765
 20
86.545276
 30
0.0
 10
69.633135
 20
87.530853
 30
0.0
 10
70.848011
 20
87.530853
 30
0.0
  0
SPLINE
  5
1c3
100
AcDbEntity
  8
0
 62
7
100
AcDbSpline
 70
8
 71
3
 72
8
 73
4
 74
0
 40
0
 40
0
 40
0
 40
0
 40
1
 40
1
 40
1
 40
1
 10
70.848011
 20
87.530853
 30
0.0
 10
72.061790
 20
87.530853
 30
0.0
 10
73.046260
 20
86.545276
 30
0.0
 10
73.046260
 20
85.330422
 30
0.0
  0
LWPOLYLINE
  5
1c4
100
AcDbEntity
  8
0
 62
7
100
AcDbPolyline
 90
2
 70
0
 10
61.046301
 20
85.330422
 30
0.0
 10
61.046301
 20
85.330422
 30
0.0
  0
SPLINE
  5
1c5
100
AcDbEntity
  8
0
 62
7
100
AcDbSpline
 70
8
 71
3
 72
8
 73
4
 74
0
 40
0
 40
0
 40
0
 40
0
 40
1
 40
1
 40
1
 40
1
 10
28.996442
 20
85.330422
 30
0.0
 10
28.996442
 20
83.893939
 30
0.0
 10
27.832277
 20
82.729773
 30
0.0
 10
26.395808
 20
82.729773
 30
0.0
  0
SPLINE
  5
1c6
100
AcDbEntity
  8
0
 62
7
100
AcDbSpline
 70
8
 71
3
 72
8
 73
4
 74
0
 40
0
 40
0
 40
0
 40
0
 40
1
 40
1
 40
1
 40
1
 10
26.395808
 20
82.729773
 30
0.0
 10
24.960446
 20
82.729773
 30
0.0
 10
23.796276
 20
83.893939
 30
0.0
 10
23.796276
 20
85.330422
 30
0.0
  0
SPLINE
  5
1c7
100
AcDbEntity
  8
0
 62
7
100
AcDbSpline
 70
8
 71
3
 72
8
 73
4
 74
0
 40
0
 40
0
 40
0
 40
0
 40
1
 40
1
 40
1
 40
1
 10
23.796276
 20
85.330422
 30
0.0
 10
23.796276
 20
86.766877
 30
0.0
 10
24.960446
 20
87.931044
 30
0.0
 10
26.395808
 20
87.931044
 30
0.0
  0
SPLINE
  5
1c8
100
AcDbEntity
  8
0
 62
7
100
AcDbSpline
 70
8
 71
3
 72
8
 73
4
 74
0
 40
0
 40
0
 40
0
 40
0
 40
1
 40
1
 40
1
 40
1
 10
26.395808
 20
87.931044
 30
0.0
 10
27.832277
 20
87.931044
 30
0.0
 10
28.996442
 20
86.766877
 30
0.0
 10
28.996442
 20
85.330422
 30
0.0
  0
LWPOLYLINE
  5
1c9
100
AcDbEntity
  8
0
 62
7
100
AcDbPolyline
 90
2
 70
0
 10
73.046260
 20
85.330422
 30
0.0
 10
73.046260
 20
85.330422
 30
0.0
  0
SPLINE
  5
1ca
100
AcDbEntity
  8
0
 62
7
100
AcDbSpline
 70
8
 71
3
 72
8
 73
4
 74
0
 40
0
 40
0
 40
0
 40
0
 40
1
 40
1
 40
1
 40
1
 10
12.995767
 20
85.330422
 30
0.0
 10
12.995767
 20
83.893939
 30
0.0
 10
11.831600
 20
82.729773
 30
0.0
 10
10.396232
 20
82.729773
 30
0.0
  0
SPLINE
  5
1cb
100
AcDbEntity
  8
0
 62
7
100
AcDbSpline
 70
8
 71
3
 72
8
 73
4
 74
0
 40
0
 40
0
 40
0
 40
0
 40
1
 40
1
 40
1
 40
1
 10
10.396232
 20
82.729773
 30
0.0
 10
8.959766
 20
82.729773
 30
0.0
 10
7.795599
 20
83.893939
 30
0.0
 10
7.795599
 20
85.330422
 30
0.0
  0
SPLINE
  5
1cc
100
AcDbEntity
  8
0
 62
7
100
AcDbSpline
 70
8
 71
3
 72
8
 73
4
 74
0
 40
0
 40
0
 40
0
 40
0
 40
1
 40
1
 40
1
 40
1
 10
7.795599
 20
85.330422
 30
0.0
 10
7.795599
 20
86.766877
 30
0.0
 10
8.959766
 20
87.931044
 30
0.0
 10
10.396232
 20
87.931044
 30
0.0
  0
SPLINE
  5
1cd
100
AcDbEntity
  8
0
 62
7
100
AcDbSpline
 70
8
 71
3
 72
8
 73
4
 74
0
 40
0
 40
0
 40
0
 40
0
 40
1
 40
1
 40
1
 40
1
 10
10.396232
 20
87.931044
 30
0.0
 10
11.831600
 20
87.931044
 30
0.0
 10
12.995767
 20
86.766877
 30
0.0
 10
12.995767
 20
85.330422
 30
0.0
  0
LWPOLYLINE
  5
1ce
100
AcDbEntity
  8
0
 62
7
100
AcDbPolyline
 90
2
 70
0
 10
28.996442
 20
85.330422
 30
0.0
 10
28.996442
 20
85.330422
 30
0.0
  0
SPLINE
  5
1cf
100
AcDbEntity
  8
0
 62
7
100
AcDbSpline
 70
8
 71
3
 72
8
 73
4
 74
0
 40
0
 40
0
 40
0
 40
0
 40
1
 40
1
 40
1
 40
1
 10
20.996104
 20
73.330446
 30
0.0
 10
20.996104
 20
71.893992
 30
0.0
 10
19.831937
 20
70.729825
 30
0.0
 10
18.396572
 20
70.729825
 30
0.0
  0
SPLINE
  5
1d0
100
AcDbEntity
  8
0
 62
7
100
AcDbSpline
 70
8
 71
3
 72
8
 73
4
 74
0
 40
0
 40
0
 40
0
 40
0
 40
1
 40
1
 40
1
 40
1
 10
18.396572
 20
70.729825
 30
0.0
 10
16.960106
 20
70.729825
 30
0.0
 10
15.795939
 20
71.893992
 30
0.0
 10
15.795939
 20
73.330446
 30
0.0
  0
SPLINE
  5
1d1
100
AcDbEntity
  8
0
 62
7
100
AcDbSpline
 70
8
 71
3
 72
8
 73
4
 74
0
 40
0
 40
0
 40
0
 40
0
 40
1
 40
1
 40
1
 40
1
 10
15.795939
 20
73.330446
 30
0.0
 10
15.795939
 20
74.766929
 30
0.0
 10
16.960106
 20
75.931096
 30
0.0
 10
18.396572
 20
75.931096
 30
0.0
  0
SPLINE
  5
1d2
100
AcDbEntity
  8
0
 62
7
100
AcDbSpline
 70
8
 71
3
 72
8
 73
4
 74
0
 40
0
 40
0
 40
0
 40
0
 40
1
 40
1
 40
1
 40
1
 10
18.396572
 20
75.931096
 30
0.0
 10
19.831937
 20
75.931096
 30
0.0
 10
20.996104
 20
74.766929
 30
0.0
 10
20.996104
 20
73.330446
 30
0.0
  0
LWPOLYLINE
  5
1d3
100
AcDbEntity
  8
0
 62
7
100
AcDbPolyline
 90
2
 70
0
 10
12.995767
 20
85.330422
 30
0.0
 10
12.995767
 20
85.330422
 30
0.0
  0
SPLINE
  5
1d4
100
AcDbEntity
  8
0
 62
7
100
AcDbSpline
 70
8
 71
3
 72
8
 73
4
 74
0
 40
0
 40
0
 40
0
 40
0
 40
1
 40
1
 40
1
 40
1
 10
36.995679
 20
73.330446
 30
0.0
 10
36.995679
 20
71.893992
 30
0.0
 10
35.831512
 20
70.729825
 30
0.0
 10
34.396147
 20
70.729825
 30
0.0
  0
SPLINE
  5
1d5
100
AcDbEntity
  8
0
 62
7
100
AcDbSpline
 70
8
 71
3
 72
8
 73
4
 74
0
 40
0
 40
0
 40
0
 40
0
 40
1
 40
1
 40
1
 40
1
 10
34.396147
 20
70.729825
 30
0.0
 10
32.959681
 20
70.729825
 30
0.0
 10
31.796615
 20
71.893992
 30
0.0
 10
31.796615
 20
73.330446
 30
0.0
  0
SPLINE
  5
1d6
100
AcDbEntity
  8
0
 62
7
100
AcDbSpline
 70
8
 71
3
 72
8
 73
4
 74
0
 40
0
 40
0
 40
0
 40
0
 40
1
 40
1
 40
1
 40
1
 10
31.796615
 20
73.330446
 30
0.0
 10
31.796615
 20
74.766929
 30
0.0
 10
32.959681
 20
75.931096
 30
0.0
 10
34.396147
 20
75.931096
 30
0.0
  0
SPLINE
  5
1d7
100
AcDbEntity
  8
0
 62
7
100
AcDbSpline
 70
8
 71
3
 72
8
 73
4
 74
0
 40
0
 40
0
 40
0
 40
0
 40
1
 40
1
 40
1
 40
1
 10
34.396147
 20
75.931096
 30
0.0
 10
35.831512
 20
75.931096
 30
0.0
 10
36.995679
 20
74.766929
 30
0.0
 10
36.995679
 20
73.330446
 30
0.0
  0
LWPOLYLINE
  5
1d8
100
AcDbEntity
  8
0
 62
7
100
AcDbPolyline
 90
2
 70
0
 10
20.996104
 20
73.330446
 30
0.0
 10
20.996104
 20
73.330446
 30
0.0
  0
SPLINE
  5
1d9
100
AcDbEntity
  8
0
 62
7
100
AcDbSpline
 70
8
 71
3
 72
8
 73
4
 74
0
 40
0
 40
0
 40
0
 40
0
 40
1
 40
1
 40
1
 40
1
 10
44.996018
 20
65.330124
 30
0.0
 10
44.996018
 20
63.893641
 30
0.0
 10
43.831849
 20
62.729474
 30
0.0
 10
42.396483
 20
62.729474
 30
0.0
  0
SPLINE
  5
1da
100
AcDbEntity
  8
0
 62
7
100
AcDbSpline
 70
8
 71
3
 72
8
 73
4
 74
0
 40
0
 40
0
 40
0
 40
0
 40
1
 40
1
 40
1
 40
1
 10
42.396483
 20
62.729474
 30
0.0
 10
40.960017
 20
62.729474
 30
0.0
 10
39.795851
 20
63.893641
 30
0.0
 10
39.795851
 20
65.330124
 30
0.0
  0
SPLINE
  5
1db
100
AcDbEntity
  8
0
 62
7
100
AcDbSpline
 70
8
 71
3
 72
8
 73
4
 74
0
 40
0
 40
0
 40
0
 40
0
 40
1
 40
1
 40
1
 40
1
 10
39.795851
 20
65.330124
 30
0.0
 10
39.795851
 20
66.766578
 30
0.0
 10
40.960017
 20
67.930745
 30
0.0
 10
42.396483
 20
67.930745
 30
0.0
  0
SPLINE
  5
1dc
100
AcDbEntity
  8
0
 62
7
100
AcDbSpline
 70
8
 71
3
 72
8
 73
4
 74
0
 40
0
 40
0
 40
0
 40
0
 40
1
 40
1
 40
1
 40
1
 10
42.396483
 20
67.930745
 30
0.0
 10
43.831849
 20
67.930745
 30
0.0
 10
44.996018
 20
66.766578
 30
0.0
 10
44.996018
 20
65.330124
 30
0.0
  0
LWPOLYLINE
  5
1dd
100
AcDbEntity
  8
0
 62
7
100
AcDbPolyline
 90
2
 70
0
 10
36.995679
 20
73.330446
 30
0.0
 10
36.995679
 20
73.330446
 30
0.0
  0
SPLINE
  5
1de
100
AcDbEntity
  8
0
 62
7
100
AcDbSpline
 70
8
 71
3
 72
8
 73
4
 74
0
 40
0
 40
0
 40
0
 40
0
 40
1
 40
1
 40
1
 40
1
 10
36.995679
 20
57.330873
 30
0.0
 10
36.995679
 20
55.894419
 30
0.0
 10
35.831512
 20
54.730252
 30
0.0
 10
34.396147
 20
54.730252
 30
0.0
  0
SPLINE
  5
1df
100
AcDbEntity
  8
0
 62
7
100
AcDbSpline
 70
8
 71
3
 72
8
 73
4
 74
0
 40
0
 40
0
 40
0
 40
0
 40
1
 40
1
 40
1
 40
1
 10
34.396147
 20
54.730252
 30
0.0
 10
32.959681
 20
54.730252
 30
0.0
 10
31.796615
 20
55.894419
 30
0.0
 10
31.796615
 20
57.330873
 30
0.0
  0
SPLINE
  5
1e0
100
AcDbEntity
  8
0
 62
7
100
AcDbSpline
 70
8
 71
3
 72
8
 73
4
 74
0
 40
0
 40
0
 40
0
 40
0
 40
1
 40
1
 40
1
 40
1
 10
31.796615
 20
57.330873
 30
0.0
 10
31.796615
 20
58.767356
 30
0.0
 10
32.959681
 20
59.931523
 30
0.0
 10
34.396147
 20
59.931523
 30
0.0
  0
SPLINE
  5
1e1
100
AcDbEntity
  8
0
 62
7
100
AcDbSpline
 70
8
 71
3
 72
8
 73
4
 74
0
 40
0
 40
0
 40
0
 40
0
 40
1
 40
1
 40
1
 40
1
 10
34.396147
 20
59.931523
 30
0.0
 10
35.831512
 20
59.931523
 30
0.0
 10
36.995679
 20
58.767356
 30
0.0
 10
36.995679
 20
57.330873
 30
0.0
  0
LWPOLYLINE
  5
1e2
100
AcDbEntity
  8
0
 62
7
100
AcDbPolyline
 90
2
 70
0
 10
44.996018
 20
65.330124
 30
0.0
 10
44.996018
 20
65.330124
 30
0.0
  0
SPLINE
  5
1e3
100
AcDbEntity
  8
0
 62
7
100
AcDbSpline
 70
8
 71
3
 72
8
 73
4
 74
0
 40
0
 40
0
 40
0
 40
0
 40
1
 40
1
 40
1
 40
1
 10
28.996442
 20
65.330124
 30
0.0
 10
28.996442
 20
63.893641
 30
0.0
 10
27.832277
 20
62.729474
 30
0.0
 10
26.395808
 20
62.729474
 30
0.0
  0
SPLINE
  5
1e4
100
AcDbEntity
  8
0
 62
7
100
AcDbSpline
 70
8
 71
3
 72
8
 73
4
 74
0
 40
0
 40
0
 40
0
 40
0
 40
1
 40
1
 40
1
 40
1
 10
26.395808
 20
62.729474
 30
0.0
 10
24.960446
 20
62.729474
 30
0.0
 10
23.796276
 20
63.893641
 30
0.0
 10
23.796276
 20
65.330124
 30
0.0
  0
SPLINE
  5
1e5
100
AcDbEntity
  8
0
 62
7
100
AcDbSpline
 70
8
 71
3
 72
8
 73
4
 74
0
 40
0
 40
0
 40
0
 40
0
 40
1
 40
1
 40
1
 40
1
 10
23.796276
 20
65.330124
 30
0.0
 10
23.796276
 20
66.766578
 30
0.0
 10
24.960446
 20
67.930745
 30
0.0
 10
26.395808
 20
67.930745
 30
0.0
  0
SPLINE
  5
1e6
100
AcDbEntity
  8
0
 62
7
100
AcDbSpline
 70
8
 71
3
 72
8
 73
4
 74
0
 40
0
 40
0
 40
0
 40
0
 40
1
 40
1
 40
1
 40
1
 10
26.395808
 20
67.930745
 30
0.0
 10
27.832277
 20
67.930745
 30
0.0
 10
28.996442
 20
66.766578
 30
0.0
 10
28.996442
 20
65.330124
 30
0.0
  0
LWPOLYLINE
  5
1e7
100
AcDbEntity
  8
0
 62
7
100
AcDbPolyline
 90
2
 70
0
 10
36.995679
 20
57.330873
 30
0.0
 10
36.995679
 20
57.330873
 30
0.0
  0
SPLINE
  5
1e8
100
AcDbEntity
  8
0
 62
7
100
AcDbSpline
 70
8
 71
3
 72
8
 73
4
 74
0
 40
0
 40
0
 40
0
 40
0
 40
1
 40
1
 40
1
 40
1
 10
12.995767
 20
65.330124
 30
0.0
 10
12.995767
 20
63.893641
 30
0.0
 10
11.831600
 20
62.729474
 30
0.0
 10
10.396232
 20
62.729474
 30
0.0
  0
SPLINE
  5
1e9
100
AcDbEntity
  8
0
 62
7
100
AcDbSpline
 70
8
 71
3
 72
8
 73
4
 74
0
 40
0
 40
0
 40
0
 40
0
 40
1
 40
1
 40
1
 40
1
 10
10.396232
 20
62.729474
 30
0.0
 10
8.959766
 20
62.729474
 30
0.0
 10
7.795599
 20
63.893641
 30
0.0
 10
7.795599
 20
65.330124
 30
0.0
  0
SPLINE
  5
1ea
100
AcDbEntity
  8
0
 62
7
100
AcDbSpline
 70
8
 71
3
 72
8
 73
4
 74
0
 40
0
 40
0
 40
0
 40
0
 40
1
 40
1
 40
1
 40
1
 10
7.795599
 20
65.330124
 30
0.0
 10
7.795599
 20
66.766578
 30
0.0
 10
8.959766
 20
67.930745
 30
0.0
 10
10.396232
 20
67.930745
 30
0.0
  0
SPLINE
  5
1eb
100
AcDbEntity
  8
0
 62
7
100
AcDbSpline
 70
8
 71
3
 72
8
 73
4
 74
0
 40
0
 40
0
 40
0
 40
0
 40
1
 40
1
 40
1
 40
1
 10
10.396232
 20
67.930745
 30
0.0
 10
11.831600
 20
67.930745
 30
0.0
 10
12.995767
 20
66.766578
 30
0.0
 10
12.995767
 20
65.330124
 30
0.0
  0
LWPOLYLINE
  5
1ec
100
AcDbEntity
  8
0
 62
7
100
AcDbPolyline
 90
2
 70
0
 10
28.996442
 20
65.330124
 30
0.0
 10
28.996442
 20
65.330124
 30
0.0
  0
SPLINE
  5
1ed
100
AcDbEntity
  8
0
 62
7
100
AcDbSpline
 70
8
 71
3
 72
8
 73
4
 74
0
 40
0
 40
0
 40
0
 40
0
 40
1
 40
1
 40
1
 40
1
 10
20.996104
 20
57.330873
 30
0.0
 10
20.996104
 20
55.894419
 30
0.0
 10
19.831937
 20
54.730252
 30
0.0
 10
18.396572
 20
54.730252
 30
0.0
  0
SPLINE
  5
1ee
100
AcDbEntity
  8
0
 62
7
100
AcDbSpline
 70
8
 71
3
 72
8
 73
4
 74
0
 40
0
 40
0
 40
0
 40
0
 40
1
 40
1
 40
1
 40
1
 10
18.396572
 20
54.730252
 30
0.0
 10
16.960106
 20
54.730252
 30
0.0
 10
15.795939
 20
55.894419
 30
0.0
 10
15.795939
 20
57.330873
 30
0.0
  0
SPLINE
  5
1ef
100
AcDbEntity
  8
0
 62
7
100
AcDbSpline
 70
8
 71
3
 72
8
 73
4
 74
0
 40
0
 40
0
 40
0
 40
0
 40
1
 40
1
 40
1
 40
1
 10
15.795939
 20
57.330873
 30
0.0
 10
15.795939
 20
58.767356
 30
0.0
 10
16.960106
 20
59.931523
 30
0.0
 10
18.396572
 20
59.931523
 30
0.0
  0
SPLINE
  5
1f0
100
AcDbEntity
  8
0
 62
7
100
AcDbSpline
 70
8
 71
3
 72
8
 73
4
 74
0
 40
0
 40
0
 40
0
 40
0
 40
1
 40
1
 40
1
 40
1
 10
18.396572
 20
59.931523
 30
0.0
 10
19.831937
 20
59.931523
 30
0.0
 10
20.996104
 20
58.767356
 30
0.0
 10
20.996104
 20
57.330873
 30
0.0
  0
LWPOLYLINE
  5
1f1
100
AcDbEntity
  8
0
 62
7
100
AcDbPolyline
 90
2
 70
0
 10
12.995767
 20
65.330124
 30
0.0
 10
12.995767
 20
65.330124
 30
0.0
  0
SPLINE
  5
1f2
100
AcDbEntity
  8
0
 62
7
100
AcDbSpline
 70
8
 71
3
 72
8
 73
4
 74
0
 40
0
 40
0
 40
0
 40
0
 40
1
 40
1
 40
1
 40
1
 10
28.996442
 20
49.330551
 30
0.0
 10
28.996442
 20
47.894068
 30
0.0
 10
27.832277
 20
46.729901
 30
0.0
 10
26.395808
 20
46.729901
 30
0.0
  0
SPLINE
  5
1f3
100
AcDbEntity
  8
0
 62
7
100
AcDbSpline
 70
8
 71
3
 72
8
 73
4
 74
0
 40
0
 40
0
 40
0
 40
0
 40
1
 40
1
 40
1
 40
1
 10
26.395808
 20
46.729901
 30
0.0
 10
24.960446
 20
46.729901
 30
0.0
 10
23.796276
 20
47.894068
 30
0.0
 10
23.796276
 20
49.330551
 30
0.0
  0
SPLINE
  5
1f4
100
AcDbEntity
  8
0
 62
7
100
AcDbSpline
 70
8
 71
3
 72
8
 73
4
 74
0
 40
0
 40
0
 40
0
 40
0
 40
1
 40
1
 40
1
 40
1
 10
23.796276
 20
49.330551
 30
0.0
 10
23.796276
 20
50.767005
 30
0.0
 10
24.960446
 20
51.931172
 30
0.0
 10
26.395808
 20
51.931172
 30
0.0
  0
SPLINE
  5
1f5
100
AcDbEntity
  8
0
 62
7
100
AcDbSpline
 70
8
 71
3
 72
8
 73
4
 74
0
 40
0
 40
0
 40
0
 40
0
 40
1
 40
1
 40
1
 40
1
 10
26.395808
 20
51.931172
 30
0.0
 10
27.832277
 20
51.931172
 30
0.0
 10
28.996442
 20
50.767005
 30
0.0
 10
28.996442
 20
49.330551
 30
0.0
  0
LWPOLYLINE
  5
1f6
100
AcDbEntity
  8
0
 62
7
100
AcDbPolyline
 90
2
 70
0
 10
20.996104
 20
57.330873
 30
0.0
 10
20.996104
 20
57.330873
 30
0.0
  0
SPLINE
  5
1f7
100
AcDbEntity
  8
0
 62
7
100
AcDbSpline
 70
8
 71
3
 72
8
 73
4
 74
0
 40
0
 40
0
 40
0
 40
0
 40
1
 40
1
 40
1
 40
1
 10
44.996018
 20
49.330551
 30
0.0
 10
44.996018
 20
47.894068
 30
0.0
 10
43.831849
 20
46.729901
 30
0.0
 10
42.396483
 20
46.729901
 30
0.0
  0
SPLINE
  5
1f8
100
AcDbEntity
  8
0
 62
7
100
AcDbSpline
 70
8
 71
3
 72
8
 73
4
 74
0
 40
0
 40
0
 40
0
 40
0
 40
1
 40
1
 40
1
 40
1
 10
42.396483
 20
46.729901
 30
0.0
 10
40.960017
 20
46.729901
 30
0.0
 10
39.795851
 20
47.894068
 30
0.0
 10
39.795851
 20
49.330551
 30
0.0
  0
SPLINE
  5
1f9
100
AcDbEntity
  8
0
 62
7
100
AcDbSpline
 70
8
 71
3
 72
8
 73
4
 74
0
 40
0
 40
0
 40
0
 40
0
 40
1
 40
1
 40
1
 40
1
 10
39.795851
 20
49.330551
 30
0.0
 10
39.795851
 20
50.767005
 30
0.0
 10
40.960017
 20
51.931172
 30
0.0
 10
42.396483
 20
51.931172
 30
0.0
  0
SPLINE
  5
1fa
100
AcDbEntity
  8
0
 62
7
100
AcDbSpline
 70
8
 71
3
 72
8
 73
4
 74
0
 40
0
 40
0
 40
0
 40
0
 40
1
 40
1
 40
1
 40
1
 10
42.396483
 20
51.931172
 30
0.0
 10
43.831849
 20
51.931172
 30
0.0
 10
44.996018
 20
50.767005
 30
0.0
 10
44.996018
 20
49.330551
 30
0.0
  0
LWPOLYLINE
  5
1fb
100
AcDbEntity
  8
0
 62
7
100
AcDbPolyline
 90
2
 70
0
 10
28.996442
 20
49.330551
 30
0.0
 10
28.996442
 20
49.330551
 30
0.0
  0
SPLINE
  5
1fc
100
AcDbEntity
  8
0
 62
7
100
AcDbSpline
 70
8
 71
3
 72
8
 73
4
 74
0
 40
0
 40
0
 40
0
 40
0
 40
1
 40
1
 40
1
 40
1
 10
12.995767
 20
49.330551
 30
0.0
 10
12.995767
 20
47.894068
 30
0.0
 10
11.831600
 20
46.729901
 30
0.0
 10
10.396232
 20
46.729901
 30
0.0
  0
SPLINE
  5
1fd
100
AcDbEntity
  8
0
 62
7
100
AcDbSpline
 70
8
 71
3
 72
8
 73
4
 74
0
 40
0
 40
0
 40
0
 40
0
 40
1
 40
1
 40
1
 40
1
 10
10.396232
 20
46.729901
 30
0.0
 10
8.959766
 20
46.729901
 30
0.0
 10
7.795599
 20
47.894068
 30
0.0
 10
7.795599
 20
49.330551
 30
0.0
  0
SPLINE
  5
1fe
100
AcDbEntity
  8
0
 62
7
100
AcDbSpline
 70
8
 71
3
 72
8
 73
4
 74
0
 40
0
 40
0
 40
0
 40
0
 40
1
 40
1
 40
1
 40
1
 10
7.795599
 20
49.330551
 30
0.0
 10
7.795599
 20
50.767005
 30
0.0
 10
8.959766
 20
51.931172
 30
0.0
 10
10.396232
 20
51.931172
 30
0.0
  0
SPLINE
  5
1ff
100
AcDbEntity
  8
0
 62
7
100
AcDbSpline
 70
8
 71
3
 72
8
 73
4
 74
0
 40
0
 40
0
 40
0
 40
0
 40
1
 40
1
 40
1
 40
1
 10
10.396232
 20
51.931172
 30
0.0
 10
11.831600
 20
51.931172
 30
0.0
 10
12.995767
 20
50.767005
 30
0.0
 10
12.995767
 20
49.330551
 30
0.0
  0
LWPOLYLINE
  5
200
100
AcDbEntity
  8
0
 62
7
100
AcDbPolyline
 90
2
 70
0
 10
44.996018
 20
49.330551
 30
0.0
 10
44.996018
 20
49.330551
 30
0.0
  0
LWPOLYLINE
  5
201
100
AcDbEntity
  8
0
 62
7
100
AcDbPolyline
 90
2
 70
0
 10
12.995767
 20
49.330551
 30
0.0
 10
12.995767
 20
49.330551
 30
0.0
  0
LWPOLYLINE
  5
202
100
AcDbEntity
  8
0
 62
7
100
AcDbPolyline
 90
6
 70
0
 10
80.006427
 20
196.448028
 30
0.0
 10
80.006427
 20
188.457611
 30
0.0
 10
76.005707
 20
188.457611
 30
0.0
 10
76.005707
 20
185.979672
 30
0.0
 10
80.006427
 20
185.979672
 30
0.0
 10
80.006427
 20
176.447729
 30
0.0
  0
LWPOLYLINE
  5
203
100
AcDbEntity
  8
0
 62
7
100
AcDbPolyline
 90
2
 70
0
 10
80.006427
 20
196.448028
 30
0.0
 10
64.044333
 20
196.448028
 30
0.0
  0
LWPOLYLINE
  5
204
100
AcDbEntity
  8
0
 62
7
100
AcDbPolyline
 90
7
 70
0
 10
16.044509
 20
196.448028
 30
0.0
 10
0.083519
 20
196.448028
 30
0.0
 10
0.062578
 20
188.447677
 30
0.0
 10
4.062197
 20
188.447677
 30
0.0
 10
4.062197
 20
185.970076
 30
0.0
 10
0.062578
 20
185.970076
 30
0.0
 10
0.042738
 20
176.488510
 30
0.0
  0
LWPOLYLINE
  5
205
100
AcDbEntity
  8
0
 62
7
100
AcDbPolyline
 90
2
 70
0
 10
64.016774
 20
192.449503
 30
0.0
 10
64.044319
 20
196.448028
 30
0.0
  0
LWPOLYLINE
  5
206
100
AcDbEntity
  8
0
 62
7
100
AcDbPolyline
 90
2
 70
0
 10
19.987905
 20
188.449878
 30
0.0
 10
60.017155
 20
188.449878
 30
0.0
  0
SPLINE
  5
207
100
AcDbEntity
  8
0
 62
7
100
AcDbSpline
 70
8
 71
3
 72
8
 73
4
 74
0
 40
0
 40
0
 40
0
 40
0
 40
1
 40
1
 40
1
 40
1
 10
64.016774
 20
192.449503
 30
0.0
 10
64.016774
 20
190.326232
 30
0.0
 10
61.864830
 20
188.449878
 30
0.0
 10
60.017155
 20
188.449878
 30
0.0
  0
SPLINE
  5
208
100
AcDbEntity
  8
0
 62
7
100
AcDbSpline
 70
8
 71
3
 72
8
 73
4
 74
0
 40
0
 40
0
 40
0
 40
0
 40
1
 40
1
 40
1
 40
1
 10
15.988285
 20
192.449503
 30
0.0
 10
15.988285
 20
190.326232
 30
0.0
 10
18.140230
 20
188.449878
 30
0.0
 10
19.987905
 20
188.449878
 30
0.0
  0
LWPOLYLINE
  5
209
100
AcDbEntity
  8
0
 62
7
100
AcDbPolyline
 90
2
 70
0
 10
15.988285
 20
192.449503
 30
0.0
 10
16.044509
 20
196.448028
 30
0.0
  0
LWPOLYLINE
  5
20a
100
AcDbEntity
  8
0
 62
7
100
AcDbPolyline
 90
6
 70
0
 10
80.002597
 20
156.510931
 30
0.0
 10
80.002597
 20
164.500247
 30
0.0
 10
76.002978
 20
164.500247
 30
0.0
 10
76.002978
 20
166.978073
 30
0.0
 10
80.002597
 20
166.978073
 30
0.0
 10
80.002597
 20
176.510128
 30
0.0
  0
LWPOLYLINE
  5
20b
100
AcDbEntity
  8
0
 62
7
100
AcDbPolyline
 90
2
 70
0
 10
0.040000
 20
176.470448
 30
0.0
 10
80.002597
 20
176.510128
 30
0.0
  0
LWPOLYLINE
  5
20c
100
AcDbEntity
  8
0
 62
7
100
AcDbPolyline
 90
2
 70
0
 10
80.002597
 20
156.510931
 30
0.0
 10
64.041607
 20
156.510931
 30
0.0
  0
LWPOLYLINE
  5
20d
100
AcDbEntity
  8
0
 62
7
100
AcDbPolyline
 90
7
 70
0
 10
16.041780
 20
156.510931
 30
0.0
 10
0.079689
 20
156.510931
 30
0.0
 10
0.058748
 20
164.510181
 30
0.0
 10
4.058367
 20
164.510181
 30
0.0
 10
4.058367
 20
166.987669
 30
0.0
 10
0.058748
 20
166.987669
 30
0.0
 10
0.040009
 20
176.470448
 30
0.0
  0
LWPOLYLINE
  5
20e
100
AcDbEntity
  8
0
 62
7
100
AcDbPolyline
 90
2
 70
0
 10
64.014045
 20
160.508355
 30
0.0
 10
64.041618
 20
156.510931
 30
0.0
  0
LWPOLYLINE
  5
20f
100
AcDbEntity
  8
0
 62
7
100
AcDbPolyline
 90
2
 70
0
 10
19.984072
 20
164.507980
 30
0.0
 10
60.014429
 20
164.507980
 30
0.0
  0
SPLINE
  5
210
100
AcDbEntity
  8
0
 62
7
100
AcDbSpline
 70
8
 71
3
 72
8
 73
4
 74
0
 40
0
 40
0
 40
0
 40
0
 40
1
 40
1
 40
1
 40
1
 10
64.014045
 20
160.508355
 30
0.0
 10
64.014045
 20
162.631625
 30
0.0
 10
61.861000
 20
164.507980
 30
0.0
 10
60.014429
 20
164.507980
 30
0.0
  0
SPLINE
  5
211
100
AcDbEntity
  8
0
 62
7
100
AcDbSpline
 70
8
 71
3
 72
8
 73
4
 74
0
 40
0
 40
0
 40
0
 40
0
 40
1
 40
1
 40
1
 40
1
 10
15.985555
 20
160.508355
 30
0.0
 10
15.985555
 20
162.631625
 30
0.0
 10
18.137500
 20
164.507980
 30
0.0
 10
19.984072
 20
164.507980
 30
0.0
  0
LWPOLYLINE
  5
212
100
AcDbEntity
  8
0
 62
7
100
AcDbPolyline
 90
2
 70
0
 10
15.985555
 20
160.508355
 30
0.0
 10
16.041780
 20
156.510931
 30
0.0
  0
ENDSEC
  0
SECTION
  2
OBJECTS
  0
DICTIONARY
  5
C
330
0
100
AcDbDictionary
  3
ACAD_GROUP
350
D
  3
ACAD_MLINESTYLE
350
17
  0
DICTIONARY
  5
D
330
C
100
AcDbDictionary
  0
DICTIONARY
  5
1A
330
C
100
AcDbDictionary
  0
DICTIONARY
  5
17
330
C
100
AcDbDictionary
  3
STANDARD
350
18
  0
DICTIONARY
  5
19
330
C
100
AcDbDictionary
  0
ENDSEC
  0
EOF
