999
dxflib 2.2.0.0
  0
SECTION
  2
HEADER
  9
$ACADVER
  1
AC1015
  9
$HANDSEED
  5
FFFF
  9
$DIMASZ
 40
2.5
  9
$PLIMMIN
 10
0.0
 20
0.0
  9
$DIMEXE
 40
1.25
  9
$DIMGAP
 40
0.625
  9
$PLIMMAX
 10
210.0
 20
297.0
  9
$INSUNITS
 70
4
  9
$DIMSTYLE
  2
Standard
  9
$MEASUREMENT
 70
1
  9
$DIMEXO
 40
0.625
  9
$DIMTXT
 40
2.5
  9
$CLAYER
  8
0
  0
ENDSEC
  0
SECTION
  2
TABLES
  0
TABLE
  2
VPORT
  5
8
100
AcDbSymbolTable
 70
1
  0
VPORT
  5
30
100
AcDbSymbolTableRecord
100
AcDbViewportTableRecord
  2
*Active
 70
0
 10
0.0
 20
0.0
 11
1.0
 21
1.0
 12
286.30555555555549
 22
148.5
 13
0.0
 23
0.0
 14
10.0
 24
10.0
 15
10.0
 25
10.0
 16
0.0
 26
0.0
 36
1.0
 17
0.0
 27
0.0
 37
0.0
 40
297.0
 41
1.92798353909465
 42
50.0
 43
0.0
 44
0.0
 50
0.0
 51
0.0
 71
0
 72
100
 73
1
 74
3
 75
1
 76
1
 77
0
 78
0
281
0
 65
1
110
0.0
120
0.0
130
0.0
111
1.0
121
0.0
131
0.0
112
0.0
122
1.0
132
0.0
 79
0
146
0.0
  0
ENDTAB
  0
TABLE
  2
LTYPE
  5
5
100
AcDbSymbolTable
 70
21
  0
LTYPE
  5
14
100
AcDbSymbolTableRecord
100
AcDbLinetypeTableRecord
  2
ByBlock
 70
0
  3

 72
65
 73
0
 40
0.0
  0
LTYPE
  5
15
100
AcDbSymbolTableRecord
100
AcDbLinetypeTableRecord
  2
ByLayer
 70
0
  3

 72
65
 73
0
 40
0.0
  0
LTYPE
  5
16
100
AcDbSymbolTableRecord
100
AcDbLinetypeTableRecord
  2
CONTINUOUS
 70
0
  3
Solid line
 72
65
 73
0
 40
0.0
  0
LTYPE
  5
31
100
AcDbSymbolTableRecord
100
AcDbLinetypeTableRecord
  2
DOT
 70
0
  3
Dot . . . . . . . . . . . . . . . . . . . . . .
 72
65
 73
2
 40
6.3499999999999996
 49
0.0
 74
0
 49
-6.3499999999999996
 74
0
  0
LTYPE
  5
32
100
AcDbSymbolTableRecord
100
AcDbLinetypeTableRecord
  2
DOT2
 70
0
  3
Dot (.5x) .....................................
 72
65
 73
2
 40
3.1749999999999998
 49
0.0
 74
0
 49
-3.1749999999999998
 74
0
  0
LTYPE
  5
33
100
AcDbSymbolTableRecord
100
AcDbLinetypeTableRecord
  2
DOTX2
 70
0
  3
Dot (2x) .  .  .  .  .  .  .  .  .  .  .  .  .
 72
65
 73
2
 40
12.699999999999999
 49
0.0
 74
0
 49
-12.699999999999999
 74
0
  0
LTYPE
  5
34
100
AcDbSymbolTableRecord
100
AcDbLinetypeTableRecord
  2
DASHED
 70
0
  3
Dashed __ __ __ __ __ __ __ __ __ __ __ __ __ _
 72
65
 73
2
 40
19.050000000000001
 49
12.699999999999999
 74
0
 49
-6.3499999999999996
 74
0
  0
LTYPE
  5
35
100
AcDbSymbolTableRecord
100
AcDbLinetypeTableRecord
  2
DASHED2
 70
0
  3
Dashed (.5x) _ _ _ _ _ _ _ _ _ _ _ _ _ _ _ _ _
 72
65
 73
2
 40
9.5250000000000004
 49
6.3499999999999996
 74
0
 49
-3.1749999999999998
 74
0
  0
LTYPE
  5
36
100
AcDbSymbolTableRecord
100
AcDbLinetypeTableRecord
  2
DASHEDX2
 70
0
  3
Dashed (2x) ____  ____  ____  ____  ____  ___
 72
65
 73
2
 40
38.100000000000001
 49
25.399999999999999
 74
0
 49
-12.699999999999999
 74
0
  0
LTYPE
  5
37
100
AcDbSymbolTableRecord
100
AcDbLinetypeTableRecord
  2
DASHDOT
 70
0
  3
Dash dot __ . __ . __ . __ . __ . __ . __ . __
 72
65
 73
4
 40
25.399999999999999
 49
12.699999999999999
 74
0
 49
-6.3499999999999996
 74
0
 49
0.0
 74
0
 49
-6.3499999999999996
 74
0
  0
LTYPE
  5
38
100
AcDbSymbolTableRecord
100
AcDbLinetypeTableRecord
  2
DASHDOT2
 70
0
  3
Dash dot (.5x) _._._._._._._._._._._._._._._.
 72
65
 73
4
 40
12.699999999999999
 49
6.3499999999999996
 74
0
 49
-3.1749999999999998
 74
0
 49
0.0
 74
0
 49
-3.1749999999999998
 74
0
  0
LTYPE
  5
39
100
AcDbSymbolTableRecord
100
AcDbLinetypeTableRecord
  2
DASHDOTX2
 70
0
  3
Dash dot (2x) ____  .  ____  .  ____  .  ___
 72
65
 73
4
 40
50.799999999999997
 49
25.399999999999999
 74
0
 49
-12.699999999999999
 74
0
 49
0.0
 74
0
 49
-12.699999999999999
 74
0
  0
LTYPE
  5
3A
100
AcDbSymbolTableRecord
100
AcDbLinetypeTableRecord
  2
DIVIDE
 70
0
  3
Divide ____ . . ____ . . ____ . . ____ . . ____
 72
65
 73
6
 40
31.75
 49
12.699999999999999
 74
0
 49
-6.3499999999999996
 74
0
 49
0.0
 74
0
 49
-6.3499999999999996
 74
0
 49
0.0
 74
0
 49
-6.3499999999999996
 74
0
  0
LTYPE
  5
3B
100
AcDbSymbolTableRecord
100
AcDbLinetypeTableRecord
  2
DIVIDE2
 70
0
  3
Divide (.5x) __..__..__..__..__..__..__..__.._
 72
65
 73
6
 40
15.875
 49
6.3499999999999996
 74
0
 49
-3.1749999999999998
 74
0
 49
0.0
 74
0
 49
-3.1749999999999998
 74
0
 49
0.0
 74
0
 49
-3.1749999999999998
 74
0
  0
LTYPE
  5
3C
100
AcDbSymbolTableRecord
100
AcDbLinetypeTableRecord
  2
DIVIDEX2
 70
0
  3
Divide (2x) ________  .  .  ________  .  .  _
 72
65
 73
6
 40
63.5
 49
25.399999999999999
 74
0
 49
-12.699999999999999
 74
0
 49
0.0
 74
0
 49
-12.699999999999999
 74
0
 49
0.0
 74
0
 49
-12.699999999999999
 74
0
  0
LTYPE
  5
3D
100
AcDbSymbolTableRecord
100
AcDbLinetypeTableRecord
  2
CENTER
 70
0
  3
Center ____ _ ____ _ ____ _ ____ _ ____ _ ____
 72
65
 73
4
 40
50.799999999999997
 49
31.75
 74
0
 49
-6.3499999999999996
 74
0
 49
6.3499999999999996
 74
0
 49
-6.3499999999999996
 74
0
  0
LTYPE
  5
3E
100
AcDbSymbolTableRecord
100
AcDbLinetypeTableRecord
  2
CENTER2
 70
0
  3
Center (.5x) ___ _ ___ _ ___ _ ___ _ ___ _ ___
 72
65
 73
4
 40
28.574999999999999
 49
19.050000000000001
 74
0
 49
-3.1749999999999998
 74
0
 49
3.1749999999999998
 74
0
 49
-3.1749999999999998
 74
0
  0
LTYPE
  5
3F
100
AcDbSymbolTableRecord
100
AcDbLinetypeTableRecord
  2
CENTERX2
 70
0
  3
Center (2x) ________  __  ________  __  _____
 72
65
 73
4
 40
101.59999999999999
 49
63.5
 74
0
 49
-12.699999999999999
 74
0
 49
12.699999999999999
 74
0
 49
-12.699999999999999
 74
0
  0
LTYPE
  5
40
100
AcDbSymbolTableRecord
100
AcDbLinetypeTableRecord
  2
BORDER
 70
0
  3
Border __ __ . __ __ . __ __ . __ __ . __ __ .
 72
65
 73
6
 40
44.450000000000003
 49
12.699999999999999
 74
0
 49
-6.3499999999999996
 74
0
 49
12.699999999999999
 74
0
 49
-6.3499999999999996
 74
0
 49
0.0
 74
0
 49
-6.3499999999999996
 74
0
  0
LTYPE
  5
41
100
AcDbSymbolTableRecord
100
AcDbLinetypeTableRecord
  2
BORDER2
 70
0
  3
Border (.5x) __.__.__.__.__.__.__.__.__.__.__.
 72
65
 73
6
 40
22.225000000000001
 49
6.3499999999999996
 74
0
 49
-3.1749999999999998
 74
0
 49
6.3499999999999996
 74
0
 49
-3.1749999999999998
 74
0
 49
0.0
 74
0
 49
-3.1749999999999998
 74
0
  0
LTYPE
  5
42
100
AcDbSymbolTableRecord
100
AcDbLinetypeTableRecord
  2
BORDERX2
 70
0
  3
Border (2x) ____  ____  .  ____  ____  .  ___
 72
65
 73
6
 40
88.900000000000006
 49
25.399999999999999
 74
0
 49
-12.699999999999999
 74
0
 49
25.399999999999999
 74
0
 49
-12.699999999999999
 74
0
 49
0.0
 74
0
 49
-12.699999999999999
 74
0
  0
ENDTAB
  0
TABLE
  2
LAYER
  5
2
100
AcDbSymbolTable
 70
1
  0
LAYER
  5
10
100
AcDbSymbolTableRecord
100
AcDbLayerTableRecord
  2
0
 70
0
 62
7
  6
CONTINUOUS
390
F
  0
ENDTAB
  0
TABLE
  2
STYLE
  5
3
100
AcDbSymbolTable
 70
1
  0
STYLE
  5
11
100
AcDbSymbolTableRecord
100
AcDbTextStyleTableRecord
  2
Standard
 70
0
 40
0.0
 41
0.75
 50
0.0
 71
0
 42
2.5
  3
txt
  4

  0
ENDTAB
  0
TABLE
  2
VIEW
  5
6
100
AcDbSymbolTable
 70
0
  0
ENDTAB
  0
TABLE
  2
UCS
  5
7
100
AcDbSymbolTable
 70
0
  0
ENDTAB
  0
TABLE
  2
APPID
  5
9
100
AcDbSymbolTable
 70
1
  0
APPID
  5
12
100
AcDbSymbolTableRecord
100
AcDbRegAppTableRecord
  2
ACAD
 70
0
  0
ENDTAB
  0
TABLE
  2
DIMSTYLE
  5
A
100
AcDbSymbolTable
 70
1
100
AcDbDimStyleTable
 71
0
  0
DIMSTYLE
105
27
100
AcDbSymbolTableRecord
100
AcDbDimStyleTableRecord
  2
Standard
 41
2.5
 42
0.625
 43
3.75
 44
1.25
 70
0
 73
0
 74
0
 77
1
 78
8
140
2.5
141
2.5
143
0.03937007874016
147
0.625
171
3
172
1
271
2
272
2
274
3
278
44
283
0
284
8
340
11
  0
ENDTAB
  0
TABLE
  2
BLOCK_RECORD
  5
1
100
AcDbSymbolTable
 70
1
  0
BLOCK_RECORD
  5
1F
100
AcDbSymbolTableRecord
100
AcDbBlockTableRecord
  2
*Model_Space
340
22
  0
BLOCK_RECORD
  5
1B
100
AcDbSymbolTableRecord
100
AcDbBlockTableRecord
  2
*Paper_Space
340
1E
  0
BLOCK_RECORD
  5
23
100
AcDbSymbolTableRecord
100
AcDbBlockTableRecord
  2
*Paper_Space0
340
26
  0
ENDTAB
  0
ENDSEC
  0
SECTION
  2
BLOCKS
  0
BLOCK
  5
20
100
AcDbEntity
  8
0
100
AcDbBlockBegin
  2
*Model_Space
 70
0
 10
0.0
 20
0.0
 30
0.0
  3
*Model_Space
  1

  0
ENDBLK
  5
21
100
AcDbEntity
  8
0
100
AcDbBlockEnd
  0
BLOCK
  5
1C
100
AcDbEntity
 67
1
  8
0
100
AcDbBlockBegin
  2
*Paper_Space
 70
0
 10
0.0
 20
0.0
 30
0.0
  3
*Paper_Space
  1

  0
ENDBLK
  5
1D
100
AcDbEntity
 67
1
  8
0
100
AcDbBlockEnd
  0
BLOCK
  5
24
100
AcDbEntity
  8
0
100
AcDbBlockBegin
  2
*Paper_Space0
 70
0
 10
0.0
 20
0.0
 30
0.0
  3
*Paper_Space0
  1

  0
ENDBLK
  5
25
100
AcDbEntity
  8
0
100
AcDbBlockEnd
  0
ENDSEC
  0
SECTION
  2
ENTITIES
  0
SPLINE
  5
43
  8
0
 62
7
420
16777215
370
-1
  6
ByLayer
100
AcDbEntity
100
AcDbSpline
 70
8
 71
3
 72
8
 73
4
 74
0
 40
0.0
 40
0.0
 40
0.0
 40
0.0
 40
1.0
 40
1.0
 40
1.0
 40
1.0
 10
78.932369332830291
 20
143.75668724970279
 30
0.0
 10
79.008921972830279
 20
143.75668724970279
 30
0.0
 10
79.071804852830283
 20
143.69380064970278
 30
0.0
 10
79.071804852830283
 20
143.61726536970281
 30
0.0
  0
LWPOLYLINE
  5
44
  8
0
 62
7
420
16777215
370
-1
  6
ByLayer
100
AcDbEntity
100
AcDbPolyline
 90
2
 70
0
 10
-19.984755667169722
 20
143.75668724970279
 10
78.932369332830291
 20
143.75668724970279
  0
SPLINE
  5
45
  8
0
 62
7
420
16777215
370
-1
  6
ByLayer
100
AcDbEntity
100
AcDbSpline
 70
8
 71
3
 72
8
 73
4
 74
0
 40
0.0
 40
0.0
 40
0.0
 40
0.0
 40
1.0
 40
1.0
 40
1.0
 40
1.0
 10
79.071804852830283
 20
74.453203809702785
 30
0.0
 10
79.071804852830283
 20
74.375268569702783
 30
0.0
 10
79.008921972830279
 20
74.313747209702797
 30
0.0
 10
78.932369332830291
 20
74.313747209702797
 30
0.0
  0
LWPOLYLINE
  5
46
  8
0
 62
7
420
16777215
370
-1
  6
ByLayer
100
AcDbEntity
100
AcDbPolyline
 90
2
 70
0
 10
79.071804852830283
 20
143.61726536970281
 10
79.071804852830283
 20
74.453203809702785
  0
SPLINE
  5
47
  8
0
 62
7
420
16777215
370
-1
  6
ByLayer
100
AcDbEntity
100
AcDbSpline
 70
8
 71
3
 72
8
 73
4
 74
0
 40
0.0
 40
0.0
 40
0.0
 40
0.0
 40
1.0
 40
1.0
 40
1.0
 40
1.0
 10
-19.984755667169722
 20
74.313747209702797
 30
0.0
 10
-20.062676027169715
 20
74.313747209702797
 30
0.0
 10
-20.124191187169728
 20
74.375268569702783
 30
0.0
 10
-20.124191187169728
 20
74.453203809702785
 30
0.0
  0
LWPOLYLINE
  5
48
  8
0
 62
7
420
16777215
370
-1
  6
ByLayer
100
AcDbEntity
100
AcDbPolyline
 90
2
 70
0
 10
78.932369332830291
 20
74.313747209702797
 10
-19.984755667169722
 20
74.313747209702797
  0
SPLINE
  5
49
  8
0
 62
7
420
16777215
370
-1
  6
ByLayer
100
AcDbEntity
100
AcDbSpline
 70
8
 71
3
 72
8
 73
4
 74
0
 40
0.0
 40
0.0
 40
0.0
 40
0.0
 40
1.0
 40
1.0
 40
1.0
 40
1.0
 10
-20.124191187169728
 20
143.61726536970281
 30
0.0
 10
-20.124191187169728
 20
143.69380064970278
 30
0.0
 10
-20.062676027169715
 20
143.75668724970279
 30
0.0
 10
-19.984755667169722
 20
143.75668724970279
 30
0.0
  0
LWPOLYLINE
  5
4A
  8
0
 62
7
420
16777215
370
-1
  6
ByLayer
100
AcDbEntity
100
AcDbPolyline
 90
2
 70
0
 10
-20.124191187169728
 20
74.453203809702785
 10
-20.124191187169728
 20
143.61726536970281
  0
LWPOLYLINE
  5
4B
  8
0
 62
7
420
16777215
370
-1
  6
ByLayer
100
AcDbEntity
100
AcDbPolyline
 90
2
 70
0
 10
-19.984755667169722
 20
143.75668724970279
 10
-19.984755667169722
 20
143.75668724970279
  0
SPLINE
  5
4C
  8
0
 62
7
420
16777215
370
-1
  6
ByLayer
100
AcDbEntity
100
AcDbSpline
 70
8
 71
3
 72
8
 73
4
 74
0
 40
0.0
 40
0.0
 40
0.0
 40
0.0
 40
1.0
 40
1.0
 40
1.0
 40
1.0
 10
-20.124191187169728
 20
68.260005209702783
 30
0.0
 10
-20.124191187169728
 20
68.260005209702783
 30
0.0
 10
-20.125591147169715
 20
68.251956369702782
 30
0.0
 10
-20.124191187169728
 20
68.251956369702782
 30
0.0
  0
LWPOLYLINE
  5
4D
  8
0
 62
7
420
16777215
370
-1
  6
ByLayer
100
AcDbEntity
100
AcDbPolyline
 90
2
 70
0
 10
-20.124191187169728
 20
71.226438609702782
 10
-20.124191187169728
 20
68.260005209702783
  0
SPLINE
  5
4E
  8
0
 62
7
420
16777215
370
-1
  6
ByLayer
100
AcDbEntity
100
AcDbSpline
 70
8
 71
3
 72
8
 73
4
 74
0
 40
0.0
 40
0.0
 40
0.0
 40
0.0
 40
1.0
 40
1.0
 40
1.0
 40
1.0
 10
-19.992958267169726
 20
68.251956369702782
 30
0.0
 10
-20.064041267169728
 20
68.251956369702782
 30
0.0
 10
-20.124191187169728
 20
68.20002392970278
 30
0.0
 10
-20.124191187169728
 20
68.128912409702792
 30
0.0
  0
LWPOLYLINE
  5
4F
  8
0
 62
7
420
16777215
370
-1
  6
ByLayer
100
AcDbEntity
100
AcDbPolyline
 90
2
 70
0
 10
-20.124191187169728
 20
68.251956369702782
 10
-19.992958267169726
 20
68.251956369702782
  0
SPLINE
  5
50
  8
0
 62
7
420
16777215
370
-1
  6
ByLayer
100
AcDbEntity
100
AcDbSpline
 70
8
 71
3
 72
8
 73
4
 74
0
 40
0.0
 40
0.0
 40
0.0
 40
0.0
 40
1.0
 40
1.0
 40
1.0
 40
1.0
 10
-20.124191187169728
 20
4.8922232097027916
 30
0.0
 10
-20.124191187169728
 20
4.8211476497027945
 30
0.0
 10
-20.064041267169728
 20
4.7692139697027756
 30
0.0
 10
-19.992958267169726
 20
4.7692139697027756
 30
0.0
  0
LWPOLYLINE
  5
51
  8
0
 62
7
420
16777215
370
-1
  6
ByLayer
100
AcDbEntity
100
AcDbPolyline
 90
2
 70
0
 10
-20.124191187169728
 20
68.128912409702792
 10
-20.124191187169728
 20
4.8922232097027916
  0
SPLINE
  5
52
  8
0
 62
7
420
16777215
370
-1
  6
ByLayer
100
AcDbEntity
100
AcDbSpline
 70
8
 71
3
 72
8
 73
4
 74
0
 40
0.0
 40
0.0
 40
0.0
 40
0.0
 40
1.0
 40
1.0
 40
1.0
 40
1.0
 10
-15.17286622716972
 20
1.7945916097027919
 30
0.0
 10
-15.17146626716972
 20
1.7945916097027919
 30
0.0
 10
-15.164677267169708
 20
1.7945916097027919
 30
0.0
 10
-15.164677267169708
 20
1.7945916097027919
 30
0.0
  0
LWPOLYLINE
  5
53
  8
0
 62
7
420
16777215
370
-1
  6
ByLayer
100
AcDbEntity
100
AcDbPolyline
 90
4
 70
0
 10
-19.992958267169726
 20
4.7692139697027756
 10
-20.124191187169728
 20
4.7692139697027756
 10
-20.124191187169728
 20
1.7945916097027919
 10
-15.17286622716972
 20
1.7945916097027919
  0
SPLINE
  5
54
  8
0
 62
7
420
16777215
370
-1
  6
ByLayer
100
AcDbEntity
100
AcDbSpline
 70
8
 71
3
 72
8
 73
4
 74
0
 40
0.0
 40
0.0
 40
0.0
 40
0.0
 40
1.0
 40
1.0
 40
1.0
 40
1.0
 10
78.947391932830271
 20
4.7692139697027756
 30
0.0
 10
79.018474932830287
 20
4.7692139697027756
 30
0.0
 10
79.070422252830284
 20
4.8211476497027945
 30
0.0
 10
79.070422252830284
 20
4.8922232097027916
 30
0.0
  0
LWPOLYLINE
  5
55
  8
0
 62
7
420
16777215
370
-1
  6
ByLayer
100
AcDbEntity
100
AcDbPolyline
 90
7
 70
0
 10
-15.164677267169708
 20
1.7945916097027919
 10
-15.164677267169708
 20
4.7692139697027756
 10
74.11773329283028
 20
4.7692139697027756
 10
74.11773329283028
 20
1.7945916097027919
 10
79.070422252830284
 20
1.7945916097027919
 10
79.070422252830284
 20
4.7692139697027756
 10
78.947391932830271
 20
4.7692139697027756
  0
SPLINE
  5
56
  8
0
 62
7
420
16777215
370
-1
  6
ByLayer
100
AcDbEntity
100
AcDbSpline
 70
8
 71
3
 72
8
 73
4
 74
0
 40
0.0
 40
0.0
 40
0.0
 40
0.0
 40
1.0
 40
1.0
 40
1.0
 40
1.0
 10
79.070422252830284
 20
68.128912409702792
 30
0.0
 10
79.070422252830284
 20
68.20002392970278
 30
0.0
 10
79.018474932830287
 20
68.251956369702782
 30
0.0
 10
78.947391932830271
 20
68.251956369702782
 30
0.0
  0
LWPOLYLINE
  5
57
  8
0
 62
7
420
16777215
370
-1
  6
ByLayer
100
AcDbEntity
100
AcDbPolyline
 90
2
 70
0
 10
79.070422252830284
 20
4.8922232097027916
 10
79.070422252830284
 20
68.128912409702792
  0
SPLINE
  5
58
  8
0
 62
7
420
16777215
370
-1
  6
ByLayer
100
AcDbEntity
100
AcDbSpline
 70
8
 71
3
 72
8
 73
4
 74
0
 40
0.0
 40
0.0
 40
0.0
 40
0.0
 40
1.0
 40
1.0
 40
1.0
 40
1.0
 10
79.070422252830284
 20
68.251956369702782
 30
0.0
 10
79.071822212830284
 20
68.251956369702782
 30
0.0
 10
79.070422252830284
 20
68.258956169702785
 30
0.0
 10
79.070422252830284
 20
68.260005209702783
 30
0.0
  0
LWPOLYLINE
  5
59
  8
0
 62
7
420
16777215
370
-1
  6
ByLayer
100
AcDbEntity
100
AcDbPolyline
 90
2
 70
0
 10
78.947391932830271
 20
68.251956369702782
 10
79.070422252830284
 20
68.251956369702782
  0
SPLINE
  5
5A
  8
0
 62
7
420
16777215
370
-1
  6
ByLayer
100
AcDbEntity
100
AcDbSpline
 70
8
 71
3
 72
8
 73
4
 74
0
 40
0.0
 40
0.0
 40
0.0
 40
0.0
 40
1.0
 40
1.0
 40
1.0
 40
1.0
 10
-15.172881107169729
 20
68.251956369702782
 30
0.0
 10
-15.171481147169715
 20
68.251956369702782
 30
0.0
 10
-15.164692147169731
 20
68.258956169702785
 30
0.0
 10
-15.164692147169731
 20
68.260005209702783
 30
0.0
  0
LWPOLYLINE
  5
5B
  8
0
 62
7
420
16777215
370
-1
  6
ByLayer
100
AcDbEntity
100
AcDbPolyline
 90
6
 70
0
 10
79.070422252830284
 20
68.260005209702783
 10
79.070422252830284
 20
71.226438609702782
 10
74.11773329283028
 20
71.226438609702782
 10
74.11773329283028
 20
68.260005209702783
 10
74.11773329283028
 20
68.251956369702782
 10
-15.172881107169729
 20
68.251956369702782
  0
SPLINE
  5
5C
  8
0
 62
7
420
16777215
370
-1
  6
ByLayer
100
AcDbEntity
100
AcDbSpline
 70
8
 71
3
 72
8
 73
4
 74
0
 40
0.0
 40
0.0
 40
0.0
 40
0.0
 40
1.0
 40
1.0
 40
1.0
 40
1.0
 10
-15.164692147169731
 20
71.226438609702782
 30
0.0
 10
-15.164692147169731
 20
71.226438609702782
 30
0.0
 10
-15.171515867169717
 20
71.226438609702782
 30
0.0
 10
-15.172881107169729
 20
71.226438609702782
 30
0.0
  0
LWPOLYLINE
  5
5D
  8
0
 62
7
420
16777215
370
-1
  6
ByLayer
100
AcDbEntity
100
AcDbPolyline
 90
2
 70
0
 10
-15.164692147169731
 20
68.260005209702783
 10
-15.164692147169731
 20
71.226438609702782
  0
SPLINE
  5
5E
  8
0
 62
7
420
16777215
370
-1
  6
ByLayer
100
AcDbEntity
100
AcDbSpline
 70
8
 71
3
 72
8
 73
4
 74
0
 40
0.0
 40
0.0
 40
0.0
 40
0.0
 40
1.0
 40
1.0
 40
1.0
 40
1.0
 10
70.883391692830287
 20
86.715297209702783
 30
0.0
 10
70.883391692830287
 20
84.633340929702797
 30
0.0
 10
69.196496932830286
 20
82.94645112970278
 30
0.0
 10
67.114534452830284
 20
82.94645112970278
 30
0.0
  0
SPLINE
  5
5F
  8
0
 62
7
420
16777215
370
-1
  6
ByLayer
100
AcDbEntity
100
AcDbSpline
 70
8
 71
3
 72
8
 73
4
 74
0
 40
0.0
 40
0.0
 40
0.0
 40
0.0
 40
1.0
 40
1.0
 40
1.0
 40
1.0
 10
67.114534452830284
 20
82.94645112970278
 30
0.0
 10
65.032571972830283
 20
82.94645112970278
 30
0.0
 10
63.344309492830284
 20
84.633340929702797
 30
0.0
 10
63.344309492830284
 20
86.715297209702783
 30
0.0
  0
SPLINE
  5
60
  8
0
 62
7
420
16777215
370
-1
  6
ByLayer
100
AcDbEntity
100
AcDbSpline
 70
8
 71
3
 72
8
 73
4
 74
0
 40
0.0
 40
0.0
 40
0.0
 40
0.0
 40
1.0
 40
1.0
 40
1.0
 40
1.0
 10
63.344309492830284
 20
86.715297209702783
 30
0.0
 10
63.344309492830284
 20
88.795888249702799
 30
0.0
 10
65.032571972830283
 20
90.482778049702787
 30
0.0
 10
67.114534452830284
 20
90.482778049702787
 30
0.0
  0
SPLINE
  5
61
  8
0
 62
7
420
16777215
370
-1
  6
ByLayer
100
AcDbEntity
100
AcDbSpline
 70
8
 71
3
 72
8
 73
4
 74
0
 40
0.0
 40
0.0
 40
0.0
 40
0.0
 40
1.0
 40
1.0
 40
1.0
 40
1.0
 10
67.114534452830284
 20
90.482778049702787
 30
0.0
 10
69.196496932830286
 20
90.482778049702787
 30
0.0
 10
70.883391692830287
 20
88.795888249702799
 30
0.0
 10
70.883391692830287
 20
86.715297209702783
 30
0.0
  0
LWPOLYLINE
  5
62
  8
0
 62
7
420
16777215
370
-1
  6
ByLayer
100
AcDbEntity
100
AcDbPolyline
 90
2
 70
0
 10
-15.172881107169729
 20
71.226438609702782
 10
-20.124191187169728
 20
71.226438609702782
  0
SPLINE
  5
63
  8
0
 62
7
420
16777215
370
-1
  6
ByLayer
100
AcDbEntity
100
AcDbSpline
 70
8
 71
3
 72
8
 73
4
 74
0
 40
0.0
 40
0.0
 40
0.0
 40
0.0
 40
1.0
 40
1.0
 40
1.0
 40
1.0
 10
-2.0755063471697213
 20
86.715297209702783
 30
0.0
 10
-2.0755063471697213
 20
83.837751969702794
 30
0.0
 10
-4.4076313871697295
 20
81.506978529702778
 30
0.0
 10
-7.2865617071697102
 20
81.506978529702778
 30
0.0
  0
SPLINE
  5
64
  8
0
 62
7
420
16777215
370
-1
  6
ByLayer
100
AcDbEntity
100
AcDbSpline
 70
8
 71
3
 72
8
 73
4
 74
0
 40
0.0
 40
0.0
 40
0.0
 40
0.0
 40
1.0
 40
1.0
 40
1.0
 40
1.0
 10
-7.2865617071697102
 20
81.506978529702778
 30
0.0
 10
-10.164128027169724
 20
81.506978529702778
 30
0.0
 10
-12.496253067169718
 20
83.837751969702794
 30
0.0
 10
-12.496253067169718
 20
86.715297209702783
 30
0.0
  0
SPLINE
  5
65
  8
0
 62
7
420
16777215
370
-1
  6
ByLayer
100
AcDbEntity
100
AcDbSpline
 70
8
 71
3
 72
8
 73
4
 74
0
 40
0.0
 40
0.0
 40
0.0
 40
0.0
 40
1.0
 40
1.0
 40
1.0
 40
1.0
 10
-12.496253067169718
 20
86.715297209702783
 30
0.0
 10
-12.496253067169718
 20
89.591511929702776
 30
0.0
 10
-10.164128027169724
 20
91.922250649702789
 30
0.0
 10
-7.2865617071697102
 20
91.922250649702789
 30
0.0
  0
SPLINE
  5
66
  8
0
 62
7
420
16777215
370
-1
  6
ByLayer
100
AcDbEntity
100
AcDbSpline
 70
8
 71
3
 72
8
 73
4
 74
0
 40
0.0
 40
0.0
 40
0.0
 40
0.0
 40
1.0
 40
1.0
 40
1.0
 40
1.0
 10
-7.2865617071697102
 20
91.922250649702789
 30
0.0
 10
-4.4076313871697295
 20
91.922250649702789
 30
0.0
 10
-2.0755063471697213
 20
89.591511929702776
 30
0.0
 10
-2.0755063471697213
 20
86.715297209702783
 30
0.0
  0
LWPOLYLINE
  5
67
  8
0
 62
7
420
16777215
370
-1
  6
ByLayer
100
AcDbEntity
100
AcDbPolyline
 90
2
 70
0
 10
70.883391692830287
 20
86.715297209702783
 10
70.883391692830287
 20
86.715297209702783
  0
SPLINE
  5
68
  8
0
 62
7
420
16777215
370
-1
  6
ByLayer
100
AcDbEntity
100
AcDbSpline
 70
8
 71
3
 72
8
 73
4
 74
0
 40
0.0
 40
0.0
 40
0.0
 40
0.0
 40
1.0
 40
1.0
 40
1.0
 40
1.0
 10
17.765330652830272
 20
86.715297209702783
 30
0.0
 10
17.765330652830272
 20
83.837751969702794
 30
0.0
 10
15.431841612830283
 20
81.506978529702778
 30
0.0
 10
12.554277772830275
 20
81.506978529702778
 30
0.0
  0
SPLINE
  5
69
  8
0
 62
7
420
16777215
370
-1
  6
ByLayer
100
AcDbEntity
100
AcDbSpline
 70
8
 71
3
 72
8
 73
4
 74
0
 40
0.0
 40
0.0
 40
0.0
 40
0.0
 40
1.0
 40
1.0
 40
1.0
 40
1.0
 10
12.554277772830275
 20
81.506978529702778
 30
0.0
 10
9.6767114528302898
 20
81.506978529702778
 30
0.0
 10
7.343218692830277
 20
83.837751969702794
 30
0.0
 10
7.343218692830277
 20
86.715297209702783
 30
0.0
  0
SPLINE
  5
6A
  8
0
 62
7
420
16777215
370
-1
  6
ByLayer
100
AcDbEntity
100
AcDbSpline
 70
8
 71
3
 72
8
 73
4
 74
0
 40
0.0
 40
0.0
 40
0.0
 40
0.0
 40
1.0
 40
1.0
 40
1.0
 40
1.0
 10
7.343218692830277
 20
86.715297209702783
 30
0.0
 10
7.343218692830277
 20
89.591511929702776
 30
0.0
 10
9.6767114528302898
 20
91.922250649702789
 30
0.0
 10
12.554277772830275
 20
91.922250649702789
 30
0.0
  0
SPLINE
  5
6B
  8
0
 62
7
420
16777215
370
-1
  6
ByLayer
100
AcDbEntity
100
AcDbSpline
 70
8
 71
3
 72
8
 73
4
 74
0
 40
0.0
 40
0.0
 40
0.0
 40
0.0
 40
1.0
 40
1.0
 40
1.0
 40
1.0
 10
12.554277772830275
 20
91.922250649702789
 30
0.0
 10
15.431841612830283
 20
91.922250649702789
 30
0.0
 10
17.765330652830272
 20
89.591511929702776
 30
0.0
 10
17.765330652830272
 20
86.715297209702783
 30
0.0
  0
LWPOLYLINE
  5
6C
  8
0
 62
7
420
16777215
370
-1
  6
ByLayer
100
AcDbEntity
100
AcDbPolyline
 90
2
 70
0
 10
-2.0755063471697213
 20
86.715297209702783
 10
-2.0755063471697213
 20
86.715297209702783
  0
SPLINE
  5
6D
  8
0
 62
7
420
16777215
370
-1
  6
ByLayer
100
AcDbEntity
100
AcDbSpline
 70
8
 71
3
 72
8
 73
4
 74
0
 40
0.0
 40
0.0
 40
0.0
 40
0.0
 40
1.0
 40
1.0
 40
1.0
 40
1.0
 10
37.60480489283028
 20
86.715297209702783
 30
0.0
 10
37.60480489283028
 20
83.837751969702794
 30
0.0
 10
35.271312132830282
 20
81.506978529702778
 30
0.0
 10
32.393749532830284
 20
81.506978529702778
 30
0.0
  0
SPLINE
  5
6E
  8
0
 62
7
420
16777215
370
-1
  6
ByLayer
100
AcDbEntity
100
AcDbSpline
 70
8
 71
3
 72
8
 73
4
 74
0
 40
0.0
 40
0.0
 40
0.0
 40
0.0
 40
1.0
 40
1.0
 40
1.0
 40
1.0
 10
32.393749532830284
 20
81.506978529702778
 30
0.0
 10
29.516184452830274
 20
81.506978529702778
 30
0.0
 10
27.182691692830282
 20
83.837751969702794
 30
0.0
 10
27.182691692830282
 20
86.715297209702783
 30
0.0
  0
SPLINE
  5
6F
  8
0
 62
7
420
16777215
370
-1
  6
ByLayer
100
AcDbEntity
100
AcDbSpline
 70
8
 71
3
 72
8
 73
4
 74
0
 40
0.0
 40
0.0
 40
0.0
 40
0.0
 40
1.0
 40
1.0
 40
1.0
 40
1.0
 10
27.182691692830282
 20
86.715297209702783
 30
0.0
 10
27.182691692830282
 20
89.591511929702776
 30
0.0
 10
29.516184452830274
 20
91.922250649702789
 30
0.0
 10
32.393749532830284
 20
91.922250649702789
 30
0.0
  0
SPLINE
  5
70
  8
0
 62
7
420
16777215
370
-1
  6
ByLayer
100
AcDbEntity
100
AcDbSpline
 70
8
 71
3
 72
8
 73
4
 74
0
 40
0.0
 40
0.0
 40
0.0
 40
0.0
 40
1.0
 40
1.0
 40
1.0
 40
1.0
 10
32.393749532830284
 20
91.922250649702789
 30
0.0
 10
35.271312132830282
 20
91.922250649702789
 30
0.0
 10
37.60480489283028
 20
89.591511929702776
 30
0.0
 10
37.60480489283028
 20
86.715297209702783
 30
0.0
  0
LWPOLYLINE
  5
71
  8
0
 62
7
420
16777215
370
-1
  6
ByLayer
100
AcDbEntity
100
AcDbPolyline
 90
2
 70
0
 10
17.765330652830272
 20
86.715297209702783
 10
17.765330652830272
 20
86.715297209702783
  0
SPLINE
  5
72
  8
0
 62
7
420
16777215
370
-1
  6
ByLayer
100
AcDbEntity
100
AcDbSpline
 70
8
 71
3
 72
8
 73
4
 74
0
 40
0.0
 40
0.0
 40
0.0
 40
0.0
 40
1.0
 40
1.0
 40
1.0
 40
1.0
 10
7.8449152528302903
 20
96.634367209702788
 30
0.0
 10
7.8449152528302903
 20
93.75815248970278
 30
0.0
 10
5.5114212528302886
 20
91.426048529702783
 30
0.0
 10
2.6338561728302636
 20
91.426048529702783
 30
0.0
  0
SPLINE
  5
73
  8
0
 62
7
420
16777215
370
-1
  6
ByLayer
100
AcDbEntity
100
AcDbSpline
 70
8
 71
3
 72
8
 73
4
 74
0
 40
0.0
 40
0.0
 40
0.0
 40
0.0
 40
1.0
 40
1.0
 40
1.0
 40
1.0
 10
2.6338561728302636
 20
91.426048529702783
 30
0.0
 10
-0.2437064271697125
 20
91.426048529702783
 30
0.0
 10
-2.5771991871697253
 20
93.75815248970278
 30
0.0
 10
-2.5771991871697253
 20
96.634367209702788
 30
0.0
  0
SPLINE
  5
74
  8
0
 62
7
420
16777215
370
-1
  6
ByLayer
100
AcDbEntity
100
AcDbSpline
 70
8
 71
3
 72
8
 73
4
 74
0
 40
0.0
 40
0.0
 40
0.0
 40
0.0
 40
1.0
 40
1.0
 40
1.0
 40
1.0
 10
-2.5771991871697253
 20
96.634367209702788
 30
0.0
 10
-2.5771991871697253
 20
99.510547209702779
 30
0.0
 10
-0.2437064271697125
 20
101.84268588970278
 30
0.0
 10
2.6338561728302636
 20
101.84268588970278
 30
0.0
  0
SPLINE
  5
75
  8
0
 62
7
420
16777215
370
-1
  6
ByLayer
100
AcDbEntity
100
AcDbSpline
 70
8
 71
3
 72
8
 73
4
 74
0
 40
0.0
 40
0.0
 40
0.0
 40
0.0
 40
1.0
 40
1.0
 40
1.0
 40
1.0
 10
2.6338561728302636
 20
101.84268588970278
 30
0.0
 10
5.5114212528302886
 20
101.84268588970278
 30
0.0
 10
7.8449152528302903
 20
99.510547209702779
 30
0.0
 10
7.8449152528302903
 20
96.634367209702788
 30
0.0
  0
LWPOLYLINE
  5
76
  8
0
 62
7
420
16777215
370
-1
  6
ByLayer
100
AcDbEntity
100
AcDbPolyline
 90
2
 70
0
 10
37.60480489283028
 20
86.715297209702783
 10
37.60480489283028
 20
86.715297209702783
  0
SPLINE
  5
77
  8
0
 62
7
420
16777215
370
-1
  6
ByLayer
100
AcDbEntity
100
AcDbSpline
 70
8
 71
3
 72
8
 73
4
 74
0
 40
0.0
 40
0.0
 40
0.0
 40
0.0
 40
1.0
 40
1.0
 40
1.0
 40
1.0
 10
27.684383292830283
 20
96.634367209702788
 30
0.0
 10
27.684383292830283
 20
93.75815248970278
 30
0.0
 10
25.352259492830285
 20
91.426048529702783
 30
0.0
 10
22.473329172830276
 20
91.426048529702783
 30
0.0
  0
SPLINE
  5
78
  8
0
 62
7
420
16777215
370
-1
  6
ByLayer
100
AcDbEntity
100
AcDbSpline
 70
8
 71
3
 72
8
 73
4
 74
0
 40
0.0
 40
0.0
 40
0.0
 40
0.0
 40
1.0
 40
1.0
 40
1.0
 40
1.0
 10
22.473329172830276
 20
91.426048529702783
 30
0.0
 10
19.595762852830291
 20
91.426048529702783
 30
0.0
 10
17.263637812830282
 20
93.75815248970278
 30
0.0
 10
17.263637812830282
 20
96.634367209702788
 30
0.0
  0
SPLINE
  5
79
  8
0
 62
7
420
16777215
370
-1
  6
ByLayer
100
AcDbEntity
100
AcDbSpline
 70
8
 71
3
 72
8
 73
4
 74
0
 40
0.0
 40
0.0
 40
0.0
 40
0.0
 40
1.0
 40
1.0
 40
1.0
 40
1.0
 10
17.263637812830282
 20
96.634367209702788
 30
0.0
 10
17.263637812830282
 20
99.510547209702779
 30
0.0
 10
19.595762852830291
 20
101.84268588970278
 30
0.0
 10
22.473329172830276
 20
101.84268588970278
 30
0.0
  0
SPLINE
  5
7A
  8
0
 62
7
420
16777215
370
-1
  6
ByLayer
100
AcDbEntity
100
AcDbSpline
 70
8
 71
3
 72
8
 73
4
 74
0
 40
0.0
 40
0.0
 40
0.0
 40
0.0
 40
1.0
 40
1.0
 40
1.0
 40
1.0
 10
22.473329172830276
 20
101.84268588970278
 30
0.0
 10
25.352259492830285
 20
101.84268588970278
 30
0.0
 10
27.684383292830283
 20
99.510547209702779
 30
0.0
 10
27.684383292830283
 20
96.634367209702788
 30
0.0
  0
LWPOLYLINE
  5
7B
  8
0
 62
7
420
16777215
370
-1
  6
ByLayer
100
AcDbEntity
100
AcDbPolyline
 90
2
 70
0
 10
7.8449152528302903
 20
96.634367209702788
 10
7.8449152528302903
 20
96.634367209702788
  0
SPLINE
  5
7C
  8
0
 62
7
420
16777215
370
-1
  6
ByLayer
100
AcDbEntity
100
AcDbSpline
 70
8
 71
3
 72
8
 73
4
 74
0
 40
0.0
 40
0.0
 40
0.0
 40
0.0
 40
1.0
 40
1.0
 40
1.0
 40
1.0
 10
-2.0755063471697213
 20
106.55476772970279
 30
0.0
 10
-2.0755063471697213
 20
103.67858772970278
 30
0.0
 10
-4.4076313871697295
 20
101.3464490497028
 30
0.0
 10
-7.2865617071697102
 20
101.3464490497028
 30
0.0
  0
SPLINE
  5
7D
  8
0
 62
7
420
16777215
370
-1
  6
ByLayer
100
AcDbEntity
100
AcDbSpline
 70
8
 71
3
 72
8
 73
4
 74
0
 40
0.0
 40
0.0
 40
0.0
 40
0.0
 40
1.0
 40
1.0
 40
1.0
 40
1.0
 10
-7.2865617071697102
 20
101.3464490497028
 30
0.0
 10
-10.164128027169724
 20
101.3464490497028
 30
0.0
 10
-12.496253067169718
 20
103.67858772970278
 30
0.0
 10
-12.496253067169718
 20
106.55476772970279
 30
0.0
  0
SPLINE
  5
7E
  8
0
 62
7
420
16777215
370
-1
  6
ByLayer
100
AcDbEntity
100
AcDbSpline
 70
8
 71
3
 72
8
 73
4
 74
0
 40
0.0
 40
0.0
 40
0.0
 40
0.0
 40
1.0
 40
1.0
 40
1.0
 40
1.0
 10
-12.496253067169718
 20
106.55476772970279
 30
0.0
 10
-12.496253067169718
 20
109.4309824497028
 30
0.0
 10
-10.164128027169724
 20
111.76308640970278
 30
0.0
 10
-7.2865617071697102
 20
111.76308640970278
 30
0.0
  0
SPLINE
  5
7F
  8
0
 62
7
420
16777215
370
-1
  6
ByLayer
100
AcDbEntity
100
AcDbSpline
 70
8
 71
3
 72
8
 73
4
 74
0
 40
0.0
 40
0.0
 40
0.0
 40
0.0
 40
1.0
 40
1.0
 40
1.0
 40
1.0
 10
-7.2865617071697102
 20
111.76308640970278
 30
0.0
 10
-4.4076313871697295
 20
111.76308640970278
 30
0.0
 10
-2.0755063471697213
 20
109.4309824497028
 30
0.0
 10
-2.0755063471697213
 20
106.55476772970279
 30
0.0
  0
LWPOLYLINE
  5
80
  8
0
 62
7
420
16777215
370
-1
  6
ByLayer
100
AcDbEntity
100
AcDbPolyline
 90
2
 70
0
 10
27.684383292830283
 20
96.634367209702788
 10
27.684383292830283
 20
96.634367209702788
  0
SPLINE
  5
81
  8
0
 62
7
420
16777215
370
-1
  6
ByLayer
100
AcDbEntity
100
AcDbSpline
 70
8
 71
3
 72
8
 73
4
 74
0
 40
0.0
 40
0.0
 40
0.0
 40
0.0
 40
1.0
 40
1.0
 40
1.0
 40
1.0
 10
17.765330652830272
 20
106.55476772970279
 30
0.0
 10
17.765330652830272
 20
103.67858772970278
 30
0.0
 10
15.431841612830283
 20
101.3464490497028
 30
0.0
 10
12.554277772830275
 20
101.3464490497028
 30
0.0
  0
SPLINE
  5
82
  8
0
 62
7
420
16777215
370
-1
  6
ByLayer
100
AcDbEntity
100
AcDbSpline
 70
8
 71
3
 72
8
 73
4
 74
0
 40
0.0
 40
0.0
 40
0.0
 40
0.0
 40
1.0
 40
1.0
 40
1.0
 40
1.0
 10
12.554277772830275
 20
101.3464490497028
 30
0.0
 10
9.6767114528302898
 20
101.3464490497028
 30
0.0
 10
7.343218692830277
 20
103.67858772970278
 30
0.0
 10
7.343218692830277
 20
106.55476772970279
 30
0.0
  0
SPLINE
  5
83
  8
0
 62
7
420
16777215
370
-1
  6
ByLayer
100
AcDbEntity
100
AcDbSpline
 70
8
 71
3
 72
8
 73
4
 74
0
 40
0.0
 40
0.0
 40
0.0
 40
0.0
 40
1.0
 40
1.0
 40
1.0
 40
1.0
 10
7.343218692830277
 20
106.55476772970279
 30
0.0
 10
7.343218692830277
 20
109.4309824497028
 30
0.0
 10
9.6767114528302898
 20
111.76308640970278
 30
0.0
 10
12.554277772830275
 20
111.76308640970278
 30
0.0
  0
SPLINE
  5
84
  8
0
 62
7
420
16777215
370
-1
  6
ByLayer
100
AcDbEntity
100
AcDbSpline
 70
8
 71
3
 72
8
 73
4
 74
0
 40
0.0
 40
0.0
 40
0.0
 40
0.0
 40
1.0
 40
1.0
 40
1.0
 40
1.0
 10
12.554277772830275
 20
111.76308640970278
 30
0.0
 10
15.431841612830283
 20
111.76308640970278
 30
0.0
 10
17.765330652830272
 20
109.4309824497028
 30
0.0
 10
17.765330652830272
 20
106.55476772970279
 30
0.0
  0
LWPOLYLINE
  5
85
  8
0
 62
7
420
16777215
370
-1
  6
ByLayer
100
AcDbEntity
100
AcDbPolyline
 90
2
 70
0
 10
-2.0755063471697213
 20
106.55476772970279
 10
-2.0755063471697213
 20
106.55476772970279
  0
SPLINE
  5
86
  8
0
 62
7
420
16777215
370
-1
  6
ByLayer
100
AcDbEntity
100
AcDbSpline
 70
8
 71
3
 72
8
 73
4
 74
0
 40
0.0
 40
0.0
 40
0.0
 40
0.0
 40
1.0
 40
1.0
 40
1.0
 40
1.0
 10
37.60480489283028
 20
106.55476772970279
 30
0.0
 10
37.60480489283028
 20
103.67858772970278
 30
0.0
 10
35.271312132830282
 20
101.3464490497028
 30
0.0
 10
32.393749532830284
 20
101.3464490497028
 30
0.0
  0
SPLINE
  5
87
  8
0
 62
7
420
16777215
370
-1
  6
ByLayer
100
AcDbEntity
100
AcDbSpline
 70
8
 71
3
 72
8
 73
4
 74
0
 40
0.0
 40
0.0
 40
0.0
 40
0.0
 40
1.0
 40
1.0
 40
1.0
 40
1.0
 10
32.393749532830284
 20
101.3464490497028
 30
0.0
 10
29.516184452830274
 20
101.3464490497028
 30
0.0
 10
27.182691692830282
 20
103.67858772970278
 30
0.0
 10
27.182691692830282
 20
106.55476772970279
 30
0.0
  0
SPLINE
  5
88
  8
0
 62
7
420
16777215
370
-1
  6
ByLayer
100
AcDbEntity
100
AcDbSpline
 70
8
 71
3
 72
8
 73
4
 74
0
 40
0.0
 40
0.0
 40
0.0
 40
0.0
 40
1.0
 40
1.0
 40
1.0
 40
1.0
 10
27.182691692830282
 20
106.55476772970279
 30
0.0
 10
27.182691692830282
 20
109.4309824497028
 30
0.0
 10
29.516184452830274
 20
111.76308640970278
 30
0.0
 10
32.393749532830284
 20
111.76308640970278
 30
0.0
  0
SPLINE
  5
89
  8
0
 62
7
420
16777215
370
-1
  6
ByLayer
100
AcDbEntity
100
AcDbSpline
 70
8
 71
3
 72
8
 73
4
 74
0
 40
0.0
 40
0.0
 40
0.0
 40
0.0
 40
1.0
 40
1.0
 40
1.0
 40
1.0
 10
32.393749532830284
 20
111.76308640970278
 30
0.0
 10
35.271312132830282
 20
111.76308640970278
 30
0.0
 10
37.60480489283028
 20
109.4309824497028
 30
0.0
 10
37.60480489283028
 20
106.55476772970279
 30
0.0
  0
LWPOLYLINE
  5
8A
  8
0
 62
7
420
16777215
370
-1
  6
ByLayer
100
AcDbEntity
100
AcDbPolyline
 90
2
 70
0
 10
17.765330652830272
 20
106.55476772970279
 10
17.765330652830272
 20
106.55476772970279
  0
SPLINE
  5
8B
  8
0
 62
7
420
16777215
370
-1
  6
ByLayer
100
AcDbEntity
100
AcDbSpline
 70
8
 71
3
 72
8
 73
4
 74
0
 40
0.0
 40
0.0
 40
0.0
 40
0.0
 40
1.0
 40
1.0
 40
1.0
 40
1.0
 10
7.8449152528302903
 20
116.47520296970278
 30
0.0
 10
7.8449152528302903
 20
113.59898824970278
 30
0.0
 10
5.5114212528302886
 20
111.26688428970279
 30
0.0
 10
2.6338561728302636
 20
111.26688428970279
 30
0.0
  0
SPLINE
  5
8C
  8
0
 62
7
420
16777215
370
-1
  6
ByLayer
100
AcDbEntity
100
AcDbSpline
 70
8
 71
3
 72
8
 73
4
 74
0
 40
0.0
 40
0.0
 40
0.0
 40
0.0
 40
1.0
 40
1.0
 40
1.0
 40
1.0
 10
2.6338561728302636
 20
111.26688428970279
 30
0.0
 10
-0.2437064271697125
 20
111.26688428970279
 30
0.0
 10
-2.5771991871697253
 20
113.59898824970278
 30
0.0
 10
-2.5771991871697253
 20
116.47520296970278
 30
0.0
  0
SPLINE
  5
8D
  8
0
 62
7
420
16777215
370
-1
  6
ByLayer
100
AcDbEntity
100
AcDbSpline
 70
8
 71
3
 72
8
 73
4
 74
0
 40
0.0
 40
0.0
 40
0.0
 40
0.0
 40
1.0
 40
1.0
 40
1.0
 40
1.0
 10
-2.5771991871697253
 20
116.47520296970278
 30
0.0
 10
-2.5771991871697253
 20
119.35138172970279
 30
0.0
 10
-0.2437064271697125
 20
121.6821564097028
 30
0.0
 10
2.6338561728302636
 20
121.6821564097028
 30
0.0
  0
SPLINE
  5
8E
  8
0
 62
7
420
16777215
370
-1
  6
ByLayer
100
AcDbEntity
100
AcDbSpline
 70
8
 71
3
 72
8
 73
4
 74
0
 40
0.0
 40
0.0
 40
0.0
 40
0.0
 40
1.0
 40
1.0
 40
1.0
 40
1.0
 10
2.6338561728302636
 20
121.6821564097028
 30
0.0
 10
5.5114212528302886
 20
121.6821564097028
 30
0.0
 10
7.8449152528302903
 20
119.35138172970279
 30
0.0
 10
7.8449152528302903
 20
116.47520296970278
 30
0.0
  0
LWPOLYLINE
  5
8F
  8
0
 62
7
420
16777215
370
-1
  6
ByLayer
100
AcDbEntity
100
AcDbPolyline
 90
2
 70
0
 10
37.60480489283028
 20
106.55476772970279
 10
37.60480489283028
 20
106.55476772970279
  0
SPLINE
  5
90
  8
0
 62
7
420
16777215
370
-1
  6
ByLayer
100
AcDbEntity
100
AcDbSpline
 70
8
 71
3
 72
8
 73
4
 74
0
 40
0.0
 40
0.0
 40
0.0
 40
0.0
 40
1.0
 40
1.0
 40
1.0
 40
1.0
 10
27.684383292830283
 20
116.47520296970278
 30
0.0
 10
27.684383292830283
 20
113.59898824970278
 30
0.0
 10
25.352259492830285
 20
111.26688428970279
 30
0.0
 10
22.473329172830276
 20
111.26688428970279
 30
0.0
  0
SPLINE
  5
91
  8
0
 62
7
420
16777215
370
-1
  6
ByLayer
100
AcDbEntity
100
AcDbSpline
 70
8
 71
3
 72
8
 73
4
 74
0
 40
0.0
 40
0.0
 40
0.0
 40
0.0
 40
1.0
 40
1.0
 40
1.0
 40
1.0
 10
22.473329172830276
 20
111.26688428970279
 30
0.0
 10
19.595762852830291
 20
111.26688428970279
 30
0.0
 10
17.263637812830282
 20
113.59898824970278
 30
0.0
 10
17.263637812830282
 20
116.47520296970278
 30
0.0
  0
SPLINE
  5
92
  8
0
 62
7
420
16777215
370
-1
  6
ByLayer
100
AcDbEntity
100
AcDbSpline
 70
8
 71
3
 72
8
 73
4
 74
0
 40
0.0
 40
0.0
 40
0.0
 40
0.0
 40
1.0
 40
1.0
 40
1.0
 40
1.0
 10
17.263637812830282
 20
116.47520296970278
 30
0.0
 10
17.263637812830282
 20
119.35138172970279
 30
0.0
 10
19.595762852830291
 20
121.6821564097028
 30
0.0
 10
22.473329172830276
 20
121.6821564097028
 30
0.0
  0
SPLINE
  5
93
  8
0
 62
7
420
16777215
370
-1
  6
ByLayer
100
AcDbEntity
100
AcDbSpline
 70
8
 71
3
 72
8
 73
4
 74
0
 40
0.0
 40
0.0
 40
0.0
 40
0.0
 40
1.0
 40
1.0
 40
1.0
 40
1.0
 10
22.473329172830276
 20
121.6821564097028
 30
0.0
 10
25.352259492830285
 20
121.6821564097028
 30
0.0
 10
27.684383292830283
 20
119.35138172970279
 30
0.0
 10
27.684383292830283
 20
116.47520296970278
 30
0.0
  0
LWPOLYLINE
  5
94
  8
0
 62
7
420
16777215
370
-1
  6
ByLayer
100
AcDbEntity
100
AcDbPolyline
 90
2
 70
0
 10
7.8449152528302903
 20
116.47520296970278
 10
7.8449152528302903
 20
116.47520296970278
  0
SPLINE
  5
95
  8
0
 62
7
420
16777215
370
-1
  6
ByLayer
100
AcDbEntity
100
AcDbSpline
 70
8
 71
3
 72
8
 73
4
 74
0
 40
0.0
 40
0.0
 40
0.0
 40
0.0
 40
1.0
 40
1.0
 40
1.0
 40
1.0
 10
-2.0755063471697213
 20
131.35513724970275
 30
0.0
 10
-2.0755063471697213
 20
128.47895848970279
 30
0.0
 10
-4.4076313871697295
 20
126.14681856970277
 30
0.0
 10
-7.2865617071697102
 20
126.14681856970277
 30
0.0
  0
SPLINE
  5
96
  8
0
 62
7
420
16777215
370
-1
  6
ByLayer
100
AcDbEntity
100
AcDbSpline
 70
8
 71
3
 72
8
 73
4
 74
0
 40
0.0
 40
0.0
 40
0.0
 40
0.0
 40
1.0
 40
1.0
 40
1.0
 40
1.0
 10
-7.2865617071697102
 20
126.14681856970277
 30
0.0
 10
-10.164128027169724
 20
126.14681856970277
 30
0.0
 10
-12.496253067169718
 20
128.47895848970279
 30
0.0
 10
-12.496253067169718
 20
131.35513724970275
 30
0.0
  0
SPLINE
  5
97
  8
0
 62
7
420
16777215
370
-1
  6
ByLayer
100
AcDbEntity
100
AcDbSpline
 70
8
 71
3
 72
8
 73
4
 74
0
 40
0.0
 40
0.0
 40
0.0
 40
0.0
 40
1.0
 40
1.0
 40
1.0
 40
1.0
 10
-12.496253067169718
 20
131.35513724970275
 30
0.0
 10
-12.496253067169718
 20
134.23135196970279
 30
0.0
 10
-10.164128027169724
 20
136.56209192970277
 30
0.0
 10
-7.2865617071697102
 20
136.56209192970277
 30
0.0
  0
SPLINE
  5
98
  8
0
 62
7
420
16777215
370
-1
  6
ByLayer
100
AcDbEntity
100
AcDbSpline
 70
8
 71
3
 72
8
 73
4
 74
0
 40
0.0
 40
0.0
 40
0.0
 40
0.0
 40
1.0
 40
1.0
 40
1.0
 40
1.0
 10
-7.2865617071697102
 20
136.56209192970277
 30
0.0
 10
-4.4076313871697295
 20
136.56209192970277
 30
0.0
 10
-2.0755063471697213
 20
134.23135196970279
 30
0.0
 10
-2.0755063471697213
 20
131.35513724970275
 30
0.0
  0
LWPOLYLINE
  5
99
  8
0
 62
7
420
16777215
370
-1
  6
ByLayer
100
AcDbEntity
100
AcDbPolyline
 90
2
 70
0
 10
27.684383292830283
 20
116.47520296970278
 10
27.684383292830283
 20
116.47520296970278
  0
SPLINE
  5
9A
  8
0
 62
7
420
16777215
370
-1
  6
ByLayer
100
AcDbEntity
100
AcDbSpline
 70
8
 71
3
 72
8
 73
4
 74
0
 40
0.0
 40
0.0
 40
0.0
 40
0.0
 40
1.0
 40
1.0
 40
1.0
 40
1.0
 10
17.765330652830272
 20
131.35513724970275
 30
0.0
 10
17.765330652830272
 20
128.47895848970279
 30
0.0
 10
15.431841612830283
 20
126.14681856970277
 30
0.0
 10
12.554277772830275
 20
126.14681856970277
 30
0.0
  0
SPLINE
  5
9B
  8
0
 62
7
420
16777215
370
-1
  6
ByLayer
100
AcDbEntity
100
AcDbSpline
 70
8
 71
3
 72
8
 73
4
 74
0
 40
0.0
 40
0.0
 40
0.0
 40
0.0
 40
1.0
 40
1.0
 40
1.0
 40
1.0
 10
12.554277772830275
 20
126.14681856970277
 30
0.0
 10
9.6767114528302898
 20
126.14681856970277
 30
0.0
 10
7.343218692830277
 20
128.47895848970279
 30
0.0
 10
7.343218692830277
 20
131.35513724970275
 30
0.0
  0
SPLINE
  5
9C
  8
0
 62
7
420
16777215
370
-1
  6
ByLayer
100
AcDbEntity
100
AcDbSpline
 70
8
 71
3
 72
8
 73
4
 74
0
 40
0.0
 40
0.0
 40
0.0
 40
0.0
 40
1.0
 40
1.0
 40
1.0
 40
1.0
 10
7.343218692830277
 20
131.35513724970275
 30
0.0
 10
7.343218692830277
 20
134.23135196970279
 30
0.0
 10
9.6767114528302898
 20
136.56209192970277
 30
0.0
 10
12.554277772830275
 20
136.56209192970277
 30
0.0
  0
SPLINE
  5
9D
  8
0
 62
7
420
16777215
370
-1
  6
ByLayer
100
AcDbEntity
100
AcDbSpline
 70
8
 71
3
 72
8
 73
4
 74
0
 40
0.0
 40
0.0
 40
0.0
 40
0.0
 40
1.0
 40
1.0
 40
1.0
 40
1.0
 10
12.554277772830275
 20
136.56209192970277
 30
0.0
 10
15.431841612830283
 20
136.56209192970277
 30
0.0
 10
17.765330652830272
 20
134.23135196970279
 30
0.0
 10
17.765330652830272
 20
131.35513724970275
 30
0.0
  0
LWPOLYLINE
  5
9E
  8
0
 62
7
420
16777215
370
-1
  6
ByLayer
100
AcDbEntity
100
AcDbPolyline
 90
2
 70
0
 10
-2.0755063471697213
 20
131.35513724970275
 10
-2.0755063471697213
 20
131.35513724970275
  0
SPLINE
  5
9F
  8
0
 62
7
420
16777215
370
-1
  6
ByLayer
100
AcDbEntity
100
AcDbSpline
 70
8
 71
3
 72
8
 73
4
 74
0
 40
0.0
 40
0.0
 40
0.0
 40
0.0
 40
1.0
 40
1.0
 40
1.0
 40
1.0
 10
56.003445012830284
 20
86.715297209702783
 30
0.0
 10
56.003445012830284
 20
84.633340929702797
 30
0.0
 10
54.316551492830285
 20
82.94645112970278
 30
0.0
 10
52.234589012830277
 20
82.94645112970278
 30
0.0
  0
SPLINE
  5
A0
  8
0
 62
7
420
16777215
370
-1
  6
ByLayer
100
AcDbEntity
100
AcDbSpline
 70
8
 71
3
 72
8
 73
4
 74
0
 40
0.0
 40
0.0
 40
0.0
 40
0.0
 40
1.0
 40
1.0
 40
1.0
 40
1.0
 10
52.234589012830277
 20
82.94645112970278
 30
0.0
 10
50.15262529283028
 20
82.94645112970278
 30
0.0
 10
48.464362812830281
 20
84.633340929702797
 30
0.0
 10
48.464362812830281
 20
86.715297209702783
 30
0.0
  0
SPLINE
  5
A1
  8
0
 62
7
420
16777215
370
-1
  6
ByLayer
100
AcDbEntity
100
AcDbSpline
 70
8
 71
3
 72
8
 73
4
 74
0
 40
0.0
 40
0.0
 40
0.0
 40
0.0
 40
1.0
 40
1.0
 40
1.0
 40
1.0
 10
48.464362812830281
 20
86.715297209702783
 30
0.0
 10
48.464362812830281
 20
88.795888249702799
 30
0.0
 10
50.15262529283028
 20
90.482778049702787
 30
0.0
 10
52.234589012830277
 20
90.482778049702787
 30
0.0
  0
SPLINE
  5
A2
  8
0
 62
7
420
16777215
370
-1
  6
ByLayer
100
AcDbEntity
100
AcDbSpline
 70
8
 71
3
 72
8
 73
4
 74
0
 40
0.0
 40
0.0
 40
0.0
 40
0.0
 40
1.0
 40
1.0
 40
1.0
 40
1.0
 10
52.234589012830277
 20
90.482778049702787
 30
0.0
 10
54.316551492830285
 20
90.482778049702787
 30
0.0
 10
56.003445012830284
 20
88.795888249702799
 30
0.0
 10
56.003445012830284
 20
86.715297209702783
 30
0.0
  0
LWPOLYLINE
  5
A3
  8
0
 62
7
420
16777215
370
-1
  6
ByLayer
100
AcDbEntity
100
AcDbPolyline
 90
2
 70
0
 10
17.765330652830272
 20
131.35513724970275
 10
17.765330652830272
 20
131.35513724970275
  0
SPLINE
  5
A4
  8
0
 62
7
420
16777215
370
-1
  6
ByLayer
100
AcDbEntity
100
AcDbSpline
 70
8
 71
3
 72
8
 73
4
 74
0
 40
0.0
 40
0.0
 40
0.0
 40
0.0
 40
1.0
 40
1.0
 40
1.0
 40
1.0
 10
63.444102212830288
 20
96.634367209702788
 30
0.0
 10
63.444102212830288
 20
94.553776169702786
 30
0.0
 10
61.755839732830282
 20
92.866885129702794
 30
0.0
 10
59.673877252830287
 20
92.866885129702794
 30
0.0
  0
SPLINE
  5
A5
  8
0
 62
7
420
16777215
370
-1
  6
ByLayer
100
AcDbEntity
100
AcDbSpline
 70
8
 71
3
 72
8
 73
4
 74
0
 40
0.0
 40
0.0
 40
0.0
 40
0.0
 40
1.0
 40
1.0
 40
1.0
 40
1.0
 10
59.673877252830287
 20
92.866885129702794
 30
0.0
 10
57.591914772830279
 20
92.866885129702794
 30
0.0
 10
55.905020012830278
 20
94.553776169702786
 30
0.0
 10
55.905020012830278
 20
96.634367209702788
 30
0.0
  0
SPLINE
  5
A6
  8
0
 62
7
420
16777215
370
-1
  6
ByLayer
100
AcDbEntity
100
AcDbSpline
 70
8
 71
3
 72
8
 73
4
 74
0
 40
0.0
 40
0.0
 40
0.0
 40
0.0
 40
1.0
 40
1.0
 40
1.0
 40
1.0
 10
55.905020012830278
 20
96.634367209702788
 30
0.0
 10
55.905020012830278
 20
98.716322249702785
 30
0.0
 10
57.591914772830279
 20
100.40321328970279
 30
0.0
 10
59.673877252830287
 20
100.40321328970279
 30
0.0
  0
SPLINE
  5
A7
  8
0
 62
7
420
16777215
370
-1
  6
ByLayer
100
AcDbEntity
100
AcDbSpline
 70
8
 71
3
 72
8
 73
4
 74
0
 40
0.0
 40
0.0
 40
0.0
 40
0.0
 40
1.0
 40
1.0
 40
1.0
 40
1.0
 10
59.673877252830287
 20
100.40321328970279
 30
0.0
 10
61.755839732830282
 20
100.40321328970279
 30
0.0
 10
63.444102212830288
 20
98.716322249702785
 30
0.0
 10
63.444102212830288
 20
96.634367209702788
 30
0.0
  0
LWPOLYLINE
  5
A8
  8
0
 62
7
420
16777215
370
-1
  6
ByLayer
100
AcDbEntity
100
AcDbPolyline
 90
2
 70
0
 10
56.003445012830284
 20
86.715297209702783
 10
56.003445012830284
 20
86.715297209702783
  0
SPLINE
  5
A9
  8
0
 62
7
420
16777215
370
-1
  6
ByLayer
100
AcDbEntity
100
AcDbSpline
 70
8
 71
3
 72
8
 73
4
 74
0
 40
0.0
 40
0.0
 40
0.0
 40
0.0
 40
1.0
 40
1.0
 40
1.0
 40
1.0
 10
70.883391692830287
 20
106.55476772970279
 30
0.0
 10
70.883391692830287
 20
104.47417668970279
 30
0.0
 10
69.196496932830286
 20
102.78592040970278
 30
0.0
 10
67.114534452830284
 20
102.78592040970278
 30
0.0
  0
SPLINE
  5
AA
  8
0
 62
7
420
16777215
370
-1
  6
ByLayer
100
AcDbEntity
100
AcDbSpline
 70
8
 71
3
 72
8
 73
4
 74
0
 40
0.0
 40
0.0
 40
0.0
 40
0.0
 40
1.0
 40
1.0
 40
1.0
 40
1.0
 10
67.114534452830284
 20
102.78592040970278
 30
0.0
 10
65.032571972830283
 20
102.78592040970278
 30
0.0
 10
63.344309492830284
 20
104.47417668970279
 30
0.0
 10
63.344309492830284
 20
106.55476772970279
 30
0.0
  0
SPLINE
  5
AB
  8
0
 62
7
420
16777215
370
-1
  6
ByLayer
100
AcDbEntity
100
AcDbSpline
 70
8
 71
3
 72
8
 73
4
 74
0
 40
0.0
 40
0.0
 40
0.0
 40
0.0
 40
1.0
 40
1.0
 40
1.0
 40
1.0
 10
63.344309492830284
 20
106.55476772970279
 30
0.0
 10
63.344309492830284
 20
108.6353575297028
 30
0.0
 10
65.032571972830283
 20
110.32364852970279
 30
0.0
 10
67.114534452830284
 20
110.32364852970279
 30
0.0
  0
SPLINE
  5
AC
  8
0
 62
7
420
16777215
370
-1
  6
ByLayer
100
AcDbEntity
100
AcDbSpline
 70
8
 71
3
 72
8
 73
4
 74
0
 40
0.0
 40
0.0
 40
0.0
 40
0.0
 40
1.0
 40
1.0
 40
1.0
 40
1.0
 10
67.114534452830284
 20
110.32364852970279
 30
0.0
 10
69.196496932830286
 20
110.32364852970279
 30
0.0
 10
70.883391692830287
 20
108.6353575297028
 30
0.0
 10
70.883391692830287
 20
106.55476772970279
 30
0.0
  0
LWPOLYLINE
  5
AD
  8
0
 62
7
420
16777215
370
-1
  6
ByLayer
100
AcDbEntity
100
AcDbPolyline
 90
2
 70
0
 10
63.444102212830288
 20
96.634367209702788
 10
63.444102212830288
 20
96.634367209702788
  0
SPLINE
  5
AE
  8
0
 62
7
420
16777215
370
-1
  6
ByLayer
100
AcDbEntity
100
AcDbSpline
 70
8
 71
3
 72
8
 73
4
 74
0
 40
0.0
 40
0.0
 40
0.0
 40
0.0
 40
1.0
 40
1.0
 40
1.0
 40
1.0
 10
56.003445012830284
 20
106.55476772970279
 30
0.0
 10
56.003445012830284
 20
104.47417668970279
 30
0.0
 10
54.316551492830285
 20
102.78592040970278
 30
0.0
 10
52.234589012830277
 20
102.78592040970278
 30
0.0
  0
SPLINE
  5
AF
  8
0
 62
7
420
16777215
370
-1
  6
ByLayer
100
AcDbEntity
100
AcDbSpline
 70
8
 71
3
 72
8
 73
4
 74
0
 40
0.0
 40
0.0
 40
0.0
 40
0.0
 40
1.0
 40
1.0
 40
1.0
 40
1.0
 10
52.234589012830277
 20
102.78592040970278
 30
0.0
 10
50.15262529283028
 20
102.78592040970278
 30
0.0
 10
48.464362812830281
 20
104.47417668970279
 30
0.0
 10
48.464362812830281
 20
106.55476772970279
 30
0.0
  0
SPLINE
  5
B0
  8
0
 62
7
420
16777215
370
-1
  6
ByLayer
100
AcDbEntity
100
AcDbSpline
 70
8
 71
3
 72
8
 73
4
 74
0
 40
0.0
 40
0.0
 40
0.0
 40
0.0
 40
1.0
 40
1.0
 40
1.0
 40
1.0
 10
48.464362812830281
 20
106.55476772970279
 30
0.0
 10
48.464362812830281
 20
108.6353575297028
 30
0.0
 10
50.15262529283028
 20
110.32364852970279
 30
0.0
 10
52.234589012830277
 20
110.32364852970279
 30
0.0
  0
SPLINE
  5
B1
  8
0
 62
7
420
16777215
370
-1
  6
ByLayer
100
AcDbEntity
100
AcDbSpline
 70
8
 71
3
 72
8
 73
4
 74
0
 40
0.0
 40
0.0
 40
0.0
 40
0.0
 40
1.0
 40
1.0
 40
1.0
 40
1.0
 10
52.234589012830277
 20
110.32364852970279
 30
0.0
 10
54.316551492830285
 20
110.32364852970279
 30
0.0
 10
56.003445012830284
 20
108.6353575297028
 30
0.0
 10
56.003445012830284
 20
106.55476772970279
 30
0.0
  0
LWPOLYLINE
  5
B2
  8
0
 62
7
420
16777215
370
-1
  6
ByLayer
100
AcDbEntity
100
AcDbPolyline
 90
2
 70
0
 10
70.883391692830287
 20
106.55476772970279
 10
70.883391692830287
 20
106.55476772970279
  0
SPLINE
  5
B3
  8
0
 62
7
420
16777215
370
-1
  6
ByLayer
100
AcDbEntity
100
AcDbSpline
 70
8
 71
3
 72
8
 73
4
 74
0
 40
0.0
 40
0.0
 40
0.0
 40
0.0
 40
1.0
 40
1.0
 40
1.0
 40
1.0
 10
63.444102212830288
 20
116.47520296970278
 30
0.0
 10
63.444102212830288
 20
114.39324668970281
 30
0.0
 10
61.755839732830282
 20
112.70635564970279
 30
0.0
 10
59.673877252830287
 20
112.70635564970279
 30
0.0
  0
SPLINE
  5
B4
  8
0
 62
7
420
16777215
370
-1
  6
ByLayer
100
AcDbEntity
100
AcDbSpline
 70
8
 71
3
 72
8
 73
4
 74
0
 40
0.0
 40
0.0
 40
0.0
 40
0.0
 40
1.0
 40
1.0
 40
1.0
 40
1.0
 10
59.673877252830287
 20
112.70635564970279
 30
0.0
 10
57.591914772830279
 20
112.70635564970279
 30
0.0
 10
55.905020012830278
 20
114.39324668970281
 30
0.0
 10
55.905020012830278
 20
116.47520296970278
 30
0.0
  0
SPLINE
  5
B5
  8
0
 62
7
420
16777215
370
-1
  6
ByLayer
100
AcDbEntity
100
AcDbSpline
 70
8
 71
3
 72
8
 73
4
 74
0
 40
0.0
 40
0.0
 40
0.0
 40
0.0
 40
1.0
 40
1.0
 40
1.0
 40
1.0
 10
55.905020012830278
 20
116.47520296970278
 30
0.0
 10
55.905020012830278
 20
118.55579276970279
 30
0.0
 10
57.591914772830279
 20
120.2426838097028
 30
0.0
 10
59.673877252830287
 20
120.2426838097028
 30
0.0
  0
SPLINE
  5
B6
  8
0
 62
7
420
16777215
370
-1
  6
ByLayer
100
AcDbEntity
100
AcDbSpline
 70
8
 71
3
 72
8
 73
4
 74
0
 40
0.0
 40
0.0
 40
0.0
 40
0.0
 40
1.0
 40
1.0
 40
1.0
 40
1.0
 10
59.673877252830287
 20
120.2426838097028
 30
0.0
 10
61.755839732830282
 20
120.2426838097028
 30
0.0
 10
63.444102212830288
 20
118.55579276970279
 30
0.0
 10
63.444102212830288
 20
116.47520296970278
 30
0.0
  0
LWPOLYLINE
  5
B7
  8
0
 62
7
420
16777215
370
-1
  6
ByLayer
100
AcDbEntity
100
AcDbPolyline
 90
2
 70
0
 10
56.003445012830284
 20
106.55476772970279
 10
56.003445012830284
 20
106.55476772970279
  0
SPLINE
  5
B8
  8
0
 62
7
420
16777215
370
-1
  6
ByLayer
100
AcDbEntity
100
AcDbSpline
 70
8
 71
3
 72
8
 73
4
 74
0
 40
0.0
 40
0.0
 40
0.0
 40
0.0
 40
1.0
 40
1.0
 40
1.0
 40
1.0
 10
71.44386549283027
 20
131.35513724970275
 30
0.0
 10
71.44386549283027
 20
129.27318220970278
 30
0.0
 10
69.755603012830278
 20
127.58629116970278
 30
0.0
 10
67.673644252830286
 20
127.58629116970278
 30
0.0
  0
SPLINE
  5
B9
  8
0
 62
7
420
16777215
370
-1
  6
ByLayer
100
AcDbEntity
100
AcDbSpline
 70
8
 71
3
 72
8
 73
4
 74
0
 40
0.0
 40
0.0
 40
0.0
 40
0.0
 40
1.0
 40
1.0
 40
1.0
 40
1.0
 10
67.673644252830286
 20
127.58629116970278
 30
0.0
 10
65.59168177283027
 20
127.58629116970278
 30
0.0
 10
63.904783292830281
 20
129.27318220970278
 30
0.0
 10
63.904783292830281
 20
131.35513724970275
 30
0.0
  0
SPLINE
  5
BA
  8
0
 62
7
420
16777215
370
-1
  6
ByLayer
100
AcDbEntity
100
AcDbSpline
 70
8
 71
3
 72
8
 73
4
 74
0
 40
0.0
 40
0.0
 40
0.0
 40
0.0
 40
1.0
 40
1.0
 40
1.0
 40
1.0
 10
63.904783292830281
 20
131.35513724970275
 30
0.0
 10
63.904783292830281
 20
133.43572828970278
 30
0.0
 10
65.59168177283027
 20
135.12261932970279
 30
0.0
 10
67.673644252830286
 20
135.12261932970279
 30
0.0
  0
SPLINE
  5
BB
  8
0
 62
7
420
16777215
370
-1
  6
ByLayer
100
AcDbEntity
100
AcDbSpline
 70
8
 71
3
 72
8
 73
4
 74
0
 40
0.0
 40
0.0
 40
0.0
 40
0.0
 40
1.0
 40
1.0
 40
1.0
 40
1.0
 10
67.673644252830286
 20
135.12261932970279
 30
0.0
 10
69.755603012830278
 20
135.12261932970279
 30
0.0
 10
71.44386549283027
 20
133.43572828970278
 30
0.0
 10
71.44386549283027
 20
131.35513724970275
 30
0.0
  0
LWPOLYLINE
  5
BC
  8
0
 62
7
420
16777215
370
-1
  6
ByLayer
100
AcDbEntity
100
AcDbPolyline
 90
2
 70
0
 10
63.444102212830288
 20
116.47520296970278
 10
63.444102212830288
 20
116.47520296970278
  0
SPLINE
  5
BD
  8
0
 62
7
420
16777215
370
-1
  6
ByLayer
100
AcDbEntity
100
AcDbSpline
 70
8
 71
3
 72
8
 73
4
 74
0
 40
0.0
 40
0.0
 40
0.0
 40
0.0
 40
1.0
 40
1.0
 40
1.0
 40
1.0
 10
56.563920052830284
 20
131.35513724970275
 30
0.0
 10
56.563920052830284
 20
129.27318220970278
 30
0.0
 10
54.875657572830278
 20
127.58629116970278
 30
0.0
 10
52.793695092830283
 20
127.58629116970278
 30
0.0
  0
SPLINE
  5
BE
  8
0
 62
7
420
16777215
370
-1
  6
ByLayer
100
AcDbEntity
100
AcDbSpline
 70
8
 71
3
 72
8
 73
4
 74
0
 40
0.0
 40
0.0
 40
0.0
 40
0.0
 40
1.0
 40
1.0
 40
1.0
 40
1.0
 10
52.793695092830283
 20
127.58629116970278
 30
0.0
 10
50.711736332830277
 20
127.58629116970278
 30
0.0
 10
49.024837852830274
 20
129.27318220970278
 30
0.0
 10
49.024837852830274
 20
131.35513724970275
 30
0.0
  0
SPLINE
  5
BF
  8
0
 62
7
420
16777215
370
-1
  6
ByLayer
100
AcDbEntity
100
AcDbSpline
 70
8
 71
3
 72
8
 73
4
 74
0
 40
0.0
 40
0.0
 40
0.0
 40
0.0
 40
1.0
 40
1.0
 40
1.0
 40
1.0
 10
49.024837852830274
 20
131.35513724970275
 30
0.0
 10
49.024837852830274
 20
133.43572828970278
 30
0.0
 10
50.711736332830277
 20
135.12261932970279
 30
0.0
 10
52.793695092830283
 20
135.12261932970279
 30
0.0
  0
SPLINE
  5
C0
  8
0
 62
7
420
16777215
370
-1
  6
ByLayer
100
AcDbEntity
100
AcDbSpline
 70
8
 71
3
 72
8
 73
4
 74
0
 40
0.0
 40
0.0
 40
0.0
 40
0.0
 40
1.0
 40
1.0
 40
1.0
 40
1.0
 10
52.793695092830283
 20
135.12261932970279
 30
0.0
 10
54.875657572830278
 20
135.12261932970279
 30
0.0
 10
56.563920052830284
 20
133.43572828970278
 30
0.0
 10
56.563920052830284
 20
131.35513724970275
 30
0.0
  0
LWPOLYLINE
  5
C1
  8
0
 62
7
420
16777215
370
-1
  6
ByLayer
100
AcDbEntity
100
AcDbPolyline
 90
2
 70
0
 10
71.44386549283027
 20
131.35513724970275
 10
71.44386549283027
 20
131.35513724970275
  0
SPLINE
  5
C2
  8
0
 62
7
420
16777215
370
-1
  6
ByLayer
100
AcDbEntity
100
AcDbSpline
 70
8
 71
3
 72
8
 73
4
 74
0
 40
0.0
 40
0.0
 40
0.0
 40
0.0
 40
1.0
 40
1.0
 40
1.0
 40
1.0
 10
48.56415677283028
 20
96.634367209702788
 30
0.0
 10
48.56415677283028
 20
94.553776169702786
 30
0.0
 10
46.875894292830274
 20
92.866885129702794
 30
0.0
 10
44.79393181283028
 20
92.866885129702794
 30
0.0
  0
SPLINE
  5
C3
  8
0
 62
7
420
16777215
370
-1
  6
ByLayer
100
AcDbEntity
100
AcDbSpline
 70
8
 71
3
 72
8
 73
4
 74
0
 40
0.0
 40
0.0
 40
0.0
 40
0.0
 40
1.0
 40
1.0
 40
1.0
 40
1.0
 10
44.79393181283028
 20
92.866885129702794
 30
0.0
 10
42.711969332830279
 20
92.866885129702794
 30
0.0
 10
41.025074572830285
 20
94.553776169702786
 30
0.0
 10
41.025074572830285
 20
96.634367209702788
 30
0.0
  0
SPLINE
  5
C4
  8
0
 62
7
420
16777215
370
-1
  6
ByLayer
100
AcDbEntity
100
AcDbSpline
 70
8
 71
3
 72
8
 73
4
 74
0
 40
0.0
 40
0.0
 40
0.0
 40
0.0
 40
1.0
 40
1.0
 40
1.0
 40
1.0
 10
41.025074572830285
 20
96.634367209702788
 30
0.0
 10
41.025074572830285
 20
98.716322249702785
 30
0.0
 10
42.711969332830279
 20
100.40321328970279
 30
0.0
 10
44.79393181283028
 20
100.40321328970279
 30
0.0
  0
SPLINE
  5
C5
  8
0
 62
7
420
16777215
370
-1
  6
ByLayer
100
AcDbEntity
100
AcDbSpline
 70
8
 71
3
 72
8
 73
4
 74
0
 40
0.0
 40
0.0
 40
0.0
 40
0.0
 40
1.0
 40
1.0
 40
1.0
 40
1.0
 10
44.79393181283028
 20
100.40321328970279
 30
0.0
 10
46.875894292830274
 20
100.40321328970279
 30
0.0
 10
48.56415677283028
 20
98.716322249702785
 30
0.0
 10
48.56415677283028
 20
96.634367209702788
 30
0.0
  0
LWPOLYLINE
  5
C6
  8
0
 62
7
420
16777215
370
-1
  6
ByLayer
100
AcDbEntity
100
AcDbPolyline
 90
2
 70
0
 10
56.563920052830284
 20
131.35513724970275
 10
56.563920052830284
 20
131.35513724970275
  0
SPLINE
  5
C7
  8
0
 62
7
420
16777215
370
-1
  6
ByLayer
100
AcDbEntity
100
AcDbSpline
 70
8
 71
3
 72
8
 73
4
 74
0
 40
0.0
 40
0.0
 40
0.0
 40
0.0
 40
1.0
 40
1.0
 40
1.0
 40
1.0
 10
48.56415677283028
 20
116.47520296970278
 30
0.0
 10
48.56415677283028
 20
114.39324668970281
 30
0.0
 10
46.875894292830274
 20
112.70635564970279
 30
0.0
 10
44.79393181283028
 20
112.70635564970279
 30
0.0
  0
SPLINE
  5
C8
  8
0
 62
7
420
16777215
370
-1
  6
ByLayer
100
AcDbEntity
100
AcDbSpline
 70
8
 71
3
 72
8
 73
4
 74
0
 40
0.0
 40
0.0
 40
0.0
 40
0.0
 40
1.0
 40
1.0
 40
1.0
 40
1.0
 10
44.79393181283028
 20
112.70635564970279
 30
0.0
 10
42.711969332830279
 20
112.70635564970279
 30
0.0
 10
41.025074572830285
 20
114.39324668970281
 30
0.0
 10
41.025074572830285
 20
116.47520296970278
 30
0.0
  0
SPLINE
  5
C9
  8
0
 62
7
420
16777215
370
-1
  6
ByLayer
100
AcDbEntity
100
AcDbSpline
 70
8
 71
3
 72
8
 73
4
 74
0
 40
0.0
 40
0.0
 40
0.0
 40
0.0
 40
1.0
 40
1.0
 40
1.0
 40
1.0
 10
41.025074572830285
 20
116.47520296970278
 30
0.0
 10
41.025074572830285
 20
118.55579276970279
 30
0.0
 10
42.711969332830279
 20
120.2426838097028
 30
0.0
 10
44.79393181283028
 20
120.2426838097028
 30
0.0
  0
SPLINE
  5
CA
  8
0
 62
7
420
16777215
370
-1
  6
ByLayer
100
AcDbEntity
100
AcDbSpline
 70
8
 71
3
 72
8
 73
4
 74
0
 40
0.0
 40
0.0
 40
0.0
 40
0.0
 40
1.0
 40
1.0
 40
1.0
 40
1.0
 10
44.79393181283028
 20
120.2426838097028
 30
0.0
 10
46.875894292830274
 20
120.2426838097028
 30
0.0
 10
48.56415677283028
 20
118.55579276970279
 30
0.0
 10
48.56415677283028
 20
116.47520296970278
 30
0.0
  0
LWPOLYLINE
  5
CB
  8
0
 62
7
420
16777215
370
-1
  6
ByLayer
100
AcDbEntity
100
AcDbPolyline
 90
2
 70
0
 10
48.56415677283028
 20
96.634367209702788
 10
48.56415677283028
 20
96.634367209702788
  0
SPLINE
  5
CC
  8
0
 62
7
420
16777215
370
-1
  6
ByLayer
100
AcDbEntity
100
AcDbSpline
 70
8
 71
3
 72
8
 73
4
 74
0
 40
0.0
 40
0.0
 40
0.0
 40
0.0
 40
1.0
 40
1.0
 40
1.0
 40
1.0
 10
41.683974612830283
 20
131.35513724970275
 30
0.0
 10
41.683974612830283
 20
129.27318220970278
 30
0.0
 10
39.995712132830285
 20
127.58629116970278
 30
0.0
 10
37.913749652830276
 20
127.58629116970278
 30
0.0
  0
SPLINE
  5
CD
  8
0
 62
7
420
16777215
370
-1
  6
ByLayer
100
AcDbEntity
100
AcDbSpline
 70
8
 71
3
 72
8
 73
4
 74
0
 40
0.0
 40
0.0
 40
0.0
 40
0.0
 40
1.0
 40
1.0
 40
1.0
 40
1.0
 10
37.913749652830276
 20
127.58629116970278
 30
0.0
 10
35.831787172830282
 20
127.58629116970278
 30
0.0
 10
34.144892412830281
 20
129.27318220970278
 30
0.0
 10
34.144892412830281
 20
131.35513724970275
 30
0.0
  0
SPLINE
  5
CE
  8
0
 62
7
420
16777215
370
-1
  6
ByLayer
100
AcDbEntity
100
AcDbSpline
 70
8
 71
3
 72
8
 73
4
 74
0
 40
0.0
 40
0.0
 40
0.0
 40
0.0
 40
1.0
 40
1.0
 40
1.0
 40
1.0
 10
34.144892412830281
 20
131.35513724970275
 30
0.0
 10
34.144892412830281
 20
133.43572828970278
 30
0.0
 10
35.831787172830282
 20
135.12261932970279
 30
0.0
 10
37.913749652830276
 20
135.12261932970279
 30
0.0
  0
SPLINE
  5
CF
  8
0
 62
7
420
16777215
370
-1
  6
ByLayer
100
AcDbEntity
100
AcDbSpline
 70
8
 71
3
 72
8
 73
4
 74
0
 40
0.0
 40
0.0
 40
0.0
 40
0.0
 40
1.0
 40
1.0
 40
1.0
 40
1.0
 10
37.913749652830276
 20
135.12261932970279
 30
0.0
 10
39.995712132830285
 20
135.12261932970279
 30
0.0
 10
41.683974612830283
 20
133.43572828970278
 30
0.0
 10
41.683974612830283
 20
131.35513724970275
 30
0.0
  0
LWPOLYLINE
  5
D0
  8
0
 62
7
420
16777215
370
-1
  6
ByLayer
100
AcDbEntity
100
AcDbPolyline
 90
2
 70
0
 10
48.56415677283028
 20
116.47520296970278
 10
48.56415677283028
 20
116.47520296970278
  0
SPLINE
  5
D1
  8
0
 62
7
420
16777215
370
-1
  6
ByLayer
100
AcDbEntity
100
AcDbSpline
 70
8
 71
3
 72
8
 73
4
 74
0
 40
0.0
 40
0.0
 40
0.0
 40
0.0
 40
1.0
 40
1.0
 40
1.0
 40
1.0
 10
47.519756852830277
 20
43.944918369702776
 30
0.0
 10
47.519756852830277
 20
42.438464689702784
 30
0.0
 10
46.299012812830277
 20
41.216385169702789
 30
0.0
 10
44.79393181283028
 20
41.216385169702789
 30
0.0
  0
SPLINE
  5
D2
  8
0
 62
7
420
16777215
370
-1
  6
ByLayer
100
AcDbEntity
100
AcDbSpline
 70
8
 71
3
 72
8
 73
4
 74
0
 40
0.0
 40
0.0
 40
0.0
 40
0.0
 40
1.0
 40
1.0
 40
1.0
 40
1.0
 10
44.79393181283028
 20
41.216385169702789
 30
0.0
 10
43.287481852830275
 20
41.216385169702789
 30
0.0
 10
42.066737812830276
 20
42.438464689702784
 30
0.0
 10
42.066737812830276
 20
43.944918369702776
 30
0.0
  0
SPLINE
  5
D3
  8
0
 62
7
420
16777215
370
-1
  6
ByLayer
100
AcDbEntity
100
AcDbSpline
 70
8
 71
3
 72
8
 73
4
 74
0
 40
0.0
 40
0.0
 40
0.0
 40
0.0
 40
1.0
 40
1.0
 40
1.0
 40
1.0
 10
42.066737812830276
 20
43.944918369702776
 30
0.0
 10
42.066737812830276
 20
45.451372049702798
 30
0.0
 10
43.287481852830275
 20
46.673487529702783
 30
0.0
 10
44.79393181283028
 20
46.673487529702783
 30
0.0
  0
SPLINE
  5
D4
  8
0
 62
7
420
16777215
370
-1
  6
ByLayer
100
AcDbEntity
100
AcDbSpline
 70
8
 71
3
 72
8
 73
4
 74
0
 40
0.0
 40
0.0
 40
0.0
 40
0.0
 40
1.0
 40
1.0
 40
1.0
 40
1.0
 10
44.79393181283028
 20
46.673487529702783
 30
0.0
 10
46.299012812830277
 20
46.673487529702783
 30
0.0
 10
47.519756852830277
 20
45.451372049702798
 30
0.0
 10
47.519756852830277
 20
43.944918369702776
 30
0.0
  0
LWPOLYLINE
  5
D5
  8
0
 62
7
420
16777215
370
-1
  6
ByLayer
100
AcDbEntity
100
AcDbPolyline
 90
2
 70
0
 10
41.683974612830283
 20
131.35513724970275
 10
41.683974612830283
 20
131.35513724970275
  0
SPLINE
  5
D6
  8
0
 62
7
420
16777215
370
-1
  6
ByLayer
100
AcDbEntity
100
AcDbSpline
 70
8
 71
3
 72
8
 73
4
 74
0
 40
0.0
 40
0.0
 40
0.0
 40
0.0
 40
1.0
 40
1.0
 40
1.0
 40
1.0
 10
62.399702292830284
 20
43.944918369702776
 30
0.0
 10
62.399702292830284
 20
42.438464689702784
 30
0.0
 10
61.17895949283028
 20
41.216385169702789
 30
0.0
 10
59.673877252830287
 20
41.216385169702789
 30
0.0
  0
SPLINE
  5
D7
  8
0
 62
7
420
16777215
370
-1
  6
ByLayer
100
AcDbEntity
100
AcDbSpline
 70
8
 71
3
 72
8
 73
4
 74
0
 40
0.0
 40
0.0
 40
0.0
 40
0.0
 40
1.0
 40
1.0
 40
1.0
 40
1.0
 10
59.673877252830287
 20
41.216385169702789
 30
0.0
 10
58.167427292830283
 20
41.216385169702789
 30
0.0
 10
56.946684492830279
 20
42.438464689702784
 30
0.0
 10
56.946684492830279
 20
43.944918369702776
 30
0.0
  0
SPLINE
  5
D8
  8
0
 62
7
420
16777215
370
-1
  6
ByLayer
100
AcDbEntity
100
AcDbSpline
 70
8
 71
3
 72
8
 73
4
 74
0
 40
0.0
 40
0.0
 40
0.0
 40
0.0
 40
1.0
 40
1.0
 40
1.0
 40
1.0
 10
56.946684492830279
 20
43.944918369702776
 30
0.0
 10
56.946684492830279
 20
45.451372049702798
 30
0.0
 10
58.167427292830283
 20
46.673487529702783
 30
0.0
 10
59.673877252830287
 20
46.673487529702783
 30
0.0
  0
SPLINE
  5
D9
  8
0
 62
7
420
16777215
370
-1
  6
ByLayer
100
AcDbEntity
100
AcDbSpline
 70
8
 71
3
 72
8
 73
4
 74
0
 40
0.0
 40
0.0
 40
0.0
 40
0.0
 40
1.0
 40
1.0
 40
1.0
 40
1.0
 10
59.673877252830287
 20
46.673487529702783
 30
0.0
 10
61.17895949283028
 20
46.673487529702783
 30
0.0
 10
62.399702292830284
 20
45.451372049702798
 30
0.0
 10
62.399702292830284
 20
43.944918369702776
 30
0.0
  0
LWPOLYLINE
  5
DA
  8
0
 62
7
420
16777215
370
-1
  6
ByLayer
100
AcDbEntity
100
AcDbPolyline
 90
2
 70
0
 10
47.519756852830277
 20
43.944918369702776
 10
47.519756852830277
 20
43.944918369702776
  0
SPLINE
  5
DB
  8
0
 62
7
420
16777215
370
-1
  6
ByLayer
100
AcDbEntity
100
AcDbSpline
 70
8
 71
3
 72
8
 73
4
 74
0
 40
0.0
 40
0.0
 40
0.0
 40
0.0
 40
1.0
 40
1.0
 40
1.0
 40
1.0
 10
69.838994252830275
 20
34.024519089702807
 30
0.0
 10
69.838994252830275
 20
32.518065409702785
 30
0.0
 10
68.618251452830265
 20
31.295949929702772
 30
0.0
 10
67.113165492830291
 20
31.295949929702772
 30
0.0
  0
SPLINE
  5
DC
  8
0
 62
7
420
16777215
370
-1
  6
ByLayer
100
AcDbEntity
100
AcDbSpline
 70
8
 71
3
 72
8
 73
4
 74
0
 40
0.0
 40
0.0
 40
0.0
 40
0.0
 40
1.0
 40
1.0
 40
1.0
 40
1.0
 10
67.113165492830291
 20
31.295949929702772
 30
0.0
 10
65.608084492830272
 20
31.295949929702772
 30
0.0
 10
64.38734169283029
 20
32.518065409702785
 30
0.0
 10
64.38734169283029
 20
34.024519089702807
 30
0.0
  0
SPLINE
  5
DD
  8
0
 62
7
420
16777215
370
-1
  6
ByLayer
100
AcDbEntity
100
AcDbSpline
 70
8
 71
3
 72
8
 73
4
 74
0
 40
0.0
 40
0.0
 40
0.0
 40
0.0
 40
1.0
 40
1.0
 40
1.0
 40
1.0
 10
64.38734169283029
 20
34.024519089702807
 30
0.0
 10
64.38734169283029
 20
35.532336769702795
 30
0.0
 10
65.608084492830272
 20
36.753052289702794
 30
0.0
 10
67.113165492830291
 20
36.753052289702794
 30
0.0
  0
SPLINE
  5
DE
  8
0
 62
7
420
16777215
370
-1
  6
ByLayer
100
AcDbEntity
100
AcDbSpline
 70
8
 71
3
 72
8
 73
4
 74
0
 40
0.0
 40
0.0
 40
0.0
 40
0.0
 40
1.0
 40
1.0
 40
1.0
 40
1.0
 10
67.113165492830291
 20
36.753052289702794
 30
0.0
 10
68.618251452830265
 20
36.753052289702794
 30
0.0
 10
69.838994252830275
 20
35.532336769702795
 30
0.0
 10
69.838994252830275
 20
34.024519089702807
 30
0.0
  0
LWPOLYLINE
  5
DF
  8
0
 62
7
420
16777215
370
-1
  6
ByLayer
100
AcDbEntity
100
AcDbPolyline
 90
2
 70
0
 10
62.399702292830284
 20
43.944918369702776
 10
62.399702292830284
 20
43.944918369702776
  0
SPLINE
  5
E0
  8
0
 62
7
420
16777215
370
-1
  6
ByLayer
100
AcDbEntity
100
AcDbSpline
 70
8
 71
3
 72
8
 73
4
 74
0
 40
0.0
 40
0.0
 40
0.0
 40
0.0
 40
1.0
 40
1.0
 40
1.0
 40
1.0
 10
54.95904509283028
 20
34.024519089702807
 30
0.0
 10
54.95904509283028
 20
32.518065409702785
 30
0.0
 10
53.738306012830279
 20
31.295949929702772
 30
0.0
 10
52.233220052830276
 20
31.295949929702772
 30
0.0
  0
SPLINE
  5
E1
  8
0
 62
7
420
16777215
370
-1
  6
ByLayer
100
AcDbEntity
100
AcDbSpline
 70
8
 71
3
 72
8
 73
4
 74
0
 40
0.0
 40
0.0
 40
0.0
 40
0.0
 40
1.0
 40
1.0
 40
1.0
 40
1.0
 10
52.233220052830276
 20
31.295949929702772
 30
0.0
 10
50.728137812830276
 20
31.295949929702772
 30
0.0
 10
49.507395012830273
 20
32.518065409702785
 30
0.0
 10
49.507395012830273
 20
34.024519089702807
 30
0.0
  0
SPLINE
  5
E2
  8
0
 62
7
420
16777215
370
-1
  6
ByLayer
100
AcDbEntity
100
AcDbSpline
 70
8
 71
3
 72
8
 73
4
 74
0
 40
0.0
 40
0.0
 40
0.0
 40
0.0
 40
1.0
 40
1.0
 40
1.0
 40
1.0
 10
49.507395012830273
 20
34.024519089702807
 30
0.0
 10
49.507395012830273
 20
35.532336769702795
 30
0.0
 10
50.728137812830276
 20
36.753052289702794
 30
0.0
 10
52.233220052830276
 20
36.753052289702794
 30
0.0
  0
SPLINE
  5
E3
  8
0
 62
7
420
16777215
370
-1
  6
ByLayer
100
AcDbEntity
100
AcDbSpline
 70
8
 71
3
 72
8
 73
4
 74
0
 40
0.0
 40
0.0
 40
0.0
 40
0.0
 40
1.0
 40
1.0
 40
1.0
 40
1.0
 10
52.233220052830276
 20
36.753052289702794
 30
0.0
 10
53.738306012830279
 20
36.753052289702794
 30
0.0
 10
54.95904509283028
 20
35.532336769702795
 30
0.0
 10
54.95904509283028
 20
34.024519089702807
 30
0.0
  0
LWPOLYLINE
  5
E4
  8
0
 62
7
420
16777215
370
-1
  6
ByLayer
100
AcDbEntity
100
AcDbPolyline
 90
2
 70
0
 10
69.838994252830275
 20
34.024519089702807
 10
69.838994252830275
 20
34.024519089702807
  0
SPLINE
  5
E5
  8
0
 62
7
420
16777215
370
-1
  6
ByLayer
100
AcDbEntity
100
AcDbSpline
 70
8
 71
3
 72
8
 73
4
 74
0
 40
0.0
 40
0.0
 40
0.0
 40
0.0
 40
1.0
 40
1.0
 40
1.0
 40
1.0
 10
62.399702292830284
 20
24.105447849702784
 30
0.0
 10
62.399702292830284
 20
22.597630169702796
 30
0.0
 10
61.17895949283028
 20
21.376879929702795
 30
0.0
 10
59.673877252830287
 20
21.376879929702795
 30
0.0
  0
SPLINE
  5
E6
  8
0
 62
7
420
16777215
370
-1
  6
ByLayer
100
AcDbEntity
100
AcDbSpline
 70
8
 71
3
 72
8
 73
4
 74
0
 40
0.0
 40
0.0
 40
0.0
 40
0.0
 40
1.0
 40
1.0
 40
1.0
 40
1.0
 10
59.673877252830287
 20
21.376879929702795
 30
0.0
 10
58.167427292830283
 20
21.376879929702795
 30
0.0
 10
56.946684492830279
 20
22.597630169702796
 30
0.0
 10
56.946684492830279
 20
24.105447849702784
 30
0.0
  0
SPLINE
  5
E7
  8
0
 62
7
420
16777215
370
-1
  6
ByLayer
100
AcDbEntity
100
AcDbSpline
 70
8
 71
3
 72
8
 73
4
 74
0
 40
0.0
 40
0.0
 40
0.0
 40
0.0
 40
1.0
 40
1.0
 40
1.0
 40
1.0
 10
56.946684492830279
 20
24.105447849702784
 30
0.0
 10
56.946684492830279
 20
25.611901529702777
 30
0.0
 10
58.167427292830283
 20
26.834017009702791
 30
0.0
 10
59.673877252830287
 20
26.834017009702791
 30
0.0
  0
SPLINE
  5
E8
  8
0
 62
7
420
16777215
370
-1
  6
ByLayer
100
AcDbEntity
100
AcDbSpline
 70
8
 71
3
 72
8
 73
4
 74
0
 40
0.0
 40
0.0
 40
0.0
 40
0.0
 40
1.0
 40
1.0
 40
1.0
 40
1.0
 10
59.673877252830287
 20
26.834017009702791
 30
0.0
 10
61.17895949283028
 20
26.834017009702791
 30
0.0
 10
62.399702292830284
 20
25.611901529702777
 30
0.0
 10
62.399702292830284
 20
24.105447849702784
 30
0.0
  0
LWPOLYLINE
  5
E9
  8
0
 62
7
420
16777215
370
-1
  6
ByLayer
100
AcDbEntity
100
AcDbPolyline
 90
2
 70
0
 10
54.95904509283028
 20
34.024519089702807
 10
54.95904509283028
 20
34.024519089702807
  0
SPLINE
  5
EA
  8
0
 62
7
420
16777215
370
-1
  6
ByLayer
100
AcDbEntity
100
AcDbSpline
 70
8
 71
3
 72
8
 73
4
 74
0
 40
0.0
 40
0.0
 40
0.0
 40
0.0
 40
1.0
 40
1.0
 40
1.0
 40
1.0
 10
69.838994252830275
 20
14.185048569702815
 30
0.0
 10
69.838994252830275
 20
12.678594889702794
 30
0.0
 10
68.618251452830265
 20
11.45647940970278
 30
0.0
 10
67.113165492830291
 20
11.45647940970278
 30
0.0
  0
SPLINE
  5
EB
  8
0
 62
7
420
16777215
370
-1
  6
ByLayer
100
AcDbEntity
100
AcDbSpline
 70
8
 71
3
 72
8
 73
4
 74
0
 40
0.0
 40
0.0
 40
0.0
 40
0.0
 40
1.0
 40
1.0
 40
1.0
 40
1.0
 10
67.113165492830291
 20
11.45647940970278
 30
0.0
 10
65.608084492830272
 20
11.45647940970278
 30
0.0
 10
64.38734169283029
 20
12.678594889702794
 30
0.0
 10
64.38734169283029
 20
14.185048569702815
 30
0.0
  0
SPLINE
  5
EC
  8
0
 62
7
420
16777215
370
-1
  6
ByLayer
100
AcDbEntity
100
AcDbSpline
 70
8
 71
3
 72
8
 73
4
 74
0
 40
0.0
 40
0.0
 40
0.0
 40
0.0
 40
1.0
 40
1.0
 40
1.0
 40
1.0
 10
64.38734169283029
 20
14.185048569702815
 30
0.0
 10
64.38734169283029
 20
15.691502249702779
 30
0.0
 10
65.608084492830272
 20
16.913581769702773
 30
0.0
 10
67.113165492830291
 20
16.913581769702773
 30
0.0
  0
SPLINE
  5
ED
  8
0
 62
7
420
16777215
370
-1
  6
ByLayer
100
AcDbEntity
100
AcDbSpline
 70
8
 71
3
 72
8
 73
4
 74
0
 40
0.0
 40
0.0
 40
0.0
 40
0.0
 40
1.0
 40
1.0
 40
1.0
 40
1.0
 10
67.113165492830291
 20
16.913581769702773
 30
0.0
 10
68.618251452830265
 20
16.913581769702773
 30
0.0
 10
69.838994252830275
 20
15.691502249702779
 30
0.0
 10
69.838994252830275
 20
14.185048569702815
 30
0.0
  0
LWPOLYLINE
  5
EE
  8
0
 62
7
420
16777215
370
-1
  6
ByLayer
100
AcDbEntity
100
AcDbPolyline
 90
2
 70
0
 10
62.399702292830284
 20
24.105447849702784
 10
62.399702292830284
 20
24.105447849702784
  0
SPLINE
  5
EF
  8
0
 62
7
420
16777215
370
-1
  6
ByLayer
100
AcDbEntity
100
AcDbSpline
 70
8
 71
3
 72
8
 73
4
 74
0
 40
0.0
 40
0.0
 40
0.0
 40
0.0
 40
1.0
 40
1.0
 40
1.0
 40
1.0
 10
54.95904509283028
 20
14.185048569702815
 30
0.0
 10
54.95904509283028
 20
12.678594889702794
 30
0.0
 10
53.738306012830279
 20
11.45647940970278
 30
0.0
 10
52.233220052830276
 20
11.45647940970278
 30
0.0
  0
SPLINE
  5
F0
  8
0
 62
7
420
16777215
370
-1
  6
ByLayer
100
AcDbEntity
100
AcDbSpline
 70
8
 71
3
 72
8
 73
4
 74
0
 40
0.0
 40
0.0
 40
0.0
 40
0.0
 40
1.0
 40
1.0
 40
1.0
 40
1.0
 10
52.233220052830276
 20
11.45647940970278
 30
0.0
 10
50.728137812830276
 20
11.45647940970278
 30
0.0
 10
49.507395012830273
 20
12.678594889702794
 30
0.0
 10
49.507395012830273
 20
14.185048569702815
 30
0.0
  0
SPLINE
  5
F1
  8
0
 62
7
420
16777215
370
-1
  6
ByLayer
100
AcDbEntity
100
AcDbSpline
 70
8
 71
3
 72
8
 73
4
 74
0
 40
0.0
 40
0.0
 40
0.0
 40
0.0
 40
1.0
 40
1.0
 40
1.0
 40
1.0
 10
49.507395012830273
 20
14.185048569702815
 30
0.0
 10
49.507395012830273
 20
15.691502249702779
 30
0.0
 10
50.728137812830276
 20
16.913581769702773
 30
0.0
 10
52.233220052830276
 20
16.913581769702773
 30
0.0
  0
SPLINE
  5
F2
  8
0
 62
7
420
16777215
370
-1
  6
ByLayer
100
AcDbEntity
100
AcDbSpline
 70
8
 71
3
 72
8
 73
4
 74
0
 40
0.0
 40
0.0
 40
0.0
 40
0.0
 40
1.0
 40
1.0
 40
1.0
 40
1.0
 10
52.233220052830276
 20
16.913581769702773
 30
0.0
 10
53.738306012830279
 20
16.913581769702773
 30
0.0
 10
54.95904509283028
 20
15.691502249702779
 30
0.0
 10
54.95904509283028
 20
14.185048569702815
 30
0.0
  0
LWPOLYLINE
  5
F3
  8
0
 62
7
420
16777215
370
-1
  6
ByLayer
100
AcDbEntity
100
AcDbPolyline
 90
2
 70
0
 10
69.838994252830275
 20
14.185048569702815
 10
69.838994252830275
 20
14.185048569702815
  0
SPLINE
  5
F4
  8
0
 62
7
420
16777215
370
-1
  6
ByLayer
100
AcDbEntity
100
AcDbSpline
 70
8
 71
3
 72
8
 73
4
 74
0
 40
0.0
 40
0.0
 40
0.0
 40
0.0
 40
1.0
 40
1.0
 40
1.0
 40
1.0
 10
47.519756852830277
 20
24.105447849702784
 30
0.0
 10
47.519756852830277
 20
22.597630169702796
 30
0.0
 10
46.299012812830277
 20
21.376879929702795
 30
0.0
 10
44.79393181283028
 20
21.376879929702795
 30
0.0
  0
SPLINE
  5
F5
  8
0
 62
7
420
16777215
370
-1
  6
ByLayer
100
AcDbEntity
100
AcDbSpline
 70
8
 71
3
 72
8
 73
4
 74
0
 40
0.0
 40
0.0
 40
0.0
 40
0.0
 40
1.0
 40
1.0
 40
1.0
 40
1.0
 10
44.79393181283028
 20
21.376879929702795
 30
0.0
 10
43.287481852830275
 20
21.376879929702795
 30
0.0
 10
42.066737812830276
 20
22.597630169702796
 30
0.0
 10
42.066737812830276
 20
24.105447849702784
 30
0.0
  0
SPLINE
  5
F6
  8
0
 62
7
420
16777215
370
-1
  6
ByLayer
100
AcDbEntity
100
AcDbSpline
 70
8
 71
3
 72
8
 73
4
 74
0
 40
0.0
 40
0.0
 40
0.0
 40
0.0
 40
1.0
 40
1.0
 40
1.0
 40
1.0
 10
42.066737812830276
 20
24.105447849702784
 30
0.0
 10
42.066737812830276
 20
25.611901529702777
 30
0.0
 10
43.287481852830275
 20
26.834017009702791
 30
0.0
 10
44.79393181283028
 20
26.834017009702791
 30
0.0
  0
SPLINE
  5
F7
  8
0
 62
7
420
16777215
370
-1
  6
ByLayer
100
AcDbEntity
100
AcDbSpline
 70
8
 71
3
 72
8
 73
4
 74
0
 40
0.0
 40
0.0
 40
0.0
 40
0.0
 40
1.0
 40
1.0
 40
1.0
 40
1.0
 10
44.79393181283028
 20
26.834017009702791
 30
0.0
 10
46.299012812830277
 20
26.834017009702791
 30
0.0
 10
47.519756852830277
 20
25.611901529702777
 30
0.0
 10
47.519756852830277
 20
24.105447849702784
 30
0.0
  0
LWPOLYLINE
  5
F8
  8
0
 62
7
420
16777215
370
-1
  6
ByLayer
100
AcDbEntity
100
AcDbPolyline
 90
2
 70
0
 10
54.95904509283028
 20
14.185048569702815
 10
54.95904509283028
 20
14.185048569702815
  0
SPLINE
  5
F9
  8
0
 62
7
420
16777215
370
-1
  6
ByLayer
100
AcDbEntity
100
AcDbSpline
 70
8
 71
3
 72
8
 73
4
 74
0
 40
0.0
 40
0.0
 40
0.0
 40
0.0
 40
1.0
 40
1.0
 40
1.0
 40
1.0
 10
40.639573452830277
 20
58.824888609702782
 30
0.0
 10
40.639573452830277
 20
57.318434929702789
 30
0.0
 10
39.418834372830283
 20
56.096320689702793
 30
0.0
 10
37.913749652830276
 20
56.096320689702793
 30
0.0
  0
SPLINE
  5
FA
  8
0
 62
7
420
16777215
370
-1
  6
ByLayer
100
AcDbEntity
100
AcDbSpline
 70
8
 71
3
 72
8
 73
4
 74
0
 40
0.0
 40
0.0
 40
0.0
 40
0.0
 40
1.0
 40
1.0
 40
1.0
 40
1.0
 10
37.913749652830276
 20
56.096320689702793
 30
0.0
 10
36.407302172830285
 20
56.096320689702793
 30
0.0
 10
35.186555652830279
 20
57.318434929702789
 30
0.0
 10
35.186555652830279
 20
58.824888609702782
 30
0.0
  0
SPLINE
  5
FB
  8
0
 62
7
420
16777215
370
-1
  6
ByLayer
100
AcDbEntity
100
AcDbSpline
 70
8
 71
3
 72
8
 73
4
 74
0
 40
0.0
 40
0.0
 40
0.0
 40
0.0
 40
1.0
 40
1.0
 40
1.0
 40
1.0
 10
35.186555652830279
 20
58.824888609702782
 30
0.0
 10
35.186555652830279
 20
60.331307569702801
 30
0.0
 10
36.407302172830285
 20
61.553423049702786
 30
0.0
 10
37.913749652830276
 20
61.553423049702786
 30
0.0
  0
SPLINE
  5
FC
  8
0
 62
7
420
16777215
370
-1
  6
ByLayer
100
AcDbEntity
100
AcDbSpline
 70
8
 71
3
 72
8
 73
4
 74
0
 40
0.0
 40
0.0
 40
0.0
 40
0.0
 40
1.0
 40
1.0
 40
1.0
 40
1.0
 10
37.913749652830276
 20
61.553423049702786
 30
0.0
 10
39.418834372830283
 20
61.553423049702786
 30
0.0
 10
40.639573452830277
 20
60.331307569702801
 30
0.0
 10
40.639573452830277
 20
58.824888609702782
 30
0.0
  0
LWPOLYLINE
  5
FD
  8
0
 62
7
420
16777215
370
-1
  6
ByLayer
100
AcDbEntity
100
AcDbPolyline
 90
2
 70
0
 10
47.519756852830277
 20
24.105447849702784
 10
47.519756852830277
 20
24.105447849702784
  0
SPLINE
  5
FE
  8
0
 62
7
420
16777215
370
-1
  6
ByLayer
100
AcDbEntity
100
AcDbSpline
 70
8
 71
3
 72
8
 73
4
 74
0
 40
0.0
 40
0.0
 40
0.0
 40
0.0
 40
1.0
 40
1.0
 40
1.0
 40
1.0
 10
55.51952013283028
 20
58.824888609702782
 30
0.0
 10
55.51952013283028
 20
57.318434929702789
 30
0.0
 10
54.298779812830276
 20
56.096320689702793
 30
0.0
 10
52.793695092830283
 20
56.096320689702793
 30
0.0
  0
SPLINE
  5
FF
  8
0
 62
7
420
16777215
370
-1
  6
ByLayer
100
AcDbEntity
100
AcDbSpline
 70
8
 71
3
 72
8
 73
4
 74
0
 40
0.0
 40
0.0
 40
0.0
 40
0.0
 40
1.0
 40
1.0
 40
1.0
 40
1.0
 10
52.793695092830283
 20
56.096320689702793
 30
0.0
 10
51.287248852830281
 20
56.096320689702793
 30
0.0
 10
50.06787005283028
 20
57.318434929702789
 30
0.0
 10
50.06787005283028
 20
58.824888609702782
 30
0.0
  0
SPLINE
  5
100
  8
0
 62
7
420
16777215
370
-1
  6
ByLayer
100
AcDbEntity
100
AcDbSpline
 70
8
 71
3
 72
8
 73
4
 74
0
 40
0.0
 40
0.0
 40
0.0
 40
0.0
 40
1.0
 40
1.0
 40
1.0
 40
1.0
 10
50.06787005283028
 20
58.824888609702782
 30
0.0
 10
50.06787005283028
 20
60.331307569702801
 30
0.0
 10
51.287248852830281
 20
61.553423049702786
 30
0.0
 10
52.793695092830283
 20
61.553423049702786
 30
0.0
  0
SPLINE
  5
101
  8
0
 62
7
420
16777215
370
-1
  6
ByLayer
100
AcDbEntity
100
AcDbSpline
 70
8
 71
3
 72
8
 73
4
 74
0
 40
0.0
 40
0.0
 40
0.0
 40
0.0
 40
1.0
 40
1.0
 40
1.0
 40
1.0
 10
52.793695092830283
 20
61.553423049702786
 30
0.0
 10
54.298779812830276
 20
61.553423049702786
 30
0.0
 10
55.51952013283028
 20
60.331307569702801
 30
0.0
 10
55.51952013283028
 20
58.824888609702782
 30
0.0
  0
LWPOLYLINE
  5
102
  8
0
 62
7
420
16777215
370
-1
  6
ByLayer
100
AcDbEntity
100
AcDbPolyline
 90
2
 70
0
 10
40.639573452830277
 20
58.824888609702782
 10
40.639573452830277
 20
58.824888609702782
  0
SPLINE
  5
103
  8
0
 62
7
420
16777215
370
-1
  6
ByLayer
100
AcDbEntity
100
AcDbSpline
 70
8
 71
3
 72
8
 73
4
 74
0
 40
0.0
 40
0.0
 40
0.0
 40
0.0
 40
1.0
 40
1.0
 40
1.0
 40
1.0
 10
70.39946929283029
 20
58.824888609702782
 30
0.0
 10
70.39946929283029
 20
57.318434929702789
 30
0.0
 10
69.178726492830279
 20
56.096320689702793
 30
0.0
 10
67.673640532830277
 20
56.096320689702793
 30
0.0
  0
SPLINE
  5
104
  8
0
 62
7
420
16777215
370
-1
  6
ByLayer
100
AcDbEntity
100
AcDbSpline
 70
8
 71
3
 72
8
 73
4
 74
0
 40
0.0
 40
0.0
 40
0.0
 40
0.0
 40
1.0
 40
1.0
 40
1.0
 40
1.0
 10
67.673640532830277
 20
56.096320689702793
 30
0.0
 10
66.167194292830274
 20
56.096320689702793
 30
0.0
 10
64.947815492830287
 20
57.318434929702789
 30
0.0
 10
64.947815492830287
 20
58.824888609702782
 30
0.0
  0
SPLINE
  5
105
  8
0
 62
7
420
16777215
370
-1
  6
ByLayer
100
AcDbEntity
100
AcDbSpline
 70
8
 71
3
 72
8
 73
4
 74
0
 40
0.0
 40
0.0
 40
0.0
 40
0.0
 40
1.0
 40
1.0
 40
1.0
 40
1.0
 10
64.947815492830287
 20
58.824888609702782
 30
0.0
 10
64.947815492830287
 20
60.331307569702801
 30
0.0
 10
66.167194292830274
 20
61.553423049702786
 30
0.0
 10
67.673640532830277
 20
61.553423049702786
 30
0.0
  0
SPLINE
  5
106
  8
0
 62
7
420
16777215
370
-1
  6
ByLayer
100
AcDbEntity
100
AcDbSpline
 70
8
 71
3
 72
8
 73
4
 74
0
 40
0.0
 40
0.0
 40
0.0
 40
0.0
 40
1.0
 40
1.0
 40
1.0
 40
1.0
 10
67.673640532830277
 20
61.553423049702786
 30
0.0
 10
69.178726492830279
 20
61.553423049702786
 30
0.0
 10
70.39946929283029
 20
60.331307569702801
 30
0.0
 10
70.39946929283029
 20
58.824888609702782
 30
0.0
  0
LWPOLYLINE
  5
107
  8
0
 62
7
420
16777215
370
-1
  6
ByLayer
100
AcDbEntity
100
AcDbPolyline
 90
2
 70
0
 10
55.51952013283028
 20
58.824888609702782
 10
55.51952013283028
 20
58.824888609702782
  0
SPLINE
  5
108
  8
0
 62
7
420
16777215
370
-1
  6
ByLayer
100
AcDbEntity
100
AcDbSpline
 70
8
 71
3
 72
8
 73
4
 74
0
 40
0.0
 40
0.0
 40
0.0
 40
0.0
 40
1.0
 40
1.0
 40
1.0
 40
1.0
 10
15.777694972830275
 20
58.824888609702782
 30
0.0
 10
15.777694972830275
 20
57.043649689702789
 30
0.0
 10
14.334130372830288
 20
55.60008384970277
 30
0.0
 10
12.552908812830282
 20
55.60008384970277
 30
0.0
  0
SPLINE
  5
109
  8
0
 62
7
420
16777215
370
-1
  6
ByLayer
100
AcDbEntity
100
AcDbSpline
 70
8
 71
3
 72
8
 73
4
 74
0
 40
0.0
 40
0.0
 40
0.0
 40
0.0
 40
1.0
 40
1.0
 40
1.0
 40
1.0
 10
12.552908812830282
 20
55.60008384970277
 30
0.0
 10
10.773059932830279
 20
55.60008384970277
 30
0.0
 10
9.3294891328302754
 20
57.043649689702789
 30
0.0
 10
9.3294891328302754
 20
58.824888609702782
 30
0.0
  0
SPLINE
  5
10A
  8
0
 62
7
420
16777215
370
-1
  6
ByLayer
100
AcDbEntity
100
AcDbSpline
 70
8
 71
3
 72
8
 73
4
 74
0
 40
0.0
 40
0.0
 40
0.0
 40
0.0
 40
1.0
 40
1.0
 40
1.0
 40
1.0
 10
9.3294891328302754
 20
58.824888609702782
 30
0.0
 10
9.3294891328302754
 20
60.606092809702773
 30
0.0
 10
10.773059932830279
 20
62.049659889702781
 30
0.0
 10
12.552908812830282
 20
62.049659889702781
 30
0.0
  0
SPLINE
  5
10B
  8
0
 62
7
420
16777215
370
-1
  6
ByLayer
100
AcDbEntity
100
AcDbSpline
 70
8
 71
3
 72
8
 73
4
 74
0
 40
0.0
 40
0.0
 40
0.0
 40
0.0
 40
1.0
 40
1.0
 40
1.0
 40
1.0
 10
12.552908812830282
 20
62.049659889702781
 30
0.0
 10
14.334130372830288
 20
62.049659889702781
 30
0.0
 10
15.777694972830275
 20
60.606092809702773
 30
0.0
 10
15.777694972830275
 20
58.824888609702782
 30
0.0
  0
LWPOLYLINE
  5
10C
  8
0
 62
7
420
16777215
370
-1
  6
ByLayer
100
AcDbEntity
100
AcDbPolyline
 90
2
 70
0
 10
70.39946929283029
 20
58.824888609702782
 10
70.39946929283029
 20
58.824888609702782
  0
SPLINE
  5
10D
  8
0
 62
7
420
16777215
370
-1
  6
ByLayer
100
AcDbEntity
100
AcDbSpline
 70
8
 71
3
 72
8
 73
4
 74
0
 40
0.0
 40
0.0
 40
0.0
 40
0.0
 40
1.0
 40
1.0
 40
1.0
 40
1.0
 10
-4.0631420271697181
 20
58.824888609702782
 30
0.0
 10
-4.0631420271697181
 20
57.043649689702789
 30
0.0
 10
-5.5067091071697263
 20
55.60008384970277
 30
0.0
 10
-7.2865654271697196
 20
55.60008384970277
 30
0.0
  0
SPLINE
  5
10E
  8
0
 62
7
420
16777215
370
-1
  6
ByLayer
100
AcDbEntity
100
AcDbSpline
 70
8
 71
3
 72
8
 73
4
 74
0
 40
0.0
 40
0.0
 40
0.0
 40
0.0
 40
1.0
 40
1.0
 40
1.0
 40
1.0
 10
-7.2865654271697196
 20
55.60008384970277
 30
0.0
 10
-9.0677832671697161
 20
55.60008384970277
 30
0.0
 10
-10.511350347169724
 20
57.043649689702789
 30
0.0
 10
-10.511350347169724
 20
58.824888609702782
 30
0.0
  0
SPLINE
  5
10F
  8
0
 62
7
420
16777215
370
-1
  6
ByLayer
100
AcDbEntity
100
AcDbSpline
 70
8
 71
3
 72
8
 73
4
 74
0
 40
0.0
 40
0.0
 40
0.0
 40
0.0
 40
1.0
 40
1.0
 40
1.0
 40
1.0
 10
-10.511350347169724
 20
58.824888609702782
 30
0.0
 10
-10.511350347169724
 20
60.606092809702773
 30
0.0
 10
-9.0677832671697161
 20
62.049659889702781
 30
0.0
 10
-7.2865654271697196
 20
62.049659889702781
 30
0.0
  0
SPLINE
  5
110
  8
0
 62
7
420
16777215
370
-1
  6
ByLayer
100
AcDbEntity
100
AcDbSpline
 70
8
 71
3
 72
8
 73
4
 74
0
 40
0.0
 40
0.0
 40
0.0
 40
0.0
 40
1.0
 40
1.0
 40
1.0
 40
1.0
 10
-7.2865654271697196
 20
62.049659889702781
 30
0.0
 10
-5.5067091071697263
 20
62.049659889702781
 30
0.0
 10
-4.0631420271697181
 20
60.606092809702773
 30
0.0
 10
-4.0631420271697181
 20
58.824888609702782
 30
0.0
  0
LWPOLYLINE
  5
111
  8
0
 62
7
420
16777215
370
-1
  6
ByLayer
100
AcDbEntity
100
AcDbPolyline
 90
2
 70
0
 10
15.777694972830275
 20
58.824888609702782
 10
15.777694972830275
 20
58.824888609702782
  0
SPLINE
  5
112
  8
0
 62
7
420
16777215
370
-1
  6
ByLayer
100
AcDbEntity
100
AcDbSpline
 70
8
 71
3
 72
8
 73
4
 74
0
 40
0.0
 40
0.0
 40
0.0
 40
0.0
 40
1.0
 40
1.0
 40
1.0
 40
1.0
 10
5.8572758528302842
 20
43.944918369702776
 30
0.0
 10
5.8572758528302842
 20
42.163715409702775
 30
0.0
 10
4.413708772830276
 20
40.720148329702795
 30
0.0
 10
2.6338561728302636
 20
40.720148329702795
 30
0.0
  0
SPLINE
  5
113
  8
0
 62
7
420
16777215
370
-1
  6
ByLayer
100
AcDbEntity
100
AcDbSpline
 70
8
 71
3
 72
8
 73
4
 74
0
 40
0.0
 40
0.0
 40
0.0
 40
0.0
 40
1.0
 40
1.0
 40
1.0
 40
1.0
 10
2.6338561728302636
 20
40.720148329702795
 30
0.0
 10
0.8526383328302813
 20
40.720148329702795
 30
0.0
 10
-0.5909287471697127
 20
42.163715409702775
 30
0.0
 10
-0.5909287471697127
 20
43.944918369702776
 30
0.0
  0
SPLINE
  5
114
  8
0
 62
7
420
16777215
370
-1
  6
ByLayer
100
AcDbEntity
100
AcDbSpline
 70
8
 71
3
 72
8
 73
4
 74
0
 40
0.0
 40
0.0
 40
0.0
 40
0.0
 40
1.0
 40
1.0
 40
1.0
 40
1.0
 10
-0.5909287471697127
 20
43.944918369702776
 30
0.0
 10
-0.5909287471697127
 20
45.726157289702797
 30
0.0
 10
0.8526383328302813
 20
47.169724369702777
 30
0.0
 10
2.6338561728302636
 20
47.169724369702777
 30
0.0
  0
SPLINE
  5
115
  8
0
 62
7
420
16777215
370
-1
  6
ByLayer
100
AcDbEntity
100
AcDbSpline
 70
8
 71
3
 72
8
 73
4
 74
0
 40
0.0
 40
0.0
 40
0.0
 40
0.0
 40
1.0
 40
1.0
 40
1.0
 40
1.0
 10
2.6338561728302636
 20
47.169724369702777
 30
0.0
 10
4.413708772830276
 20
47.169724369702777
 30
0.0
 10
5.8572758528302842
 20
45.726157289702797
 30
0.0
 10
5.8572758528302842
 20
43.944918369702776
 30
0.0
  0
LWPOLYLINE
  5
116
  8
0
 62
7
420
16777215
370
-1
  6
ByLayer
100
AcDbEntity
100
AcDbPolyline
 90
2
 70
0
 10
-4.0631420271697181
 20
58.824888609702782
 10
-4.0631420271697181
 20
58.824888609702782
  0
SPLINE
  5
117
  8
0
 62
7
420
16777215
370
-1
  6
ByLayer
100
AcDbEntity
100
AcDbSpline
 70
8
 71
3
 72
8
 73
4
 74
0
 40
0.0
 40
0.0
 40
0.0
 40
0.0
 40
1.0
 40
1.0
 40
1.0
 40
1.0
 10
25.696748852830282
 20
43.944918369702776
 30
0.0
 10
25.696748852830282
 20
42.163715409702775
 30
0.0
 10
24.253181772830274
 20
40.720148329702795
 30
0.0
 10
22.473329172830276
 20
40.720148329702795
 30
0.0
  0
SPLINE
  5
118
  8
0
 62
7
420
16777215
370
-1
  6
ByLayer
100
AcDbEntity
100
AcDbSpline
 70
8
 71
3
 72
8
 73
4
 74
0
 40
0.0
 40
0.0
 40
0.0
 40
0.0
 40
1.0
 40
1.0
 40
1.0
 40
1.0
 10
22.473329172830276
 20
40.720148329702795
 30
0.0
 10
20.692111332830287
 20
40.720148329702795
 30
0.0
 10
19.249909492830284
 20
42.163715409702775
 30
0.0
 10
19.249909492830284
 20
43.944918369702776
 30
0.0
  0
SPLINE
  5
119
  8
0
 62
7
420
16777215
370
-1
  6
ByLayer
100
AcDbEntity
100
AcDbSpline
 70
8
 71
3
 72
8
 73
4
 74
0
 40
0.0
 40
0.0
 40
0.0
 40
0.0
 40
1.0
 40
1.0
 40
1.0
 40
1.0
 10
19.249909492830284
 20
43.944918369702776
 30
0.0
 10
19.249909492830284
 20
45.726157289702797
 30
0.0
 10
20.692111332830287
 20
47.169724369702777
 30
0.0
 10
22.473329172830276
 20
47.169724369702777
 30
0.0
  0
SPLINE
  5
11A
  8
0
 62
7
420
16777215
370
-1
  6
ByLayer
100
AcDbEntity
100
AcDbSpline
 70
8
 71
3
 72
8
 73
4
 74
0
 40
0.0
 40
0.0
 40
0.0
 40
0.0
 40
1.0
 40
1.0
 40
1.0
 40
1.0
 10
22.473329172830276
 20
47.169724369702777
 30
0.0
 10
24.253181772830274
 20
47.169724369702777
 30
0.0
 10
25.696748852830282
 20
45.726157289702797
 30
0.0
 10
25.696748852830282
 20
43.944918369702776
 30
0.0
  0
LWPOLYLINE
  5
11B
  8
0
 62
7
420
16777215
370
-1
  6
ByLayer
100
AcDbEntity
100
AcDbPolyline
 90
2
 70
0
 10
5.8572758528302842
 20
43.944918369702776
 10
5.8572758528302842
 20
43.944918369702776
  0
SPLINE
  5
11C
  8
0
 62
7
420
16777215
370
-1
  6
ByLayer
100
AcDbEntity
100
AcDbSpline
 70
8
 71
3
 72
8
 73
4
 74
0
 40
0.0
 40
0.0
 40
0.0
 40
0.0
 40
1.0
 40
1.0
 40
1.0
 40
1.0
 10
35.617169212830277
 20
34.024519089702807
 30
0.0
 10
35.617169212830277
 20
32.243280169702786
 30
0.0
 10
34.173599652830276
 20
30.799713089702806
 30
0.0
 10
32.393745812830282
 20
30.799713089702806
 30
0.0
  0
SPLINE
  5
11D
  8
0
 62
7
420
16777215
370
-1
  6
ByLayer
100
AcDbEntity
100
AcDbSpline
 70
8
 71
3
 72
8
 73
4
 74
0
 40
0.0
 40
0.0
 40
0.0
 40
0.0
 40
1.0
 40
1.0
 40
1.0
 40
1.0
 10
32.393745812830282
 20
30.799713089702806
 30
0.0
 10
30.612527972830279
 20
30.799713089702806
 30
0.0
 10
29.168962132830281
 20
32.243280169702786
 30
0.0
 10
29.168962132830281
 20
34.024519089702807
 30
0.0
  0
SPLINE
  5
11E
  8
0
 62
7
420
16777215
370
-1
  6
ByLayer
100
AcDbEntity
100
AcDbSpline
 70
8
 71
3
 72
8
 73
4
 74
0
 40
0.0
 40
0.0
 40
0.0
 40
0.0
 40
1.0
 40
1.0
 40
1.0
 40
1.0
 10
29.168962132830281
 20
34.024519089702807
 30
0.0
 10
29.168962132830281
 20
35.805722049702752
 30
0.0
 10
30.612527972830279
 20
37.249289129702788
 30
0.0
 10
32.393745812830282
 20
37.249289129702788
 30
0.0
  0
SPLINE
  5
11F
  8
0
 62
7
420
16777215
370
-1
  6
ByLayer
100
AcDbEntity
100
AcDbSpline
 70
8
 71
3
 72
8
 73
4
 74
0
 40
0.0
 40
0.0
 40
0.0
 40
0.0
 40
1.0
 40
1.0
 40
1.0
 40
1.0
 10
32.393745812830282
 20
37.249289129702788
 30
0.0
 10
34.173599652830276
 20
37.249289129702788
 30
0.0
 10
35.617169212830277
 20
35.805722049702752
 30
0.0
 10
35.617169212830277
 20
34.024519089702807
 30
0.0
  0
LWPOLYLINE
  5
120
  8
0
 62
7
420
16777215
370
-1
  6
ByLayer
100
AcDbEntity
100
AcDbPolyline
 90
2
 70
0
 10
25.696748852830282
 20
43.944918369702776
 10
25.696748852830282
 20
43.944918369702776
  0
SPLINE
  5
121
  8
0
 62
7
420
16777215
370
-1
  6
ByLayer
100
AcDbEntity
100
AcDbSpline
 70
8
 71
3
 72
8
 73
4
 74
0
 40
0.0
 40
0.0
 40
0.0
 40
0.0
 40
1.0
 40
1.0
 40
1.0
 40
1.0
 10
25.696748852830282
 20
24.105447849702784
 30
0.0
 10
25.696748852830282
 20
22.324244889702783
 30
0.0
 10
24.253181772830274
 20
20.880677809702803
 30
0.0
 10
22.473329172830276
 20
20.880677809702803
 30
0.0
  0
SPLINE
  5
122
  8
0
 62
7
420
16777215
370
-1
  6
ByLayer
100
AcDbEntity
100
AcDbSpline
 70
8
 71
3
 72
8
 73
4
 74
0
 40
0.0
 40
0.0
 40
0.0
 40
0.0
 40
1.0
 40
1.0
 40
1.0
 40
1.0
 10
22.473329172830276
 20
20.880677809702803
 30
0.0
 10
20.692111332830287
 20
20.880677809702803
 30
0.0
 10
19.249909492830284
 20
22.324244889702783
 30
0.0
 10
19.249909492830284
 20
24.105447849702784
 30
0.0
  0
SPLINE
  5
123
  8
0
 62
7
420
16777215
370
-1
  6
ByLayer
100
AcDbEntity
100
AcDbSpline
 70
8
 71
3
 72
8
 73
4
 74
0
 40
0.0
 40
0.0
 40
0.0
 40
0.0
 40
1.0
 40
1.0
 40
1.0
 40
1.0
 10
19.249909492830284
 20
24.105447849702784
 30
0.0
 10
19.249909492830284
 20
25.886686769702806
 30
0.0
 10
20.692111332830287
 20
27.330253849702785
 30
0.0
 10
22.473329172830276
 20
27.330253849702785
 30
0.0
  0
SPLINE
  5
124
  8
0
 62
7
420
16777215
370
-1
  6
ByLayer
100
AcDbEntity
100
AcDbSpline
 70
8
 71
3
 72
8
 73
4
 74
0
 40
0.0
 40
0.0
 40
0.0
 40
0.0
 40
1.0
 40
1.0
 40
1.0
 40
1.0
 10
22.473329172830276
 20
27.330253849702785
 30
0.0
 10
24.253181772830274
 20
27.330253849702785
 30
0.0
 10
25.696748852830282
 20
25.886686769702806
 30
0.0
 10
25.696748852830282
 20
24.105447849702784
 30
0.0
  0
LWPOLYLINE
  5
125
  8
0
 62
7
420
16777215
370
-1
  6
ByLayer
100
AcDbEntity
100
AcDbPolyline
 90
2
 70
0
 10
35.617169212830277
 20
34.024519089702807
 10
35.617169212830277
 20
34.024519089702807
  0
SPLINE
  5
126
  8
0
 62
7
420
16777215
370
-1
  6
ByLayer
100
AcDbEntity
100
AcDbSpline
 70
8
 71
3
 72
8
 73
4
 74
0
 40
0.0
 40
0.0
 40
0.0
 40
0.0
 40
1.0
 40
1.0
 40
1.0
 40
1.0
 10
15.777694972830275
 20
34.024519089702807
 30
0.0
 10
15.777694972830275
 20
32.243280169702786
 30
0.0
 10
14.334130372830288
 20
30.799713089702806
 30
0.0
 10
12.552908812830282
 20
30.799713089702806
 30
0.0
  0
SPLINE
  5
127
  8
0
 62
7
420
16777215
370
-1
  6
ByLayer
100
AcDbEntity
100
AcDbSpline
 70
8
 71
3
 72
8
 73
4
 74
0
 40
0.0
 40
0.0
 40
0.0
 40
0.0
 40
1.0
 40
1.0
 40
1.0
 40
1.0
 10
12.552908812830282
 20
30.799713089702806
 30
0.0
 10
10.773059932830279
 20
30.799713089702806
 30
0.0
 10
9.3294891328302754
 20
32.243280169702786
 30
0.0
 10
9.3294891328302754
 20
34.024519089702807
 30
0.0
  0
SPLINE
  5
128
  8
0
 62
7
420
16777215
370
-1
  6
ByLayer
100
AcDbEntity
100
AcDbSpline
 70
8
 71
3
 72
8
 73
4
 74
0
 40
0.0
 40
0.0
 40
0.0
 40
0.0
 40
1.0
 40
1.0
 40
1.0
 40
1.0
 10
9.3294891328302754
 20
34.024519089702807
 30
0.0
 10
9.3294891328302754
 20
35.805722049702752
 30
0.0
 10
10.773059932830279
 20
37.249289129702788
 30
0.0
 10
12.552908812830282
 20
37.249289129702788
 30
0.0
  0
SPLINE
  5
129
  8
0
 62
7
420
16777215
370
-1
  6
ByLayer
100
AcDbEntity
100
AcDbSpline
 70
8
 71
3
 72
8
 73
4
 74
0
 40
0.0
 40
0.0
 40
0.0
 40
0.0
 40
1.0
 40
1.0
 40
1.0
 40
1.0
 10
12.552908812830282
 20
37.249289129702788
 30
0.0
 10
14.334130372830288
 20
37.249289129702788
 30
0.0
 10
15.777694972830275
 20
35.805722049702752
 30
0.0
 10
15.777694972830275
 20
34.024519089702807
 30
0.0
  0
LWPOLYLINE
  5
12A
  8
0
 62
7
420
16777215
370
-1
  6
ByLayer
100
AcDbEntity
100
AcDbPolyline
 90
2
 70
0
 10
25.696748852830282
 20
24.105447849702784
 10
25.696748852830282
 20
24.105447849702784
  0
SPLINE
  5
12B
  8
0
 62
7
420
16777215
370
-1
  6
ByLayer
100
AcDbEntity
100
AcDbSpline
 70
8
 71
3
 72
8
 73
4
 74
0
 40
0.0
 40
0.0
 40
0.0
 40
0.0
 40
1.0
 40
1.0
 40
1.0
 40
1.0
 10
-4.0631420271697181
 20
34.024519089702807
 30
0.0
 10
-4.0631420271697181
 20
32.243280169702786
 30
0.0
 10
-5.5067091071697263
 20
30.799713089702806
 30
0.0
 10
-7.2865654271697196
 20
30.799713089702806
 30
0.0
  0
SPLINE
  5
12C
  8
0
 62
7
420
16777215
370
-1
  6
ByLayer
100
AcDbEntity
100
AcDbSpline
 70
8
 71
3
 72
8
 73
4
 74
0
 40
0.0
 40
0.0
 40
0.0
 40
0.0
 40
1.0
 40
1.0
 40
1.0
 40
1.0
 10
-7.2865654271697196
 20
30.799713089702806
 30
0.0
 10
-9.0677832671697161
 20
30.799713089702806
 30
0.0
 10
-10.511350347169724
 20
32.243280169702786
 30
0.0
 10
-10.511350347169724
 20
34.024519089702807
 30
0.0
  0
SPLINE
  5
12D
  8
0
 62
7
420
16777215
370
-1
  6
ByLayer
100
AcDbEntity
100
AcDbSpline
 70
8
 71
3
 72
8
 73
4
 74
0
 40
0.0
 40
0.0
 40
0.0
 40
0.0
 40
1.0
 40
1.0
 40
1.0
 40
1.0
 10
-10.511350347169724
 20
34.024519089702807
 30
0.0
 10
-10.511350347169724
 20
35.805722049702752
 30
0.0
 10
-9.0677832671697161
 20
37.249289129702788
 30
0.0
 10
-7.2865654271697196
 20
37.249289129702788
 30
0.0
  0
SPLINE
  5
12E
  8
0
 62
7
420
16777215
370
-1
  6
ByLayer
100
AcDbEntity
100
AcDbSpline
 70
8
 71
3
 72
8
 73
4
 74
0
 40
0.0
 40
0.0
 40
0.0
 40
0.0
 40
1.0
 40
1.0
 40
1.0
 40
1.0
 10
-7.2865654271697196
 20
37.249289129702788
 30
0.0
 10
-5.5067091071697263
 20
37.249289129702788
 30
0.0
 10
-4.0631420271697181
 20
35.805722049702752
 30
0.0
 10
-4.0631420271697181
 20
34.024519089702807
 30
0.0
  0
LWPOLYLINE
  5
12F
  8
0
 62
7
420
16777215
370
-1
  6
ByLayer
100
AcDbEntity
100
AcDbPolyline
 90
2
 70
0
 10
15.777694972830275
 20
34.024519089702807
 10
15.777694972830275
 20
34.024519089702807
  0
SPLINE
  5
130
  8
0
 62
7
420
16777215
370
-1
  6
ByLayer
100
AcDbEntity
100
AcDbSpline
 70
8
 71
3
 72
8
 73
4
 74
0
 40
0.0
 40
0.0
 40
0.0
 40
0.0
 40
1.0
 40
1.0
 40
1.0
 40
1.0
 10
5.8572758528302842
 20
24.105447849702784
 30
0.0
 10
5.8572758528302842
 20
22.324244889702783
 30
0.0
 10
4.413708772830276
 20
20.880677809702803
 30
0.0
 10
2.6338561728302636
 20
20.880677809702803
 30
0.0
  0
SPLINE
  5
131
  8
0
 62
7
420
16777215
370
-1
  6
ByLayer
100
AcDbEntity
100
AcDbSpline
 70
8
 71
3
 72
8
 73
4
 74
0
 40
0.0
 40
0.0
 40
0.0
 40
0.0
 40
1.0
 40
1.0
 40
1.0
 40
1.0
 10
2.6338561728302636
 20
20.880677809702803
 30
0.0
 10
0.8526383328302813
 20
20.880677809702803
 30
0.0
 10
-0.5909287471697127
 20
22.324244889702783
 30
0.0
 10
-0.5909287471697127
 20
24.105447849702784
 30
0.0
  0
SPLINE
  5
132
  8
0
 62
7
420
16777215
370
-1
  6
ByLayer
100
AcDbEntity
100
AcDbSpline
 70
8
 71
3
 72
8
 73
4
 74
0
 40
0.0
 40
0.0
 40
0.0
 40
0.0
 40
1.0
 40
1.0
 40
1.0
 40
1.0
 10
-0.5909287471697127
 20
24.105447849702784
 30
0.0
 10
-0.5909287471697127
 20
25.886686769702806
 30
0.0
 10
0.8526383328302813
 20
27.330253849702785
 30
0.0
 10
2.6338561728302636
 20
27.330253849702785
 30
0.0
  0
SPLINE
  5
133
  8
0
 62
7
420
16777215
370
-1
  6
ByLayer
100
AcDbEntity
100
AcDbSpline
 70
8
 71
3
 72
8
 73
4
 74
0
 40
0.0
 40
0.0
 40
0.0
 40
0.0
 40
1.0
 40
1.0
 40
1.0
 40
1.0
 10
2.6338561728302636
 20
27.330253849702785
 30
0.0
 10
4.413708772830276
 20
27.330253849702785
 30
0.0
 10
5.8572758528302842
 20
25.886686769702806
 30
0.0
 10
5.8572758528302842
 20
24.105447849702784
 30
0.0
  0
LWPOLYLINE
  5
134
  8
0
 62
7
420
16777215
370
-1
  6
ByLayer
100
AcDbEntity
100
AcDbPolyline
 90
2
 70
0
 10
-4.0631420271697181
 20
34.024519089702807
 10
-4.0631420271697181
 20
34.024519089702807
  0
SPLINE
  5
135
  8
0
 62
7
420
16777215
370
-1
  6
ByLayer
100
AcDbEntity
100
AcDbSpline
 70
8
 71
3
 72
8
 73
4
 74
0
 40
0.0
 40
0.0
 40
0.0
 40
0.0
 40
1.0
 40
1.0
 40
1.0
 40
1.0
 10
15.777694972830275
 20
14.185048569702815
 30
0.0
 10
15.777694972830275
 20
12.403809649702794
 30
0.0
 10
14.334130372830288
 20
10.960242569702757
 30
0.0
 10
12.552908812830282
 20
10.960242569702757
 30
0.0
  0
SPLINE
  5
136
  8
0
 62
7
420
16777215
370
-1
  6
ByLayer
100
AcDbEntity
100
AcDbSpline
 70
8
 71
3
 72
8
 73
4
 74
0
 40
0.0
 40
0.0
 40
0.0
 40
0.0
 40
1.0
 40
1.0
 40
1.0
 40
1.0
 10
12.552908812830282
 20
10.960242569702757
 30
0.0
 10
10.773059932830279
 20
10.960242569702757
 30
0.0
 10
9.3294891328302754
 20
12.403809649702794
 30
0.0
 10
9.3294891328302754
 20
14.185048569702815
 30
0.0
  0
SPLINE
  5
137
  8
0
 62
7
420
16777215
370
-1
  6
ByLayer
100
AcDbEntity
100
AcDbSpline
 70
8
 71
3
 72
8
 73
4
 74
0
 40
0.0
 40
0.0
 40
0.0
 40
0.0
 40
1.0
 40
1.0
 40
1.0
 40
1.0
 10
9.3294891328302754
 20
14.185048569702815
 30
0.0
 10
9.3294891328302754
 20
15.96625152970276
 30
0.0
 10
10.773059932830279
 20
17.409818609702796
 30
0.0
 10
12.552908812830282
 20
17.409818609702796
 30
0.0
  0
SPLINE
  5
138
  8
0
 62
7
420
16777215
370
-1
  6
ByLayer
100
AcDbEntity
100
AcDbSpline
 70
8
 71
3
 72
8
 73
4
 74
0
 40
0.0
 40
0.0
 40
0.0
 40
0.0
 40
1.0
 40
1.0
 40
1.0
 40
1.0
 10
12.552908812830282
 20
17.409818609702796
 30
0.0
 10
14.334130372830288
 20
17.409818609702796
 30
0.0
 10
15.777694972830275
 20
15.96625152970276
 30
0.0
 10
15.777694972830275
 20
14.185048569702815
 30
0.0
  0
LWPOLYLINE
  5
139
  8
0
 62
7
420
16777215
370
-1
  6
ByLayer
100
AcDbEntity
100
AcDbPolyline
 90
2
 70
0
 10
5.8572758528302842
 20
24.105447849702784
 10
5.8572758528302842
 20
24.105447849702784
  0
SPLINE
  5
13A
  8
0
 62
7
420
16777215
370
-1
  6
ByLayer
100
AcDbEntity
100
AcDbSpline
 70
8
 71
3
 72
8
 73
4
 74
0
 40
0.0
 40
0.0
 40
0.0
 40
0.0
 40
1.0
 40
1.0
 40
1.0
 40
1.0
 10
35.617169212830277
 20
14.185048569702815
 30
0.0
 10
35.617169212830277
 20
12.403809649702794
 30
0.0
 10
34.173599652830276
 20
10.960242569702757
 30
0.0
 10
32.393745812830282
 20
10.960242569702757
 30
0.0
  0
SPLINE
  5
13B
  8
0
 62
7
420
16777215
370
-1
  6
ByLayer
100
AcDbEntity
100
AcDbSpline
 70
8
 71
3
 72
8
 73
4
 74
0
 40
0.0
 40
0.0
 40
0.0
 40
0.0
 40
1.0
 40
1.0
 40
1.0
 40
1.0
 10
32.393745812830282
 20
10.960242569702757
 30
0.0
 10
30.612527972830279
 20
10.960242569702757
 30
0.0
 10
29.168962132830281
 20
12.403809649702794
 30
0.0
 10
29.168962132830281
 20
14.185048569702815
 30
0.0
  0
SPLINE
  5
13C
  8
0
 62
7
420
16777215
370
-1
  6
ByLayer
100
AcDbEntity
100
AcDbSpline
 70
8
 71
3
 72
8
 73
4
 74
0
 40
0.0
 40
0.0
 40
0.0
 40
0.0
 40
1.0
 40
1.0
 40
1.0
 40
1.0
 10
29.168962132830281
 20
14.185048569702815
 30
0.0
 10
29.168962132830281
 20
15.96625152970276
 30
0.0
 10
30.612527972830279
 20
17.409818609702796
 30
0.0
 10
32.393745812830282
 20
17.409818609702796
 30
0.0
  0
SPLINE
  5
13D
  8
0
 62
7
420
16777215
370
-1
  6
ByLayer
100
AcDbEntity
100
AcDbSpline
 70
8
 71
3
 72
8
 73
4
 74
0
 40
0.0
 40
0.0
 40
0.0
 40
0.0
 40
1.0
 40
1.0
 40
1.0
 40
1.0
 10
32.393745812830282
 20
17.409818609702796
 30
0.0
 10
34.173599652830276
 20
17.409818609702796
 30
0.0
 10
35.617169212830277
 20
15.96625152970276
 30
0.0
 10
35.617169212830277
 20
14.185048569702815
 30
0.0
  0
LWPOLYLINE
  5
13E
  8
0
 62
7
420
16777215
370
-1
  6
ByLayer
100
AcDbEntity
100
AcDbPolyline
 90
2
 70
0
 10
15.777694972830275
 20
14.185048569702815
 10
15.777694972830275
 20
14.185048569702815
  0
SPLINE
  5
13F
  8
0
 62
7
420
16777215
370
-1
  6
ByLayer
100
AcDbEntity
100
AcDbSpline
 70
8
 71
3
 72
8
 73
4
 74
0
 40
0.0
 40
0.0
 40
0.0
 40
0.0
 40
1.0
 40
1.0
 40
1.0
 40
1.0
 10
-4.0631420271697181
 20
14.185048569702815
 30
0.0
 10
-4.0631420271697181
 20
12.403809649702794
 30
0.0
 10
-5.5067091071697263
 20
10.960242569702757
 30
0.0
 10
-7.2865654271697196
 20
10.960242569702757
 30
0.0
  0
SPLINE
  5
140
  8
0
 62
7
420
16777215
370
-1
  6
ByLayer
100
AcDbEntity
100
AcDbSpline
 70
8
 71
3
 72
8
 73
4
 74
0
 40
0.0
 40
0.0
 40
0.0
 40
0.0
 40
1.0
 40
1.0
 40
1.0
 40
1.0
 10
-7.2865654271697196
 20
10.960242569702757
 30
0.0
 10
-9.0677832671697161
 20
10.960242569702757
 30
0.0
 10
-10.511350347169724
 20
12.403809649702794
 30
0.0
 10
-10.511350347169724
 20
14.185048569702815
 30
0.0
  0
SPLINE
  5
141
  8
0
 62
7
420
16777215
370
-1
  6
ByLayer
100
AcDbEntity
100
AcDbSpline
 70
8
 71
3
 72
8
 73
4
 74
0
 40
0.0
 40
0.0
 40
0.0
 40
0.0
 40
1.0
 40
1.0
 40
1.0
 40
1.0
 10
-10.511350347169724
 20
14.185048569702815
 30
0.0
 10
-10.511350347169724
 20
15.96625152970276
 30
0.0
 10
-9.0677832671697161
 20
17.409818609702796
 30
0.0
 10
-7.2865654271697196
 20
17.409818609702796
 30
0.0
  0
SPLINE
  5
142
  8
0
 62
7
420
16777215
370
-1
  6
ByLayer
100
AcDbEntity
100
AcDbSpline
 70
8
 71
3
 72
8
 73
4
 74
0
 40
0.0
 40
0.0
 40
0.0
 40
0.0
 40
1.0
 40
1.0
 40
1.0
 40
1.0
 10
-7.2865654271697196
 20
17.409818609702796
 30
0.0
 10
-5.5067091071697263
 20
17.409818609702796
 30
0.0
 10
-4.0631420271697181
 20
15.96625152970276
 30
0.0
 10
-4.0631420271697181
 20
14.185048569702815
 30
0.0
  0
LWPOLYLINE
  5
143
  8
0
 62
7
420
16777215
370
-1
  6
ByLayer
100
AcDbEntity
100
AcDbPolyline
 90
2
 70
0
 10
35.617169212830277
 20
14.185048569702815
 10
35.617169212830277
 20
14.185048569702815
  0
LWPOLYLINE
  5
144
  8
0
 62
7
420
16777215
370
-1
  6
ByLayer
100
AcDbEntity
100
AcDbPolyline
 90
2
 70
0
 10
-4.0631420271697181
 20
14.185048569702815
 10
-4.0631420271697181
 20
14.185048569702815
  0
LWPOLYLINE
  5
145
  8
0
 62
7
420
16777215
370
-1
  6
ByLayer
100
AcDbEntity
100
AcDbPolyline
 90
6
 70
0
 10
79.03007637283028
 20
196.61072004970279
 10
79.03007637283028
 20
186.70260296970281
 10
74.069183572830283
 20
186.70260296970281
 10
74.069183572830283
 20
183.62995860970278
 10
79.03007637283028
 20
183.62995860970278
 10
79.03007637283028
 20
171.8103492897028
  0
LWPOLYLINE
  5
146
  8
0
 62
7
420
16777215
370
-1
  6
ByLayer
100
AcDbEntity
100
AcDbPolyline
 90
2
 70
0
 10
79.03007637283028
 20
196.61072004970279
 10
59.237079812830274
 20
196.61072004970279
  0
LWPOLYLINE
  5
147
  8
0
 62
7
420
16777215
370
-1
  6
ByLayer
100
AcDbEntity
100
AcDbPolyline
 90
7
 70
0
 10
-0.2827019471697128
 20
196.61072004970279
 10
-20.074329547169725
 20
196.61072004970279
 10
-20.10029638716972
 20
186.69028480970277
 10
-15.140768827169722
 20
186.69028480970277
 10
-15.140768827169722
 20
183.61805956970278
 10
-20.10029638716972
 20
183.61805956970278
 10
-20.124897987169717
 20
171.86091772970278
  0
LWPOLYLINE
  5
148
  8
0
 62
7
420
16777215
370
-1
  6
ByLayer
100
AcDbEntity
100
AcDbPolyline
 90
2
 70
0
 10
59.202906652830279
 20
191.65254904970277
 10
59.23706245283028
 20
196.61072004970279
  0
LWPOLYLINE
  5
149
  8
0
 62
7
420
16777215
370
-1
  6
ByLayer
100
AcDbEntity
100
AcDbPolyline
 90
2
 70
0
 10
4.6071090928302709
 20
186.69301404970281
 10
54.243379092830281
 20
186.69301404970281
  0
SPLINE
  5
14A
  8
0
 62
7
420
16777215
370
-1
  6
ByLayer
100
AcDbEntity
100
AcDbSpline
 70
8
 71
3
 72
8
 73
4
 74
0
 40
0.0
 40
0.0
 40
0.0
 40
0.0
 40
1.0
 40
1.0
 40
1.0
 40
1.0
 10
59.202906652830279
 20
191.65254904970277
 30
0.0
 10
59.202906652830279
 20
189.01969300970279
 30
0.0
 10
56.534496092830281
 20
186.69301404970281
 30
0.0
 10
54.243379092830281
 20
186.69301404970281
 30
0.0
  0
SPLINE
  5
14B
  8
0
 62
7
420
16777215
370
-1
  6
ByLayer
100
AcDbEntity
100
AcDbSpline
 70
8
 71
3
 72
8
 73
4
 74
0
 40
0.0
 40
0.0
 40
0.0
 40
0.0
 40
1.0
 40
1.0
 40
1.0
 40
1.0
 10
-0.3524197071697159
 20
191.65254904970277
 30
0.0
 10
-0.3524197071697159
 20
189.01969300970279
 30
0.0
 10
2.3159920928302853
 20
186.69301404970281
 30
0.0
 10
4.6071090928302709
 20
186.69301404970281
 30
0.0
  0
LWPOLYLINE
  5
14C
  8
0
 62
7
420
16777215
370
-1
  6
ByLayer
100
AcDbEntity
100
AcDbPolyline
 90
2
 70
0
 10
-0.3524197071697159
 20
191.65254904970277
 10
-0.2827019471697128
 20
196.61072004970279
  0
LWPOLYLINE
  5
14D
  8
0
 62
7
420
16777215
370
-1
  6
ByLayer
100
AcDbEntity
100
AcDbPolyline
 90
6
 70
0
 10
79.025327172830274
 20
147.08871976970278
 10
79.025327172830274
 20
156.9954716097028
 10
74.065799612830276
 20
156.9954716097028
 10
74.065799612830276
 20
160.06797584970278
 10
79.025327172830274
 20
160.06797584970278
 10
79.025327172830274
 20
171.8877240497028
  0
LWPOLYLINE
  5
14E
  8
0
 62
7
420
16777215
370
-1
  6
ByLayer
100
AcDbEntity
100
AcDbPolyline
 90
2
 70
0
 10
-20.128293107169711
 20
171.8385208497028
 10
79.025327172830274
 20
171.8877240497028
  0
LWPOLYLINE
  5
14F
  8
0
 62
7
420
16777215
370
-1
  6
ByLayer
100
AcDbEntity
100
AcDbPolyline
 90
2
 70
0
 10
79.025327172830274
 20
147.08871976970278
 10
59.233699572830275
 20
147.08871976970278
  0
LWPOLYLINE
  5
150
  8
0
 62
7
420
16777215
370
-1
  6
ByLayer
100
AcDbEntity
100
AcDbPolyline
 90
7
 70
0
 10
-0.2860859071697206
 20
147.08871976970278
 10
-20.079078747169717
 20
147.08871976970278
 10
-20.105045587169727
 20
157.00778976970278
 10
-15.145518027169715
 20
157.00778976970278
 10
-15.145518027169715
 20
160.07987488970281
 10
-20.105045587169727
 20
160.07987488970281
 10
-20.128281947169725
 20
171.8385208497028
  0
LWPOLYLINE
  5
151
  8
0
 62
7
420
16777215
370
-1
  6
ByLayer
100
AcDbEntity
100
AcDbPolyline
 90
2
 70
0
 10
59.199522692830271
 20
152.04552552970279
 10
59.233713212830281
 20
147.08871976970278
  0
LWPOLYLINE
  5
152
  8
0
 62
7
420
16777215
370
-1
  6
ByLayer
100
AcDbEntity
100
AcDbPolyline
 90
2
 70
0
 10
4.6023561728302838
 20
157.0050605297028
 10
54.239998852830283
 20
157.0050605297028
  0
SPLINE
  5
153
  8
0
 62
7
420
16777215
370
-1
  6
ByLayer
100
AcDbEntity
100
AcDbSpline
 70
8
 71
3
 72
8
 73
4
 74
0
 40
0.0
 40
0.0
 40
0.0
 40
0.0
 40
1.0
 40
1.0
 40
1.0
 40
1.0
 10
59.199522692830271
 20
152.04552552970279
 30
0.0
 10
59.199522692830271
 20
154.6783803297028
 30
0.0
 10
56.529746892830275
 20
157.0050605297028
 30
0.0
 10
54.239998852830283
 20
157.0050605297028
 30
0.0
  0
SPLINE
  5
154
  8
0
 62
7
420
16777215
370
-1
  6
ByLayer
100
AcDbEntity
100
AcDbSpline
 70
8
 71
3
 72
8
 73
4
 74
0
 40
0.0
 40
0.0
 40
0.0
 40
0.0
 40
1.0
 40
1.0
 40
1.0
 40
1.0
 10
-0.3558049071697127
 20
152.04552552970279
 30
0.0
 10
-0.3558049071697127
 20
154.6783803297028
 30
0.0
 10
2.3126068928302885
 20
157.0050605297028
 30
0.0
 10
4.6023561728302838
 20
157.0050605297028
 30
0.0
  0
LWPOLYLINE
  5
155
  8
0
 62
7
420
16777215
370
-1
  6
ByLayer
100
AcDbEntity
100
AcDbPolyline
 90
2
 70
0
 10
-0.3558049071697127
 20
152.04552552970279
 10
-0.2860859071697206
 20
147.08871976970278
  0
ENDSEC
  0
SECTION
  2
OBJECTS
  0
DICTIONARY
  5
C
100
AcDbDictionary
280
0
281
1
  3
ACAD_GROUP
350
D
  3
ACAD_LAYOUT
350
1A
  3
ACAD_MLINESTYLE
350
17
  3
ACAD_PLOTSETTINGS
350
19
  3
ACAD_PLOTSTYLENAME
350
E
  3
AcDbVariableDictionary
350
156
  0
DICTIONARY
  5
D
100
AcDbDictionary
280
0
281
1
  0
ACDBDICTIONARYWDFLT
  5
E
100
AcDbDictionary
281
1
  3
Normal
350
F
100
AcDbDictionaryWithDefault
340
F
  0
ACDBPLACEHOLDER
  5
F
  0
DICTIONARY
  5
17
100
AcDbDictionary
280
0
281
1
  3
Standard
350
18
  0
MLINESTYLE
  5
18
100
AcDbMlineStyle
  2
STANDARD
 70
0
  3

 62
256
 51
90.0
 52
90.0
 71
2
 49
0.5
 62
256
  6
BYLAYER
 49
-0.5
 62
256
  6
BYLAYER
  0
DICTIONARY
  5
19
100
AcDbDictionary
280
0
281
1
  0
DICTIONARY
  5
1A
100
AcDbDictionary
281
1
  3
Layout1
350
1E
  3
Layout2
350
26
  3
Model
350
22
  0
LAYOUT
  5
1E
100
AcDbPlotSettings
  1

  2
C:\Program Files\AutoCAD 2002\plotters\DWF ePlot (optimized for plotting).pc3
  4

  6

 40
0.0
 41
0.0
 42
0.0
 43
0.0
 44
0.0
 45
0.0
 46
0.0
 47
0.0
 48
0.0
 49
0.0
140
0.0
141
0.0
142
1.0
143
1.0
 70
688
 72
0
 73
0
 74
5
  7

 75
16
147
1.0
148
0.0
149
0.0
100
AcDbLayout
  1
Layout1
 70
1
 71
1
 10
0.0
 20
0.0
 11
420.0
 21
297.0
 12
0.0
 22
0.0
 32
0.0
 14
100000000000000000000.0
 24
100000000000000000000.0
 34
100000000000000000000.0
 15
-100000000000000000000.0
 25
-100000000000000000000.0
 35
-100000000000000000000.0
146
0.0
 13
0.0
 23
0.0
 33
0.0
 16
1.0
 26
0.0
 36
0.0
 17
0.0
 27
1.0
 37
0.0
 76
0
330
1B
  0
LAYOUT
  5
22
100
AcDbPlotSettings
  1

  2
C:\Program Files\AutoCAD 2002\plotters\DWF ePlot (optimized for plotting).pc3
  4

  6

 40
0.0
 41
0.0
 42
0.0
 43
0.0
 44
0.0
 45
0.0
 46
0.0
 47
0.0
 48
0.0
 49
0.0
140
0.0
141
0.0
142
1.0
143
1.0
 70
1712
 72
0
 73
0
 74
0
  7

 75
0
147
1.0
148
0.0
149
0.0
100
AcDbLayout
  1
Model
 70
1
 71
0
 10
0.0
 20
0.0
 11
12.0
 21
9.0
 12
0.0
 22
0.0
 32
0.0
 14
0.0
 24
0.0
 34
0.0
 15
0.0
 25
0.0
 35
0.0
146
0.0
 13
0.0
 23
0.0
 33
0.0
 16
1.0
 26
0.0
 36
0.0
 17
0.0
 27
1.0
 37
0.0
 76
0
330
1F
  0
LAYOUT
  5
26
100
AcDbPlotSettings
  1

  2
C:\Program Files\AutoCAD 2002\plotters\DWF ePlot (optimized for plotting).pc3
  4

  6

 40
0.0
 41
0.0
 42
0.0
 43
0.0
 44
0.0
 45
0.0
 46
0.0
 47
0.0
 48
0.0
 49
0.0
140
0.0
141
0.0
142
1.0
143
1.0
 70
688
 72
0
 73
0
 74
5
  7

 75
16
147
1.0
148
0.0
149
0.0
100
AcDbLayout
  1
Layout2
 70
1
 71
2
 10
0.0
 20
0.0
 11
12.0
 21
9.0
 12
0.0
 22
0.0
 32
0.0
 14
0.0
 24
0.0
 34
0.0
 15
0.0
 25
0.0
 35
0.0
146
0.0
 13
0.0
 23
0.0
 33
0.0
 16
1.0
 26
0.0
 36
0.0
 17
0.0
 27
1.0
 37
0.0
 76
0
330
23
  0
DICTIONARY
  5
156
100
AcDbDictionary
281
1
  3
DIMASSOC
350
158
  3
HIDETEXT
350
157
  0
DICTIONARYVAR
  5
157
100
DictionaryVariables
280
0
  1
2
  0
DICTIONARYVAR
  5
158
100
DictionaryVariables
280
0
  1
1
  0
ENDSEC
  0
EOF
